<svg width="60" height="60" viewBox="0 0 60 60" fill="none" xmlns="http://www.w3.org/2000/svg">
<g clip-path="url(#clip0_34_753)">
<path d="M48.7818 49.8118L48.234 49.6488L48.7818 49.4858C50.1123 49.0892 51.211 48.1979 51.8702 46.976C52.5318 45.7541 52.6783 44.3478 52.2828 43.0184C51.8873 41.6866 50.9962 40.588 49.7754 39.9264C48.5499 39.2623 47.1387 39.1183 45.8154 39.5163L30.0013 44.2231L14.1844 39.5164C12.8587 39.1221 11.4501 39.2649 10.2244 39.9266C9.00366 40.5882 8.11256 41.6868 7.71705 43.0174C7.32154 44.3479 7.46803 45.7542 8.12967 46.9761C8.78885 48.198 9.88749 49.0891 11.218 49.4847L11.7677 49.6483L11.218 49.8118C8.89491 50.503 7.43252 52.6844 7.52299 55.0005C7.52299 55.0045 7.52182 55.0081 7.52182 55.0121H7.52287C7.54021 55.4329 7.59154 55.8563 7.71717 56.2779C8.11268 57.6098 9.00378 58.7084 10.2245 59.37C10.996 59.7875 11.8408 59.9987 12.6929 59.9987C13.1934 59.9987 13.6939 59.9266 14.1845 59.7801L30.0007 55.074L45.8156 59.7801C46.2996 59.9252 46.8021 59.9992 47.3073 59.9998C48.1619 59.9998 49.0065 59.7862 49.778 59.3688C50.9987 58.7071 51.8874 57.6098 52.2829 56.2791C52.4085 55.857 52.4597 55.4334 52.4772 55.012H52.4783C52.4783 55.008 52.4771 55.0043 52.4771 55.0004C52.567 52.6839 51.1047 50.503 48.7818 49.8118ZM46.5284 41.9115C47.2266 41.7089 47.9517 41.7857 48.5841 42.1251C49.2188 42.4694 49.6803 43.0383 49.8853 43.7304C50.0929 44.4213 50.0172 45.1524 49.6729 45.7873C49.3286 46.4208 48.7598 46.8834 48.0688 47.0885V47.0897L43.8525 48.3445L38.1649 46.6526L34.3829 45.5271L46.5284 41.9115ZM12.8697 57.4419C12.3682 57.4741 11.8689 57.4155 11.4159 57.1716C10.7811 56.8273 10.3197 56.2585 10.1146 55.5664C10.0449 55.3319 10.0572 55.0986 10.0516 54.8649C10.1318 53.5588 11.1946 52.5121 12.5218 52.5121C13.9012 52.5121 15.0217 53.6339 15.0217 55.0121C15.0219 56.267 14.0774 57.2654 12.8697 57.4419ZM17.3172 56.2408C17.4371 55.8731 17.5218 55.4761 17.5218 55.0122C17.5218 53.4266 16.7659 52.0281 15.6114 51.1116L16.1473 50.9521L25.6177 53.7707L17.3172 56.2408ZM42.4781 55.0121C42.4781 55.4761 42.563 55.8728 42.6827 56.2406L11.931 47.0885C11.2401 46.8834 10.6712 46.4208 10.3269 45.7873C10.1567 45.4755 10.0503 45.1329 10.0138 44.7795C9.97733 44.4262 10.0116 44.0691 10.1145 43.7291C10.3196 43.0381 10.7809 42.4693 11.4157 42.125C12.0506 41.7856 12.7756 41.7088 13.4715 41.9114L44.3883 51.1116C43.234 52.0282 42.4781 53.4265 42.4781 55.0121ZM49.8853 55.5675C49.7856 55.9073 49.6194 56.2239 49.3965 56.499C49.1735 56.7741 48.8982 57.0023 48.5865 57.1703C48.1349 57.4163 47.6339 57.4744 47.1304 57.4417C45.9226 57.2654 44.9781 56.2672 44.9781 55.0121C44.9781 53.6339 46.0988 52.5121 47.4781 52.5121C48.8055 52.5121 49.8684 53.5591 49.9485 54.8655C49.9429 55.0994 49.9552 55.3327 49.8853 55.5675Z" fill="black"/>
<path d="M29.9976 39.9998C38.2667 39.9998 44.9952 33.2225 44.9952 24.8911C44.9952 24.4712 44.9684 24.0818 44.9391 23.6924L44.9122 23.3115C44.4557 17.3532 41.7238 13.6435 39.3116 10.3695C37.1558 7.44225 35.2929 4.91533 35.2929 1.24956C35.2929 0.780809 35.0293 0.35108 34.6117 0.136274C34.407 0.0319846 34.1775 -0.0139532 33.9485 0.00349246C33.7194 0.0209381 33.4995 0.101094 33.3129 0.235181C29.2406 3.17098 26.7455 8.39558 25.8446 11.9784C25.1757 14.6493 25.0365 17.6095 25.0072 19.7495C22.3631 18.6288 21.5355 14.1294 21.5258 14.078C21.4925 13.887 21.4151 13.7063 21.2998 13.5504C21.1846 13.3944 21.0346 13.2675 20.8617 13.1796C20.5126 13.0038 20.1 12.9952 19.7459 13.1698C19.5628 13.2589 15.2635 15.4599 15.0194 24.0268C14.9998 24.3137 14.9998 24.6031 14.9998 24.8911C14.9998 33.2225 21.7284 39.9998 29.9976 39.9998ZM17.517 24.144C17.6342 20.0497 18.7231 17.7731 19.6264 16.5805C20.4564 18.9524 22.3486 22.4996 26.25 22.4996C26.4142 22.4998 26.5768 22.4675 26.7285 22.4047C26.8802 22.3419 27.0181 22.2499 27.1342 22.1338C27.2503 22.0177 27.3423 21.8798 27.4051 21.7281C27.4679 21.5764 27.5002 21.4138 27.5 21.2496C27.5 18.5457 27.5586 15.4231 28.2715 12.5874C28.9722 9.7968 30.6567 6.27998 33.042 3.7861C33.6793 6.93799 35.4468 9.33906 37.2974 11.8525C39.6193 15.0019 42.0192 18.2588 42.4172 23.4871L42.444 23.8777C42.4708 24.2073 42.4953 24.5357 42.4953 24.8909C42.4953 31.8428 36.8899 37.4996 29.9977 37.4996C23.1055 37.4996 17.5 31.8428 17.5 24.8909C17.4999 24.6567 17.4999 24.4236 17.517 24.144Z" fill="black"/>
</g>
<defs>
<clipPath id="clip0_34_753">
<rect width="60" height="60" fill="white"/>
</clipPath>
</defs>
</svg>
