<svg width="60" height="60" viewBox="0 0 60 60" fill="none" xmlns="http://www.w3.org/2000/svg">
<path d="M43.64 22.56C45.686 22.56 47.36 20.886 47.36 18.84C47.36 16.794 45.686 15.12 43.64 15.12H39.3868L33.5216 5.07599C33.6456 4.71639 33.72 4.34439 33.72 3.95999C33.72 1.91399 32.046 0.23999 30 0.23999C27.954 0.23999 26.28 1.91399 26.28 3.95999C26.28 4.34439 26.3544 4.71639 26.466 5.07599L20.6132 15.12H16.36C14.314 15.12 12.64 16.794 12.64 18.84C12.64 20.886 14.314 22.56 16.36 22.56H17.6V27.7432C16.1616 28.2516 15.12 29.6156 15.12 31.24V56.04C15.12 56.722 15.678 57.28 16.36 57.28H21.32C22.002 57.28 22.56 56.722 22.56 56.04V31.24C22.56 29.628 21.5184 28.264 20.08 27.7432V22.56H28.76V27.7432C27.3216 28.2516 26.28 29.6156 26.28 31.24V52.32C26.28 53.002 26.838 53.56 27.52 53.56H32.48C33.162 53.56 33.72 53.002 33.72 52.32V31.24C33.72 29.628 32.6784 28.264 31.24 27.7432V22.56H39.92V27.7432C38.4816 28.2516 37.44 29.6156 37.44 31.24V58.52C37.44 59.202 37.998 59.76 38.68 59.76H43.64C44.322 59.76 44.88 59.202 44.88 58.52V31.24C44.88 29.628 43.8384 28.264 42.4 27.7432V22.56H43.64ZM20.08 54.8H17.6V31.24C17.6 30.558 18.158 30 18.84 30C19.522 30 20.08 30.558 20.08 31.24V54.8ZM31.24 51.08H28.76V31.24C28.76 30.558 29.318 30 30 30C30.682 30 31.24 30.558 31.24 31.24V51.08ZM42.4 57.28H39.92V31.24C39.92 30.558 40.478 30 41.16 30C41.842 30 42.4 30.558 42.4 31.24V57.28ZM31.24 7.45679C31.4632 7.38239 31.674 7.28319 31.8724 7.15919L36.5224 15.12H31.24V7.45679ZM30 2.71999C30.682 2.71999 31.24 3.27799 31.24 3.95999C31.24 4.64199 30.682 5.19999 30 5.19999C29.318 5.19999 28.76 4.64199 28.76 3.95999C28.76 3.27799 29.318 2.71999 30 2.71999ZM28.1276 7.15919C28.326 7.28319 28.5368 7.38239 28.76 7.45679V15.12H23.4776L28.1276 7.15919ZM15.12 18.84C15.12 18.158 15.678 17.6 16.36 17.6H43.64C44.322 17.6 44.88 18.158 44.88 18.84C44.88 19.522 44.322 20.08 43.64 20.08H16.36C15.678 20.08 15.12 19.522 15.12 18.84Z" fill="black"/>
</svg>
