<svg width="31" height="31" viewBox="0 0 31 31" fill="none" xmlns="http://www.w3.org/2000/svg">
<path d="M15.5 0.25C23.9091 0.25 30.75 7.09089 30.75 15.5C30.75 23.9091 23.9091 30.75 15.5 30.75C7.09089 30.75 0.25 23.9091 0.25 15.5C0.25 7.09089 7.09089 0.25 15.5 0.25ZM15.5 2.15625C8.14247 2.15625 2.15625 8.14247 2.15625 15.5C2.15625 22.8575 8.14247 28.8438 15.5 28.8438C22.8575 28.8438 28.8438 22.8575 28.8438 15.5C28.8438 8.14247 22.8575 2.15625 15.5 2.15625ZM22.5498 9.06836C23.6307 9.06851 24.5096 9.94746 24.5098 11.0283V19.9717C24.5096 21.0526 23.6307 21.9315 22.5498 21.9316H8.4502C7.36922 21.9315 6.49035 21.0526 6.49023 19.9717V11.0283C6.49038 9.94744 7.36931 9.06848 8.4502 9.06836H22.5498ZM16.0928 17.125C15.9192 17.2629 15.7093 17.332 15.5 17.332C15.2906 17.332 15.0807 17.2628 14.9072 17.125L8.39648 11.9541V19.9707L8.40039 19.9922C8.40309 19.9986 8.40707 20.0047 8.41211 20.0098C8.42228 20.0199 8.43679 20.0254 8.45117 20.0254H22.5488C22.5632 20.0254 22.5777 20.0199 22.5879 20.0098C22.5979 19.9997 22.6034 19.9859 22.6035 19.9717V11.9541L16.0928 17.125ZM15.5 15.1611L20.7734 10.9746H10.2266L15.5 15.1611Z" fill="#ECB2AD" stroke="#ECB2AD" stroke-width="0.5"/>
</svg>
