<svg width="60" height="60" viewBox="0 0 60 60" fill="none" xmlns="http://www.w3.org/2000/svg">
<path d="M27.7259 6.57556C30.9297 5.43027 34.4185 5.81582 37.5189 7.0863C40.6188 8.35668 43.34 10.5158 45.012 12.933C45.4513 13.5709 45.535 14.3659 45.264 15.0853L45.263 15.0863C44.9815 15.8159 44.3661 16.369 43.6038 16.557H43.6028L40.8235 17.2172C39.0563 17.6417 37.5273 18.6687 36.5218 20.098L36.5208 20.097C35.3376 21.7846 34.1728 24.1374 33.4876 26.1732C39.1532 23.1092 44.7554 22.2466 49.2913 23.765C51.2288 24.4142 52.7733 25.8961 53.4241 27.7367L53.5267 28.0375C54.5442 31.1579 54.1443 34.5261 52.9134 37.5297C51.643 40.6292 49.4837 43.349 47.0667 45.0209L47.0677 45.0219C46.68 45.2943 46.2195 45.43 45.7601 45.4301H45.7591C45.2264 45.4276 44.7097 45.2479 44.2903 44.9193C43.8709 44.5906 43.5723 44.1315 43.4427 43.6146V43.6127L42.7825 40.8334C42.3845 39.1764 41.4576 37.7289 40.1653 36.726L39.9026 36.5316C38.2048 35.348 35.8609 34.1826 33.8255 33.4974C36.89 39.1635 37.7534 44.7659 36.2347 49.3021C35.5856 51.2291 34.1043 52.783 32.2737 53.434C30.9721 53.8981 29.6105 54.1097 28.2503 54.1097C22.9744 54.1097 17.6542 50.9111 14.9974 47.0668C14.5578 46.4383 14.4755 45.6332 14.7464 44.9144L14.803 44.7797C15.1053 44.1168 15.6908 43.6191 16.4056 43.4427H16.4066L19.1868 42.7826L19.515 42.6967C21.1429 42.2289 22.5459 41.2428 23.4886 39.9027C24.6721 38.2147 25.8356 35.8608 26.5208 33.8246C22.6794 35.8986 18.8769 36.97 15.4105 36.9701C13.7507 36.9701 12.1795 36.7285 10.7083 36.2347C8.78123 35.5856 7.22647 34.1045 6.5755 32.2738C5.43019 29.0699 5.81568 25.5812 7.08624 22.4808C8.35665 19.3809 10.5156 16.6596 12.9329 14.9877C13.5709 14.5484 14.3658 14.4656 15.0853 14.7367H15.0862C15.8158 15.0182 16.3689 15.6336 16.5569 16.3959V16.3969L17.2171 19.1771C17.6417 20.9442 18.6687 22.4725 20.098 23.4779C21.7854 24.661 24.1375 25.8259 26.1732 26.5111C23.1095 20.8457 22.2464 15.2441 23.765 10.7084C24.414 8.7814 25.8953 7.22659 27.7259 6.57556ZM31.9632 34.6967C31.3639 34.9492 30.7013 35.0999 30.0003 35.1C29.4696 35.1 28.9684 34.9976 28.472 34.8422C27.7644 36.8521 26.6524 39.0989 25.4964 40.8168L25.262 41.1576C23.9476 43.0281 21.966 44.3618 19.6732 44.9174L16.9036 45.5765C16.8371 45.5934 16.8045 45.6539 16.7816 45.6996C16.7744 45.7199 16.7718 45.7416 16.7737 45.7631C16.7758 45.7858 16.7834 45.808 16.7952 45.8275C18.2382 47.9129 20.6132 49.7617 23.2845 50.8558C25.9576 51.9506 28.9163 52.2853 31.5267 51.3558C32.725 50.927 33.7037 49.8918 34.1448 48.5883L34.262 48.2181C35.3963 44.385 34.5864 39.6245 31.9632 34.6967ZM48.5882 25.8549C44.6938 24.5535 39.7841 25.3274 34.6966 28.0355C34.9495 28.6352 35.0999 29.2988 35.0999 30.0004C35.0999 30.5299 34.9971 31.0295 34.8421 31.517C36.9879 32.2724 39.3939 33.4894 41.1575 34.7279C43.0281 36.0423 44.3618 38.024 44.9173 40.3168L45.5775 43.0853L45.598 43.1312C45.6241 43.1686 45.6657 43.1904 45.6995 43.2074C45.7199 43.2147 45.7414 43.2181 45.763 43.2162C45.7858 43.2141 45.8079 43.2066 45.8275 43.1947C47.9128 41.7568 49.7617 39.3843 50.8558 36.7142C51.9505 34.0425 52.2851 31.0843 51.3558 28.474C50.9538 27.3504 50.0189 26.4192 48.8294 25.9437L48.5882 25.8549ZM14.2884 16.7816C14.2599 16.7714 14.2173 16.7677 14.1732 16.7953C12.0876 18.2382 10.238 20.6131 9.14386 23.2845C8.04909 25.9576 7.71443 28.9164 8.64386 31.5267C9.07269 32.7252 10.1087 33.7038 11.4124 34.1449H11.4114C15.3056 35.4462 20.2148 34.6719 25.3021 31.9642C25.0494 31.3648 24.8998 30.7015 24.8997 30.0004C24.8997 29.4694 25.001 28.9678 25.1478 28.472C23.1378 27.7645 20.891 26.6525 19.1732 25.4965L18.8323 25.2621C16.9618 23.9477 15.6281 21.966 15.0726 19.6732L14.4124 16.9037V16.9027C14.3949 16.8362 14.334 16.8045 14.2884 16.7816ZM30.0003 27.1C28.4055 27.1 27.0999 28.4056 27.0999 30.0004C27.1001 31.595 28.4056 32.8998 30.0003 32.8998C31.5948 32.8996 32.8995 31.5949 32.8997 30.0004C32.8997 28.4057 31.5949 27.1001 30.0003 27.1ZM36.7161 9.14392C34.0431 8.04913 31.0842 7.71467 28.4739 8.64392C27.2753 9.0727 26.2959 10.1087 25.8548 11.4125C24.5538 15.3065 25.328 20.2152 28.0355 25.3021C28.635 25.0493 29.2989 24.8998 30.0003 24.8998C30.5307 24.8998 31.0315 25.0012 31.5267 25.1478C32.2821 23.0019 33.4999 20.5864 34.7386 18.8324L34.9925 18.4886C36.3016 16.7987 38.1769 15.5935 40.3265 15.0726L43.097 14.4125C43.1627 14.3954 43.1943 14.3358 43.2171 14.2904C43.2276 14.2628 43.233 14.221 43.2073 14.1771L42.9261 13.7885C41.4666 11.8615 39.222 10.1703 36.7161 9.14392Z" fill="black" stroke="black" stroke-width="0.2"/>
</svg>
