<svg width="50" height="50" viewBox="0 0 50 50" fill="none" xmlns="http://www.w3.org/2000/svg">
<g clip-path="url(#clip0_162_323)">
<path d="M37.4998 0H12.5004C5.62621 0 0.000732422 5.62547 0.000732422 12.4997V37.5003C0.000732422 44.3727 5.62621 50 12.5004 50H37.4998C44.374 50 49.9995 44.3727 49.9995 37.5003V12.4997C49.9995 5.62547 44.374 0 37.4998 0ZM45.8327 37.5003C45.8327 42.0939 42.096 45.8332 37.4998 45.8332H12.5004C7.90618 45.8332 4.1675 42.0939 4.1675 37.5003V12.4997C4.1675 7.90484 7.90618 4.16677 12.5004 4.16677H37.4998C42.096 4.16677 45.8327 7.90484 45.8327 12.4997V37.5003Z" fill="#9A5DB8"/>
<path d="M38.5434 14.5829C40.2692 14.5829 41.6683 13.1838 41.6683 11.4579C41.6683 9.73208 40.2692 8.33301 38.5434 8.33301C36.8175 8.33301 35.4185 9.73208 35.4185 11.4579C35.4185 13.1838 36.8175 14.5829 38.5434 14.5829Z" fill="#9A5DB8"/>
<path d="M24.9999 12.4995C18.0951 12.4995 12.5002 18.095 12.5002 24.9992C12.5002 31.9009 18.0951 37.5001 24.9999 37.5001C31.9028 37.5001 37.4996 31.9009 37.4996 24.9992C37.4996 18.095 31.9028 12.4995 24.9999 12.4995ZM24.9999 33.3334C20.3981 33.3334 16.667 29.6022 16.667 24.9992C16.667 20.3962 20.3981 16.6663 24.9999 16.6663C29.6018 16.6663 33.3329 20.3962 33.3329 24.9992C33.3329 29.6022 29.6018 33.3334 24.9999 33.3334Z" fill="#9A5DB8"/>
</g>
<defs>
<clipPath id="clip0_162_323">
<rect width="50" height="50" fill="white"/>
</clipPath>
</defs>
</svg>
