<svg width="60" height="60" viewBox="0 0 60 60" fill="none" xmlns="http://www.w3.org/2000/svg">
<path d="M54.1523 41.7773C53.7187 42.4804 53.2617 43.166 52.7695 43.8222C52.7109 43.9043 52.6523 43.9804 52.5879 44.0625C52.5644 44.0918 52.5234 44.1328 52.5117 44.1621C52.5644 44.0097 52.6054 44.039 52.541 44.1269C52.4062 44.291 52.2773 44.4609 52.1426 44.625C51.8789 44.9414 51.6152 45.2519 51.3398 45.5566C50.8008 46.1543 50.2324 46.7343 49.6406 47.2793C49.3418 47.5605 49.0312 47.83 48.7207 48.0996C48.5683 48.2285 48.416 48.3574 48.2636 48.4804C48.1875 48.5449 48.1113 48.6035 48.0293 48.6679C47.9941 48.6972 47.9648 48.7207 47.9297 48.7441C47.9238 48.75 47.7011 48.9199 47.8476 48.8086C47.9707 48.7148 47.7422 48.8906 47.6953 48.9257C47.6133 48.9843 47.5371 49.0429 47.4551 49.1015C47.2851 49.2304 47.1094 49.3535 46.9336 49.4707C46.5937 49.705 46.2539 49.9336 45.9023 50.1562C45.2168 50.5898 44.5078 50.9941 43.7871 51.3632C43.4062 51.5566 43.0195 51.7441 42.6269 51.9257L42.1172 52.1543C41.8418 52.2715 42.2344 52.1074 42.041 52.1894C41.9355 52.2304 41.8301 52.2773 41.7187 52.3183C40.9394 52.6289 40.1426 52.9043 39.3398 53.1386C38.5254 53.3789 37.6992 53.5781 36.8672 53.7363C36.4453 53.8183 36.0234 53.8886 35.6015 53.9531C35.584 53.9531 35.4785 53.959 35.4668 53.9707C35.4726 53.959 35.7539 53.9355 35.5136 53.9648L35.25 54C35.0097 54.0293 34.7754 54.0527 34.5351 54.0761C32.8886 54.2285 31.2304 54.2343 29.5781 54.0879C29.2031 54.0527 28.7695 54.0586 28.4121 53.959C28.4121 53.959 28.6582 53.9941 28.5234 53.9765C28.4707 53.9707 28.4179 53.959 28.3652 53.9531C28.2715 53.9414 28.1777 53.9238 28.0898 53.9121C27.8906 53.8828 27.6914 53.8476 27.498 53.8125C26.7539 53.6777 26.0156 53.5136 25.2832 53.3203C24.5508 53.1211 23.8242 52.8984 23.1035 52.6406C22.7461 52.5117 22.3945 52.3769 22.0429 52.2363C22.0078 52.2187 21.9726 52.207 21.9375 52.1894C21.75 52.1132 21.9785 52.207 22.0019 52.2187C21.914 52.1894 21.832 52.1484 21.75 52.1133C21.5742 52.0371 21.3926 51.955 21.2168 51.873C19.8691 51.2519 18.5742 50.5195 17.3496 49.6875C17.039 49.4765 16.7402 49.2656 16.4414 49.0429C16.3711 48.9902 16.2949 48.9375 16.2246 48.8789C16.1836 48.8496 16.1426 48.8144 16.1015 48.7851C15.9961 48.709 16.1894 48.8496 16.1836 48.8496C16.0254 48.7617 15.873 48.6093 15.7324 48.4922C15.1582 48.0234 14.5957 47.5312 14.0625 47.0215C13.5234 46.5058 13.0078 45.9726 12.5156 45.416C12.2695 45.1406 12.0293 44.8535 11.7949 44.5664C11.6894 44.4375 11.584 44.3086 11.4843 44.1797C11.4551 44.1386 11.4199 44.0976 11.3906 44.0566C11.3086 43.957 11.4609 44.1445 11.4551 44.1445C11.3847 44.08 11.3261 43.9746 11.2676 43.8984C10.3711 42.7031 9.57419 41.4375 8.88864 40.1132C8.71872 39.7793 8.5488 39.4453 8.3906 39.1054C8.32028 38.9531 8.24997 38.8007 8.17966 38.6425C8.13864 38.5488 8.09763 38.455 8.05661 38.3554C8.03904 38.3203 8.02732 38.2851 8.00974 38.25C7.94528 38.1093 8.12107 38.5254 8.02146 38.2793C7.74021 37.5879 7.48239 36.8906 7.25388 36.1816C6.78513 34.7168 6.457 33.2109 6.22849 31.6875C6.21091 31.5527 6.24607 31.8047 6.24607 31.7988C6.23435 31.7519 6.22849 31.6875 6.22263 31.6406L6.18747 31.3593C6.16404 31.1601 6.1406 30.955 6.12302 30.7558C6.08786 30.375 6.05857 29.9941 6.04099 29.6191C5.99997 28.7929 5.99411 27.9609 6.02927 27.1347C6.04685 26.7011 6.07614 26.2675 6.1113 25.8398C6.12888 25.6347 6.15232 25.4238 6.16989 25.2187C6.18161 25.1132 6.19333 25.0136 6.20505 24.9082C6.21091 24.8613 6.21677 24.8203 6.22263 24.7734C6.24607 24.5976 6.27536 24.6679 6.22263 24.7793C6.2988 24.6211 6.28708 24.3398 6.31638 24.1699C6.35154 23.9531 6.38669 23.7363 6.42771 23.5195C6.50388 23.1035 6.59177 22.6933 6.69138 22.2773C6.88474 21.4629 7.11325 20.6543 7.38279 19.8632C7.51169 19.4824 7.64646 19.1074 7.79294 18.7324C7.86325 18.5449 7.93943 18.3632 8.0156 18.1757C8.04489 18.1113 8.12107 18 7.99802 18.2168C8.02146 18.1816 8.03318 18.1347 8.05075 18.0996C8.09763 17.9941 8.13864 17.8886 8.18552 17.789C8.85349 16.289 9.65622 14.8476 10.582 13.4941C10.8105 13.1543 11.0508 12.8261 11.2968 12.498C11.3437 12.4394 11.4199 12.3632 11.4492 12.2988C11.373 12.4746 11.3613 12.4101 11.4199 12.334C11.4433 12.2988 11.4726 12.2695 11.4961 12.2343C11.625 12.0703 11.7597 11.9062 11.8945 11.7422C12.416 11.1152 12.9609 10.5117 13.5351 9.93161C14.1093 9.35153 14.707 8.80075 15.334 8.2734C15.4863 8.1445 15.6386 8.02145 15.791 7.8984C15.8672 7.83395 15.9433 7.77536 16.0195 7.71676C16.0547 7.69333 16.084 7.66403 16.1191 7.64059C16.289 7.50583 16.0019 7.72848 16.1133 7.64059C16.4414 7.3945 16.7695 7.15426 17.1035 6.91989C17.7539 6.46872 18.4218 6.04684 19.1074 5.65426C18.5215 5.31442 17.9297 4.98043 17.3437 4.64059C16.8574 8.99997 17.1914 13.459 18.3281 17.6953C19.3242 21.3925 20.9414 24.9433 23.0801 28.1132C25.2656 31.3476 27.9551 34.1718 31.0488 36.539C34.0957 38.8652 37.5351 40.664 41.1679 41.8828C45.0117 43.166 49.1015 43.7636 53.1504 43.6582C53.8183 43.6406 54.4863 43.6054 55.1484 43.5468C55.7578 43.4941 56.3496 43.0429 56.3203 42.375C56.291 41.7832 55.8047 41.1504 55.1484 41.2031C52.9336 41.3906 50.7011 41.3613 48.4922 41.1211C48.2636 41.0976 48.0351 41.0683 47.8125 41.039C47.6484 41.0215 48.0469 41.0742 47.8828 41.0507C47.8183 41.039 47.748 41.0332 47.6836 41.0215C47.5488 41.0039 47.4199 40.9804 47.2851 40.9629C46.8222 40.8925 46.3652 40.8105 45.9082 40.7168C44.9765 40.5293 44.0508 40.3066 43.1367 40.0429C42.2461 39.7851 41.3613 39.4922 40.4941 39.164C40.2773 39.082 40.0547 38.9941 39.8379 38.9062C39.7441 38.8652 39.6445 38.83 39.5508 38.789C39.5039 38.7715 39.4511 38.7539 39.4043 38.7304C39.6855 38.8769 39.4687 38.7597 39.3984 38.7246C38.9707 38.5429 38.5488 38.3437 38.1269 38.1445C36.457 37.3418 34.8515 36.3984 33.3398 35.3379C32.9707 35.08 32.6133 34.8164 32.2558 34.541C32.1914 34.4941 32.0332 34.4062 32.2793 34.5586C32.2383 34.5351 32.1972 34.4941 32.1562 34.4648C32.0742 34.4004 31.998 34.3359 31.916 34.2773C31.7285 34.125 31.5351 33.9726 31.3535 33.8144C30.6562 33.2343 29.9824 32.625 29.332 31.9922C28.6758 31.3476 28.0429 30.6797 27.4394 29.9824C27.1347 29.6367 26.8418 29.2793 26.5547 28.9218C26.4902 28.8398 26.4258 28.7636 26.3613 28.6816C26.3203 28.6289 26.2851 28.582 26.2441 28.5293C26.1445 28.4062 26.3789 28.7109 26.2851 28.582C26.1386 28.3886 25.9922 28.1953 25.8457 27.9961C24.7617 26.5136 23.7949 24.9433 22.957 23.3027C22.7461 22.8867 22.541 22.4707 22.3476 22.0429C22.2539 21.8437 22.166 21.6386 22.0781 21.4394C22.0547 21.3925 22.0371 21.3457 22.0136 21.2988C21.9316 21.1113 22.0254 21.3398 22.0429 21.3632C21.9844 21.2519 21.9433 21.123 21.8965 21.0058C21.5449 20.1386 21.2226 19.2539 20.9472 18.3574C20.666 17.455 20.4199 16.5351 20.2148 15.6093C20.1094 15.1406 20.0156 14.6718 19.9336 14.2031C19.8926 13.9804 19.8574 13.7578 19.8222 13.5293C19.8047 13.4121 19.7871 13.289 19.7695 13.1718C19.7636 13.1191 19.7519 13.0664 19.7461 13.0136C19.7344 12.9257 19.6582 12.7031 19.7461 13.0078C19.6875 12.8086 19.6933 12.5742 19.6699 12.3691C19.6406 12.1113 19.6172 11.8593 19.5937 11.6015C19.5527 11.1152 19.5176 10.6289 19.4941 10.1367C19.4414 8.98825 19.4472 7.83395 19.5058 6.68551C19.541 5.99997 19.5996 5.32028 19.6758 4.64059C19.7812 3.72067 18.6152 3.22262 17.9121 3.62692C14.9765 5.31442 12.3222 7.52926 10.1718 10.1484C7.95114 12.8554 6.22263 15.9375 5.10935 19.2773C3.99607 22.5996 3.52146 26.1621 3.7031 29.6543C3.87302 32.8711 4.57029 36.0644 5.81833 39.041C7.05466 41.9941 8.74802 44.707 10.8808 47.0976C12.9492 49.4179 15.4218 51.3984 18.1289 52.9218C20.8828 54.4687 23.9062 55.5586 27.0176 56.0976C30.5156 56.7011 34.084 56.6718 37.5644 55.9863C40.9687 55.3183 44.2617 53.9882 47.1855 52.1191C50.1386 50.2324 52.6933 47.8183 54.7851 45.0117C55.2773 44.3496 55.7402 43.664 56.1679 42.9668C56.4902 42.4453 56.2969 41.6543 55.7461 41.3613C55.1836 41.0566 54.4922 41.2207 54.1523 41.7773Z" fill="black"/>
<path d="M41.9707 8.15627C42.8144 9.86721 43.6582 11.5781 44.5019 13.2832C44.6074 13.5 44.707 13.7344 44.83 13.9453C45.1113 14.4375 45.5156 14.4844 45.9843 14.5547C47.08 14.7129 48.1758 14.8711 49.2773 15.0352C50.1621 15.1641 51.0468 15.293 51.9258 15.4219C51.7558 14.7715 51.58 14.1153 51.4101 13.4649L47.3144 17.4551C47.1386 17.625 46.9511 17.7891 46.7871 17.9707C46.459 18.334 46.4179 18.7207 46.4941 19.1778C46.5117 19.3008 46.5351 19.4239 46.5586 19.5469C46.7461 20.6367 46.9336 21.7207 47.1211 22.8106C47.2734 23.7012 47.4258 24.5918 47.5781 25.4766C48.1523 25.0371 48.7265 24.5918 49.3008 24.1524C47.6133 23.2676 45.9258 22.377 44.2383 21.4922C44.0215 21.3809 43.8047 21.252 43.5879 21.1465C43.1543 20.9414 42.7617 20.9649 42.3398 21.1758C42.2285 21.2344 42.1172 21.293 42.0117 21.3516C41.0332 21.8672 40.0547 22.377 39.082 22.8926C38.2851 23.3145 37.4824 23.7305 36.6855 24.1524C37.2597 24.5918 37.834 25.0371 38.4082 25.4766C38.7304 23.5957 39.0527 21.7207 39.375 19.8399C39.416 19.5996 39.4629 19.3535 39.498 19.1133C39.5683 18.6504 39.4804 18.2578 39.1465 17.9239C39.0586 17.836 38.9707 17.7481 38.8769 17.6602C38.0859 16.8867 37.2949 16.1192 36.5039 15.3457L34.5644 13.459C34.3945 14.1094 34.2187 14.7656 34.0488 15.416C35.9355 15.1406 37.8222 14.8653 39.709 14.5957C39.9492 14.5606 40.2011 14.543 40.4355 14.4903C40.957 14.3731 41.1386 13.9512 41.3437 13.541C41.8359 12.5449 42.3222 11.5547 42.8144 10.5586C43.207 9.75588 43.6054 8.95901 43.998 8.15627C44.2675 7.60549 44.1621 6.86135 43.5761 6.55081C43.0488 6.26956 42.2636 6.38674 41.9707 6.97268C41.1328 8.66604 40.3008 10.3594 39.4629 12.0469C39.3457 12.2871 39.2285 12.5274 39.1113 12.7617C39.3457 12.5801 39.58 12.4043 39.8144 12.2227C37.9453 12.4922 36.082 12.7676 34.2129 13.0371C33.9492 13.0781 33.6855 13.1133 33.4218 13.1543C33.0351 13.2129 32.7011 13.6172 32.6015 13.9746C32.4902 14.3731 32.6074 14.8242 32.9004 15.1172C34.2539 16.4356 35.6015 17.7539 36.955 19.0664C37.1484 19.2539 37.3359 19.4414 37.5293 19.6231L37.2304 18.4805C36.914 20.3379 36.5918 22.2012 36.2754 24.0586C36.2285 24.3223 36.1875 24.586 36.1406 24.8496C36.0586 25.3301 36.1582 25.7696 36.5625 26.0801C36.9433 26.3731 37.4414 26.3965 37.8633 26.1739L42.873 23.5371C43.1074 23.4141 43.3476 23.291 43.582 23.1621H42.3984L47.4082 25.7989C47.6425 25.9219 47.8828 26.0449 48.1172 26.1739C48.539 26.3965 49.0371 26.3789 49.4179 26.0801C49.8164 25.7754 49.9218 25.3242 49.8398 24.8496C49.5234 22.9922 49.2011 21.1289 48.8847 19.2715C48.8379 19.0078 48.7968 18.7442 48.75 18.4805L48.4511 19.6231C49.8047 18.3047 51.1523 16.9864 52.5058 15.6739C52.6992 15.4864 52.8867 15.2989 53.08 15.1172C53.3789 14.8242 53.4902 14.3789 53.3789 13.9746C53.2793 13.6172 52.9511 13.2129 52.5586 13.1543C50.6894 12.8848 48.8261 12.6094 46.957 12.3399C46.6933 12.2989 46.4297 12.2637 46.166 12.2227C46.4004 12.4043 46.6347 12.5801 46.8691 12.7617C46.0312 11.0684 45.1992 9.37502 44.3613 7.68752C44.2441 7.44729 44.1269 7.20706 44.0097 6.97268C43.7402 6.4219 42.914 6.22854 42.4043 6.55081C41.8242 6.91409 41.6777 7.56448 41.9707 8.15627Z" fill="black"/>
</svg>
