<svg width="60" height="60" viewBox="0 0 60 60" fill="none" xmlns="http://www.w3.org/2000/svg">
<path fill-rule="evenodd" clip-rule="evenodd" d="M47.9963 41.0812C52.565 41.0437 56.255 37.3312 56.255 32.7637C56.254 31.045 55.7211 29.3688 54.7294 27.965C53.7377 26.5613 52.3358 25.4989 50.7163 24.9237C50.5606 23.5649 50.1254 22.2531 49.4381 21.0707C48.7508 19.8883 47.8263 18.8609 46.7227 18.0531C45.6191 17.2454 44.3602 16.6747 43.0254 16.3771C41.6905 16.0795 40.3085 16.0613 38.9663 16.3237C37.1312 10.585 31.75 6.42371 25.405 6.42371C17.5487 6.42371 11.17 12.8025 11.17 20.6587C11.17 20.9662 11.18 21.2725 11.1987 21.5762C6.91875 22.67 3.75 26.555 3.75 31.1737C3.75099 33.8008 4.79496 36.3201 6.6525 38.1778C8.51003 40.0356 11.0291 41.0799 13.6562 41.0812H47.9963ZM47.9863 38.5812H13.6562C11.6919 38.5802 9.80825 37.7993 8.41945 36.41C7.03066 35.0207 6.25033 33.1368 6.25 31.1725C6.25 27.4025 9.07375 24.285 12.7188 23.8262C12.884 23.8054 13.0435 23.7517 13.1877 23.6684C13.3319 23.5851 13.4581 23.4738 13.5587 23.341C13.6593 23.2083 13.7324 23.0567 13.7736 22.8954C13.8148 22.734 13.8234 22.566 13.7987 22.4012C13.7129 21.8239 13.6699 21.2411 13.67 20.6575C13.67 14.1812 18.9287 8.92246 25.405 8.92246C31.0087 8.92246 35.7025 12.86 36.8638 18.1175C36.9013 18.2892 36.9748 18.4511 37.0793 18.5925C37.1838 18.7339 37.3171 18.8516 37.4703 18.9378C37.6235 19.0241 37.7932 19.077 37.9683 19.0931C38.1434 19.1092 38.3199 19.0881 38.4862 19.0312C39.5895 18.6565 40.7656 18.5473 41.919 18.7124C43.0724 18.8776 44.1707 19.3123 45.1245 19.9815C46.0784 20.6506 46.861 21.5353 47.4088 22.5636C47.9567 23.592 48.2543 24.735 48.2775 25.9C48.2826 26.1786 48.3807 26.4476 48.5563 26.6641C48.7318 26.8806 48.9747 27.0323 49.2463 27.095C50.6306 27.4192 51.8482 28.2391 52.6694 29.3998C53.4905 30.5605 53.8582 31.9817 53.7032 33.395C53.5481 34.8083 52.881 36.1159 51.8277 37.0709C50.7744 38.026 49.4079 38.5623 47.9863 38.5787V38.5812ZM17.0563 43.9987L14.1663 48.3737C14.0758 48.5106 14.0132 48.664 13.982 48.8251C13.9509 48.9862 13.9517 49.1518 13.9846 49.3126C14.0174 49.4734 14.0816 49.6261 14.1735 49.762C14.2653 49.898 14.3831 50.0145 14.52 50.105C14.6569 50.1954 14.8103 50.258 14.9714 50.2892C15.1325 50.3203 15.2981 50.3195 15.4589 50.2866C15.6197 50.2538 15.7724 50.1896 15.9083 50.0977C16.0443 50.0059 16.1608 49.8881 16.2513 49.7512L19.1425 45.3762C19.324 45.0995 19.3884 44.7622 19.3216 44.4381C19.2548 44.1141 19.0622 43.8297 18.7861 43.6474C18.51 43.4651 18.1728 43.3997 17.8486 43.4655C17.5243 43.5314 17.2394 43.7231 17.0563 43.9987ZM32.4825 43.9987L29.5925 48.3737C29.5021 48.5106 29.4395 48.664 29.4083 48.8251C29.3771 48.9862 29.378 49.1518 29.4108 49.3126C29.4437 49.4734 29.5079 49.6261 29.5997 49.762C29.6916 49.898 29.8093 50.0145 29.9463 50.105C30.0832 50.1954 30.2365 50.258 30.3976 50.2892C30.5587 50.3203 30.7244 50.3195 30.8851 50.2866C31.0459 50.2538 31.1986 50.1896 31.3346 50.0977C31.4705 50.0059 31.5871 49.8881 31.6775 49.7512L34.5688 45.3762C34.7502 45.0995 34.8147 44.7622 34.7478 44.4381C34.681 44.1141 34.4885 43.8297 34.2123 43.6474C33.9362 43.4651 33.5991 43.3997 33.2748 43.4655C32.9506 43.5314 32.6656 43.7231 32.4825 43.9987ZM24.5513 44.0325L19.5512 52.1575C19.3927 52.4393 19.3494 52.7716 19.4305 53.0847C19.5116 53.3978 19.7108 53.6673 19.9863 53.8367C20.2618 54.0062 20.5922 54.0623 20.9082 53.9935C21.2242 53.9247 21.5012 53.7361 21.6812 53.4675L26.6812 45.3425C26.8398 45.0606 26.8831 44.7283 26.802 44.4152C26.7209 44.1021 26.5217 43.8326 26.2462 43.6632C25.9707 43.4937 25.6403 43.4376 25.3243 43.5064C25.0083 43.5753 24.7313 43.7638 24.5513 44.0325ZM41.2275 44.0325L36.2275 52.1575C36.0689 52.4393 36.0257 52.7716 36.1068 53.0847C36.1879 53.3978 36.3871 53.6673 36.6625 53.8367C36.938 54.0062 37.2684 54.0623 37.5844 53.9935C37.9004 53.9247 38.1775 53.7361 38.3575 53.4675L43.3575 45.3425C43.5161 45.0606 43.5593 44.7283 43.4782 44.4152C43.3971 44.1021 43.1979 43.8326 42.9225 43.6632C42.647 43.4937 42.3166 43.4376 42.0006 43.5064C41.6846 43.5753 41.4075 43.7638 41.2275 44.0325Z" fill="black"/>
</svg>
