<svg width="50" height="50" viewBox="0 0 50 50" fill="none" xmlns="http://www.w3.org/2000/svg">
<g clip-path="url(#clip0_162_324)">
<path d="M30.7449 14.7673L12.8418 20.735C11.3687 21.2259 10.4166 22.5478 10.4166 24.1012C10.4166 25.6539 11.3688 26.9749 12.8428 27.4667L20.1115 29.8893L22.5342 37.1591C23.025 38.6311 24.3459 39.5832 25.8988 39.5832C27.452 39.5832 28.773 38.631 29.2647 37.157L35.2325 19.2539C35.6592 17.9716 35.3312 16.5811 34.375 15.6249C33.4187 14.6686 32.026 14.3386 30.7449 14.7673ZM25.8987 34.078L23.4039 26.5945L15.9209 24.1003L30.8863 19.1116L25.8987 34.078Z" fill="#8AD382"/>
<path d="M25 0C11.2147 0 0 11.2147 0 25C0 38.7853 11.2147 50 25 50C38.7853 50 50 38.7853 50 25C50 11.2147 38.7853 0 25 0ZM25 45.8333C13.5126 45.8333 4.16667 36.4874 4.16667 25C4.16667 13.5126 13.5126 4.16667 25 4.16667C36.4874 4.16667 45.8333 13.5126 45.8333 25C45.8333 36.4874 36.4874 45.8333 25 45.8333Z" fill="#8AD382"/>
</g>
<defs>
<clipPath id="clip0_162_324">
<rect width="50" height="50" fill="white"/>
</clipPath>
</defs>
</svg>
