<svg width="50" height="50" viewBox="0 0 50 50" fill="none" xmlns="http://www.w3.org/2000/svg">
<g clip-path="url(#clip0_162_325)">
<path d="M40.8336 0.624512C45.4386 0.624688 49.1666 4.35349 49.1666 8.9585V40.814L49.1754 41.2632C49.1514 45.8684 45.5065 49.3745 41.0416 49.3745H8.95862C4.3535 49.3745 0.624634 45.6466 0.624634 41.0415V8.9585C0.624634 4.35338 4.3535 0.624512 8.95862 0.624512H40.8336ZM8.95862 3.5415C5.86504 3.5415 3.54163 6.05386 3.54163 8.9585V40.8335C3.5418 43.9269 6.05408 46.2495 8.95862 46.2495H40.8336C43.9269 46.2493 46.2495 43.7379 46.2496 40.8335V8.9585C46.2496 5.86504 43.7381 3.54168 40.8336 3.5415H8.95862Z" fill="#71CFEE" stroke="#71CFEE" stroke-width="0.833333"/>
<path d="M18.7496 9.9165C19.1585 9.9165 19.4204 10.0804 19.6149 10.2515L19.7897 10.4185L19.817 10.4458L19.8356 10.479L24.9977 19.4126L29.9547 10.689C30.2215 10.1695 30.7433 9.91661 31.2496 9.9165H38.5416C39.0865 9.9165 39.3703 10.2071 39.5817 10.4185C39.7566 10.5934 39.8229 10.8343 39.8229 11.0679C39.8229 11.2821 39.7644 11.509 39.6637 11.73C39.6629 11.8081 39.6587 11.9079 39.61 12.0054C39.5798 12.0658 39.5397 12.1146 39.5035 12.1548C39.4753 12.1862 39.4399 12.2203 39.402 12.2583L32.2106 24.9966L39.608 37.7368L39.7897 37.9185L39.8229 37.9526L39.8444 37.9946C39.9552 38.2163 40.0309 38.4216 40.0309 38.646C40.0309 38.8704 39.9552 39.0757 39.8444 39.2974L39.8229 39.3394L39.7897 39.3735C39.3898 39.7734 39.0979 40.0835 38.5416 40.0835H31.2496C30.7051 40.0834 30.4219 39.7929 30.2106 39.5815L30.1832 39.5542L30.1637 39.521L25.0016 30.5864L20.0455 39.311L20.0446 39.3101C19.7778 39.8302 19.2563 40.0835 18.7496 40.0835H11.4586C10.9137 40.0835 10.63 39.7929 10.4186 39.5815C10.2437 39.4066 10.1774 39.1657 10.1774 38.9321C10.1774 38.7169 10.2349 38.4881 10.3365 38.2661C10.337 38.2375 10.3355 38.208 10.3385 38.1812C10.3437 38.1341 10.3596 38.0301 10.4449 37.9448C10.5173 37.8725 10.6029 37.8516 10.6559 37.8433L17.7887 25.0034L10.3922 12.2622L10.2106 12.0815L10.1246 11.9956V11.8755C10.1246 11.6725 10.1244 11.4417 10.1539 11.2349C10.1809 11.0463 10.239 10.8325 10.3844 10.6655C10.5139 10.4244 10.697 10.2433 10.8795 10.1216C11.0635 9.99893 11.2766 9.9165 11.4586 9.9165H18.7496ZM20.6686 24.228L20.6735 24.2358L20.6774 24.2446C20.7882 24.4663 20.8649 24.6716 20.8649 24.896C20.8649 25.1204 20.7882 25.3257 20.6774 25.5474L20.6735 25.5562L20.6686 25.564L13.8424 37.2085H18.1637L23.9137 27.147L23.9186 27.1382L23.9235 27.1304C24.1962 26.7213 24.6622 26.5317 25.1041 26.5317C25.4908 26.5317 25.8956 26.6765 26.1735 26.9868L26.2848 27.1304L26.2906 27.1392L26.2965 27.1489L32.0455 37.4165H36.3658L29.5397 25.7729L29.5348 25.7642L29.5309 25.7554C29.4201 25.5338 29.3434 25.3284 29.3434 25.104C29.3435 24.8797 29.4201 24.6742 29.5309 24.4526L29.5348 24.4448L29.5397 24.436L36.3668 12.7915H32.0446L26.2946 22.853C25.9963 23.4298 25.4014 23.4165 25.2086 23.4165C24.6637 23.4165 24.38 23.1259 24.1686 22.9146L24.1432 22.8892L24.1246 22.8589L17.9596 12.5835H13.8424L20.6686 24.228Z" fill="#71CFEE" stroke="#71CFEE" stroke-width="0.583333"/>
</g>
<defs>
<clipPath id="clip0_162_325">
<rect width="50" height="50" fill="white"/>
</clipPath>
</defs>
</svg>
