<svg width="60" height="60" viewBox="0 0 60 60" fill="none" xmlns="http://www.w3.org/2000/svg">
<path d="M2.34375 11.7189C11.5622 11.7189 11.5622 18.7501 20.7806 18.7501C29.9995 18.7501 29.9995 11.7189 39.2183 11.7189C48.4372 11.7189 48.4372 18.7501 57.6561 18.7501" stroke="black" stroke-width="2.25" stroke-miterlimit="10" stroke-linecap="round" stroke-linejoin="round"/>
<path d="M2.34375 41.25C11.5622 41.25 11.5622 48.2812 20.7806 48.2812C29.9995 48.2812 29.9995 41.25 39.2183 41.25C48.4372 41.25 48.4372 48.2812 57.6561 48.2812" stroke="black" stroke-width="2.25" stroke-miterlimit="10" stroke-linecap="round" stroke-linejoin="round"/>
<path d="M2.34375 26.4844C11.5622 26.4844 11.5622 33.5156 20.7806 33.5156C29.9995 33.5156 29.9995 26.4844 39.2183 26.4844C48.4372 26.4844 48.4372 33.5156 57.6561 33.5156" stroke="black" stroke-width="2.25" stroke-miterlimit="10" stroke-linecap="round" stroke-linejoin="round"/>
</svg>
