<svg width="54" height="50" viewBox="0 0 54 50" fill="none" xmlns="http://www.w3.org/2000/svg">
<path d="M2 17.5V32.5V17.5ZM8.25 10V40V10ZM14.5 6.25V43.75V6.25ZM20.75 13.75V36.25V13.75ZM52 17.5V32.5V17.5ZM45.75 10V40V10ZM39.5 6.25V43.75V6.25ZM33.25 13.75V36.25V13.75ZM27 1.25V48.75V1.25Z" fill="black"/>
<path d="M2 17.5V32.5M8.25 10V40M14.5 6.25V43.75M20.75 13.75V36.25M52 17.5V32.5M45.75 10V40M39.5 6.25V43.75M33.25 13.75V36.25M27 1.25V48.75" stroke="black" stroke-width="2.25" stroke-miterlimit="10" stroke-linecap="round" stroke-linejoin="round"/>
</svg>
