<svg width="64" height="64" viewBox="0 0 64 64" fill="none" xmlns="http://www.w3.org/2000/svg">
<path d="M42 22.0003C42 16.4774 46.4771 12.0002 52.0001 12.0002C57.5229 12.0002 62 16.4774 62 22.0003C62 27.5231 57.5229 32.0004 52.0001 32.0004H12.1694" stroke="black" stroke-width="2.44069" stroke-miterlimit="10" stroke-linecap="round" stroke-linejoin="round"/>
<path d="M13.6103 12.0001C13.6103 6.47725 18.0874 1.99999 23.6103 1.99999C29.1331 1.99999 33.6103 6.47725 33.6103 12.0001C33.6103 17.523 29.1331 22.0001 23.6103 22.0001H2.00012" stroke="black" stroke-width="2.44069" stroke-miterlimit="10" stroke-linecap="round" stroke-linejoin="round"/>
<path d="M32.0001 52.0003C32.0001 57.5231 36.4772 62.0004 42.0001 62.0004C47.5229 62.0004 52.0001 57.5231 52.0001 52.0003C52.0001 46.4774 47.5229 42.0002 42.0001 42.0002H2" stroke="black" stroke-width="2.44069" stroke-miterlimit="10" stroke-linecap="round" stroke-linejoin="round"/>
</svg>
