<svg width="60" height="48" viewBox="0 0 60 48" fill="none" xmlns="http://www.w3.org/2000/svg">
<path d="M46.101 32.7799L46.6006 26.1467L44.2739 25.9714L43.9016 30.9133L39.8341 27.4612L27.5787 27.608V25.2856C28.6465 25.2294 29.6943 25.0001 30.6998 24.5996C31.8194 24.1536 32.8281 23.5211 33.7041 22.7167L51.2079 22.1227L46.2033 19.689C34.81 13.8541 27.4561 5.88822 26.6509 4.9944C25.9044 4.16607 24.0947 2.19344 23.4099 1.76893C22.3641 1.1206 21.1637 0.777954 19.9386 0.777954C19.0634 0.777954 18.2053 0.951286 17.3882 1.29315C15.3236 2.15677 13.8997 4.00294 13.4821 6.09577L10.5071 8.70537L13.8392 9.83615C14.16 10.6264 14.6292 11.3486 15.2228 11.9569C15.4599 12.2 16.1894 12.8224 17.3664 13.8103C17.0594 15.5901 17.2492 17.4056 17.9257 19.1037C19.1964 22.293 21.9653 24.5253 25.2456 25.1329V27.6358L12.9408 27.7831C13.2155 25.7719 12.8125 23.709 11.7617 21.863C10.5007 19.6475 8.49594 18.0709 6.11703 17.424L4.99674 17.1192L4.68655 18.2381C4.02792 20.6138 4.35988 23.1425 5.62086 25.3581C6.1337 26.2591 6.77105 27.0521 7.50487 27.722C4.10008 28.4532 1.22195 31.0468 0.304508 34.4202L0 35.5406L1.11882 35.8508C1.90429 36.0682 2.71558 36.1782 3.53057 36.1778C7.43751 36.1778 11.0286 33.6783 12.3971 30.1231L29.9784 29.9126L27.5926 32.4309C26.548 32.0268 25.4418 31.819 24.2923 31.819C20.6321 31.819 17.2705 33.8952 15.7284 37.1084L15.226 38.155L16.2701 38.6625C17.5134 39.2668 18.8576 39.5732 20.265 39.5732C22.0158 39.5729 23.7336 39.097 25.2351 38.1965C25.1794 38.8998 25.2 39.6071 25.2964 40.306C25.645 42.8315 26.921 45.0396 28.8901 46.5234L29.8172 47.222L30.5205 46.2984C32.014 44.337 32.6445 41.8658 32.2962 39.3404C31.9977 37.177 31.0166 35.248 29.5043 33.8062L33.2297 29.8738L38.9898 29.8048L58.4901 46.3555L60.0001 44.5765L46.101 32.7799ZM20.0933 18.2401C19.5067 16.7678 19.3997 15.1805 19.7835 13.6499L19.961 12.9424L19.109 12.2266C18.5633 11.769 17.1139 10.5537 16.8926 10.3271C16.3764 9.79811 16.0047 9.1335 15.818 8.40517C15.2996 6.38391 16.362 4.25176 18.2887 3.44578C18.8192 3.22382 19.3744 3.11128 19.9388 3.11128C20.7291 3.11128 21.5045 3.33294 22.1691 3.74461C22.3556 3.87363 23.2727 4.73078 24.9215 6.56057C25.6778 7.39988 32.0624 14.3184 42.0766 20.0975L32.7141 20.4153L32.3877 20.7453C31.6629 21.4786 30.8046 22.046 29.8362 22.4316C28.9453 22.7866 28.0122 22.9664 27.0629 22.9664C23.9729 22.9666 21.2371 21.1115 20.0933 18.2401ZM18.5001 37.0137C19.8187 35.2437 21.9739 34.1522 24.2923 34.1522C24.8992 34.1522 25.4892 34.228 26.0571 34.3784C24.7386 36.1482 22.5833 37.2398 20.2649 37.2398C19.6583 37.2398 19.0683 37.164 18.5001 37.0137ZM29.9846 39.6591C30.182 41.0899 29.9498 42.5359 29.3424 43.7814C28.4205 42.7468 27.8053 41.4178 27.6078 39.987C27.4105 38.5563 27.6426 37.1102 28.2502 35.8646C29.1721 36.8993 29.7873 38.2285 29.9846 39.6591ZM6.71467 20.1378C7.95486 20.7561 9.01947 21.7619 9.73397 23.0172C10.4485 24.2723 10.7697 25.7013 10.668 27.0832C9.4278 26.4649 8.36319 25.4591 7.64869 24.2037C6.93418 22.9485 6.61301 21.5199 6.71467 20.1378ZM3.53057 33.8446C3.35842 33.8446 3.18675 33.8379 3.01587 33.8249C4.18939 31.4612 6.71742 29.8476 9.45211 29.8476C9.62427 29.8476 9.79593 29.8543 9.96681 29.8673C8.79329 32.2309 6.26507 33.8446 3.53057 33.8446Z" fill="black"/>
</svg>
