<svg width="60" height="60" viewBox="0 0 60 60" fill="none" xmlns="http://www.w3.org/2000/svg">
<g clip-path="url(#clip0_34_761)">
<path d="M39.4939 49.4934C39.24 49.4934 38.9965 49.5943 38.8169 49.7738C38.6374 49.9534 38.5365 50.1969 38.5365 50.4509V57.3899C38.5365 57.9187 38.965 58.3474 39.4939 58.3474C40.0228 58.3474 40.4514 57.9187 40.4514 57.3899V50.4509C40.4514 50.1969 40.3505 49.9534 40.1709 49.7738C39.9914 49.5943 39.7479 49.4934 39.4939 49.4934ZM20.5061 49.4934C20.2522 49.4934 20.0086 49.5943 19.8291 49.7738C19.6495 49.9534 19.5486 50.1969 19.5486 50.4509V57.3899C19.5486 57.9187 19.9772 58.3474 20.5061 58.3474C21.035 58.3474 21.4635 57.9187 21.4635 57.3899V50.4509C21.4635 50.1969 21.3627 49.9534 21.1831 49.7738C21.0036 49.5943 20.76 49.4934 20.5061 49.4934Z" fill="black"/>
<path d="M59.9507 46.318L49.896 16.1835C49.8324 15.9929 49.7105 15.8272 49.5476 15.7097C49.3846 15.5922 49.1887 15.529 48.9878 15.529C48.7869 15.529 48.5911 15.5922 48.4281 15.7097C48.2651 15.8272 48.1432 15.9929 48.0797 16.1835L45.0568 25.2434L40.4021 11.2929C40.3385 11.1024 40.2165 10.9367 40.0536 10.8193C39.8906 10.7018 39.6948 10.6387 39.4939 10.6387C39.293 10.6387 39.0972 10.7018 38.9343 10.8193C38.7713 10.9367 38.6493 11.1024 38.5857 11.2929L36.246 18.3049L30.9082 2.30708C30.8445 2.11654 30.7226 1.95084 30.5596 1.83343C30.3967 1.71601 30.2009 1.65283 30 1.65283C29.7991 1.65283 29.6033 1.71601 29.4403 1.83343C29.2774 1.95084 29.1554 2.11654 29.0918 2.30708L23.7539 18.3051L21.4142 11.293C21.3507 11.1024 21.2288 10.9367 21.0658 10.8192C20.9028 10.7017 20.707 10.6385 20.5061 10.6385C20.3052 10.6385 20.1093 10.7017 19.9464 10.8192C19.7834 10.9367 19.6615 11.1024 19.5979 11.293L14.9432 25.2433L11.9203 16.1837C11.8567 15.9931 11.7348 15.8274 11.5718 15.71C11.4088 15.5926 11.213 15.5294 11.0122 15.5294C10.8113 15.5294 10.6155 15.5926 10.4525 15.71C10.2895 15.8274 10.1676 15.9931 10.104 16.1837L0.0492688 46.318C0.00118129 46.4619 -0.0119962 46.6152 0.0108233 46.7652C0.0336428 46.9153 0.0918054 47.0577 0.180513 47.1808C0.26922 47.304 0.385931 47.4042 0.521015 47.4734C0.6561 47.5425 0.805688 47.5785 0.957439 47.5785H10.0547V57.3899C10.0547 57.9186 10.4833 58.3473 11.0122 58.3473C11.5411 58.3473 11.9696 57.9186 11.9696 57.3899V47.5785H29.0425V57.3899C29.0425 57.9186 29.4711 58.3473 30 58.3473C30.5289 58.3473 30.9574 57.9186 30.9574 57.3899V47.5785H48.0304V57.3899C48.0304 57.9186 48.4589 58.3473 48.9878 58.3473C49.5167 58.3473 49.9453 57.9186 49.9453 57.3899V47.5785H59.0425C59.1943 47.5785 59.3439 47.5425 59.479 47.4734C59.6141 47.4042 59.7308 47.304 59.8195 47.1808C59.9082 47.0577 59.9663 46.9153 59.9892 46.7652C60.012 46.6152 59.9988 46.4619 59.9507 46.318ZM39.4939 14.621L44.0474 28.2683L41.8089 34.9772L37.2553 21.3298L39.4939 14.621ZM20.5061 14.6211L22.7446 21.3301L18.191 34.9773L15.9525 28.2682L20.5061 14.6211ZM11.0122 38.7433C10.7582 38.7433 10.5147 38.8442 10.3351 39.0237C10.1556 39.2033 10.0547 39.4468 10.0547 39.7007V45.6636H2.28625L11.0122 19.5118L17.1817 38.0024L14.6254 45.6636H11.9696V39.7007C11.9696 39.4468 11.8687 39.2033 11.6892 39.0237C11.5096 38.8442 11.2661 38.7433 11.0122 38.7433ZM30.9574 40.415L35.8801 35.1363C36.0491 34.9498 36.138 34.7044 36.1274 34.453C36.1169 34.2015 36.0078 33.9644 35.8237 33.7928C35.6397 33.6212 35.3955 33.5289 35.1439 33.5359C34.8924 33.5429 34.6537 33.6487 34.4796 33.8303L30.9574 37.6071V30.1199C30.9574 29.5911 30.5289 29.1624 30 29.1624C29.4711 29.1624 29.0425 29.5911 29.0425 30.1199V37.5457L25.5151 33.8247C25.4286 33.7334 25.3249 33.6601 25.2101 33.6089C25.0952 33.5577 24.9714 33.5296 24.8457 33.5263C24.72 33.5229 24.5949 33.5443 24.4775 33.5893C24.3601 33.6343 24.2527 33.702 24.1614 33.7885C24.0702 33.875 23.9968 33.9786 23.9456 34.0935C23.8944 34.2083 23.8663 34.3321 23.863 34.4578C23.8596 34.5835 23.881 34.7086 23.926 34.8261C23.971 34.9435 24.0387 35.0509 24.1252 35.1421L29.0425 40.3289V45.6636H16.644L30 5.63529L43.356 45.6636H30.9574V40.415ZM49.9453 45.6636V39.7007C49.9453 39.172 49.5167 38.7433 48.9878 38.7433C48.4589 38.7433 48.0304 39.172 48.0304 39.7007V45.6636H45.3745L42.8183 38.0024L48.9878 19.5118L57.7137 45.6636H49.9453Z" fill="black"/>
</g>
<defs>
<clipPath id="clip0_34_761">
<rect width="60" height="60" fill="white"/>
</clipPath>
</defs>
</svg>
