<svg width="60" height="60" viewBox="0 0 60 60" fill="none" xmlns="http://www.w3.org/2000/svg">
<path d="M29.9994 28.1423C33.0318 28.1424 35.9488 29.3045 38.1508 31.3894H38.1517L47.851 40.572H47.85C53.4356 45.6247 49.551 55.3525 42.0297 55.1804H42.0199V55.1794C39.9574 54.9992 38.0709 54.4464 36.1488 53.9539C34.2226 53.4602 32.2511 53.0248 29.9916 53.0642H29.9867C27.8095 53.0249 25.8997 53.5213 24.0131 54.0466C22.1322 54.5704 20.2682 55.1237 18.2103 55.1794L18.2113 55.1804C10.5577 55.5651 6.47092 45.7229 12.14 40.5701L21.847 31.3894C24.0491 29.3043 26.9667 28.1423 29.9994 28.1423ZM29.9994 30.4695C27.7035 30.4695 25.4888 31.2933 23.7543 32.782L23.4144 33.0886L13.7152 42.2214H13.7142C12.8054 43.0666 12.1729 44.167 11.8998 45.3777C11.6268 46.5885 11.7257 47.8541 12.184 49.0076C12.6422 50.1611 13.4387 51.1492 14.4681 51.8425C15.4968 52.5353 16.7105 52.9006 17.9506 52.8923C19.9773 52.8283 21.8133 52.3208 23.7377 51.8142C25.6585 51.3085 27.6619 50.8072 29.9974 50.7771C32.3312 50.7471 34.3451 51.1375 36.2494 51.6033C38.1566 52.0698 39.939 52.6064 41.8402 52.8835C43.1036 52.9283 44.3503 52.5808 45.4076 51.8875C46.4677 51.1923 47.2855 50.1842 47.7474 49.0037V49.0017C48.2111 47.8632 48.3193 46.6112 48.058 45.4099C47.7966 44.2087 47.1783 43.1142 46.2836 42.2712L46.2826 42.2703L36.5844 33.0886C34.8043 31.407 32.4481 30.4695 29.9994 30.4695ZM5.20642 17.8562C7.1731 17.4703 8.89929 18.3765 10.2162 19.8171C11.5323 21.257 12.458 23.2473 12.8353 25.0886H12.8344C13.3707 27.6354 13.1884 30.0614 12.3685 31.8748C11.5464 33.6932 10.0781 34.9007 8.06189 34.9675L8.05603 34.9685V34.9675C6.27745 34.9572 4.76263 33.9796 3.60779 32.5173C2.45315 31.0553 1.64783 29.0969 1.28162 27.0896C0.915552 25.083 0.986247 23.0128 1.59998 21.325C2.21518 19.6333 3.38058 18.3178 5.19861 17.8582L5.20642 17.8562ZM49.7855 19.8171C51.019 18.4665 52.6114 17.5853 54.4261 17.7986L54.7924 17.8562L54.7963 17.8572C56.4287 18.219 57.6582 19.495 58.3451 21.2546C59.0321 23.0144 59.1836 25.2712 58.6566 27.6355L58.6556 27.6375C57.3699 33.1357 53.9515 35.4291 51.0717 34.8259C48.189 34.2221 46.0234 30.7551 47.1635 25.0896V25.0886C47.5457 23.2476 48.4707 21.257 49.7855 19.8171ZM5.69177 20.0994C4.58149 20.4303 3.88938 21.3916 3.55994 22.6833C3.22925 23.9799 3.27304 25.5842 3.61658 27.1306C3.96018 28.6771 4.6002 30.1506 5.44958 31.1873C6.29769 32.2224 7.33577 32.8031 8.48669 32.6326C9.40051 32.429 10.1247 31.5502 10.5248 30.2537C10.9235 28.9614 10.9865 27.2907 10.6039 25.5886V25.5876C10.2983 24.3425 9.74801 22.8952 8.9281 21.7966C8.11115 20.7021 7.04355 19.9741 5.69177 20.0994ZM54.1283 20.1091C53.2844 20.0205 52.3195 20.4286 51.4506 21.3494C50.5831 22.2686 49.8226 23.6897 49.3949 25.5896C48.9946 27.7131 49.119 29.3831 49.5511 30.5632C49.9837 31.7441 50.7177 32.423 51.5375 32.6033C52.3572 32.7835 53.3086 32.4759 54.1967 31.5867C55.0849 30.6972 55.8989 29.2334 56.4261 27.1394C56.8111 24.8107 56.6535 23.0884 56.1898 21.9324C55.7268 20.7783 54.9648 20.1971 54.1283 20.1091ZM21.3236 7.10425C19.7902 7.21267 18.6312 8.14392 17.849 9.51636C17.0638 10.8945 16.6664 12.706 16.6664 14.5251C16.6664 16.3444 17.0638 18.1557 17.849 19.5339C18.6311 20.9066 19.7901 21.8376 21.3236 21.946C22.8547 21.8377 24.0126 20.9068 24.7943 19.5339C25.5791 18.1557 25.9763 16.3444 25.9769 14.5251C25.9775 12.706 25.5817 10.8945 24.7972 9.51636C24.0158 8.1438 22.8571 7.21261 21.3236 7.10425ZM38.6742 7.10425C37.1434 7.21277 35.9852 8.14379 35.2035 9.51636C34.4187 10.8945 34.0216 12.706 34.0209 14.5251C34.0203 16.3442 34.4162 18.1558 35.2006 19.5339C35.9819 20.9065 37.1408 21.8375 38.6742 21.946C40.208 21.8377 41.3675 20.9068 42.1498 19.5339C42.9349 18.1558 43.3314 16.3443 43.3314 14.5251C43.3314 12.706 42.935 10.8945 42.1498 9.51636C41.3675 8.14366 40.2079 7.21252 38.6742 7.10425ZM28.3109 14.5251C28.3109 17.1864 27.5353 19.6082 26.2767 21.3679C25.0185 23.1272 23.2679 24.2351 21.3236 24.2351C19.3745 24.2351 17.6213 23.1273 16.3617 21.3679C15.1019 19.6082 14.3265 17.1863 14.3265 14.5251V14.5212C14.5167 8.13673 17.8814 4.86499 21.3226 4.86499C24.7639 4.8651 28.1258 8.13683 28.3109 14.5212V14.5251ZM45.6713 14.5251C45.6713 17.1864 44.896 19.6082 43.6361 21.3679C42.3765 23.1273 40.6233 24.2351 38.6742 24.2351C36.7301 24.235 34.9802 23.127 33.722 21.3679C32.4635 19.6082 31.6879 17.1864 31.6879 14.5251V14.5212C31.873 8.13672 35.2349 4.86499 38.6761 4.86499C42.1172 4.8652 45.4811 8.13694 45.6713 14.5212V14.5251Z" fill="black" stroke="black" stroke-width="0.3"/>
</svg>
