<svg width="60" height="60" viewBox="0 0 60 60" fill="none" xmlns="http://www.w3.org/2000/svg">
<g clip-path="url(#clip0_34_759)">
<mask id="path-1-outside-1_34_759" maskUnits="userSpaceOnUse" x="-1" y="7.13831" width="62" height="44" fill="black">
<rect fill="white" x="-1" y="7.13831" width="62" height="44"/>
<path d="M59.4383 12.1374C57.5072 8.78518 51.0517 8.64609 41.7051 11.7283C38.2535 9.38126 34.174 8.1301 30 8.13835C18.4103 8.15109 9.01818 17.5432 9.00543 29.1329C9.00543 29.6168 9.04067 30.0858 9.07429 30.5574C1.73644 37.1109 -1.37076 42.7735 0.56149 46.1285C1.56948 47.8781 3.80765 48.7539 7.04706 48.7539C10.8875 48.5937 14.6808 47.8463 18.295 46.5377C21.7466 48.8847 25.826 50.1358 30 50.1275C41.5899 50.1149 50.982 40.7228 50.9946 29.1329C50.9946 28.6512 50.9596 28.181 50.9259 27.7085C58.2637 21.1551 61.3709 15.4924 59.4383 12.1374ZM46.1418 15.6824C46.5217 15.5984 46.8679 15.5324 47.1978 15.4763L47.3803 15.4456C47.6883 15.3953 47.9715 15.3597 48.2361 15.3314L48.4143 15.3147C48.6487 15.2928 48.8837 15.2786 49.1191 15.2723H49.2422C49.4501 15.2723 49.6421 15.2723 49.8148 15.2894H49.8558C50.0095 15.3026 50.1623 15.3245 50.3136 15.3544L50.3889 15.3685C50.5006 15.3935 50.6104 15.4271 50.7179 15.4685C50.7379 15.4753 50.7564 15.4837 50.7745 15.4914C50.8516 15.5232 50.9257 15.5627 50.9946 15.6097C51.0033 15.6159 51.0117 15.6228 51.0196 15.6307C51.0693 15.6673 51.1123 15.7126 51.1464 15.7644C51.1758 15.8206 51.1948 15.8815 51.2027 15.9445L51.2075 15.9723C51.2168 16.0547 51.2168 16.1379 51.2075 16.2203L51.2007 16.2711C51.1846 16.3825 51.1597 16.4925 51.1264 16.6C51.1216 16.6182 51.1138 16.6371 51.1074 16.6563C51.0605 16.8033 51.0044 16.9473 50.9395 17.0873V17.096C50.8667 17.2542 50.7735 17.4279 50.6666 17.613L50.6316 17.676C50.5236 17.8591 50.3947 18.0568 50.2498 18.2666L50.1789 18.3667C50.0149 18.5974 49.8444 18.8235 49.6678 19.0448L49.582 19.1508C49.3619 19.4233 49.1345 19.6899 48.9 19.9503L48.8921 19.9595C48.8389 19.8492 48.7769 19.7433 48.7222 19.6334C48.6672 19.5237 48.6022 19.4016 48.5412 19.2865C48.255 18.7455 47.9525 18.2149 47.6196 17.7029C47.5927 17.6619 47.5634 17.6238 47.5366 17.5838C47.2178 17.0999 46.8737 16.6333 46.5129 16.1764C46.4366 16.0763 46.3617 15.9762 46.2829 15.8845C46.2298 15.8195 46.183 15.7503 46.1258 15.6843L46.1418 15.6824ZM30 10.138C33.9384 10.1257 37.7808 11.353 40.9831 13.6458C41.905 14.2903 42.7631 15.0218 43.5454 15.8302C43.9755 16.2642 44.3772 16.7183 44.7595 17.1859C44.8873 17.3421 44.9991 17.5091 45.1211 17.6691C45.3643 17.9878 45.6069 18.3077 45.829 18.6406C45.9608 18.8407 46.078 19.0468 46.202 19.2502C46.3909 19.5601 46.5789 19.8702 46.7497 20.1915C46.8688 20.414 46.9746 20.645 47.0846 20.8738C47.1846 21.0829 47.2847 21.2962 47.3725 21.5099C47.2071 21.6695 47.0405 21.8279 46.8727 21.9849C46.6457 22.1968 46.4206 22.4085 46.18 22.6244C45.9062 22.8694 45.6151 23.1185 45.3242 23.3674C45.0734 23.5836 44.8243 23.7984 44.5623 24.0161C44.2532 24.2714 43.9277 24.5292 43.6035 24.7869C43.3306 25.0051 43.0626 25.2209 42.7785 25.4401C42.4368 25.7038 42.079 25.9687 41.7231 26.2338C41.4332 26.4496 41.15 26.6644 40.8522 26.8806C40.4724 27.1564 40.0755 27.4312 39.6826 27.7075C39.3825 27.9141 39.0978 28.1211 38.7946 28.328C38.368 28.6199 37.9238 28.9099 37.484 29.2008C37.196 29.3907 36.9162 29.5821 36.6233 29.771C36.1234 30.0908 35.6168 30.4076 35.1077 30.7244C34.8538 30.8826 34.6078 31.0417 34.35 31.1984C33.5722 31.6749 32.7883 32.1414 31.9986 32.598C31.2109 33.054 30.4165 33.4986 29.6159 33.9314C29.3411 34.0819 29.0681 34.2215 28.7943 34.3676C28.2773 34.6437 27.7595 34.9216 27.2468 35.1846C26.9277 35.3482 26.6128 35.5005 26.295 35.6582C25.8322 35.8901 25.368 36.1244 24.9106 36.3441C24.5777 36.504 24.2515 36.6511 23.9216 36.8048C23.4886 37.005 23.0527 37.211 22.622 37.4047C22.2863 37.5536 21.9592 37.6918 21.6292 37.8339C21.2192 38.0106 20.8096 38.1888 20.4082 38.3538C20.0808 38.4875 19.7625 38.6105 19.4407 38.7364C19.0508 38.8902 18.6597 39.0445 18.2799 39.1856C17.9661 39.3023 17.6624 39.4071 17.3554 39.5151C16.9864 39.6455 16.6182 39.7743 16.2624 39.8909C15.9626 39.991 15.6737 40.0758 15.3827 40.1653C15.1538 40.2351 14.9288 40.3 14.7071 40.3649C14.5658 40.1763 14.4285 39.9847 14.2952 39.7904C14.1511 39.5805 14.0041 39.3725 13.8691 39.1582C13.6761 38.8508 13.5024 38.5334 13.3281 38.2166C13.2125 38.0048 13.0894 37.7967 12.9815 37.581C12.8097 37.234 12.6584 36.8809 12.5085 36.5193C12.4256 36.3191 12.3318 36.1302 12.2556 35.93C12.0549 35.4059 11.8801 34.8722 11.7319 34.3308C11.7196 34.2898 11.7035 34.2508 11.6919 34.2097C11.3882 33.1226 11.1851 32.0098 11.085 30.8855C11.0322 30.3028 11.0055 29.718 11.005 29.1329C11.0167 18.6469 19.5141 10.1496 30.0001 10.1378L30 10.138ZM12.6046 40.9049C12.262 40.977 11.9176 41.0403 11.5718 41.0948L11.4371 41.1157C11.1556 41.159 10.8728 41.1924 10.589 41.2158L10.4691 41.225C10.2132 41.246 9.97393 41.2568 9.76024 41.2578H9.69625C9.47856 41.2578 9.27836 41.249 9.10366 41.2319H9.09728C8.94232 41.2173 8.7884 41.1932 8.6364 41.1597L8.58267 41.1489C8.47332 41.1235 8.36598 41.0901 8.2615 41.049L8.20539 41.0298C8.13031 40.9976 8.05896 40.9574 7.99257 40.9098L7.97058 40.8906C7.92198 40.8545 7.88032 40.8099 7.84761 40.7589C7.81922 40.7034 7.80134 40.6432 7.79487 40.5812V40.551C7.78788 40.4667 7.79018 40.3818 7.80174 40.298L7.80949 40.2429C7.82861 40.1282 7.85586 40.015 7.8906 39.9041L7.91247 39.8432C7.9637 39.6907 8.02381 39.5415 8.09267 39.3964V39.3851C8.1689 39.2256 8.26637 39.0474 8.37672 38.8604L8.43046 38.7662C8.55565 38.5625 8.68701 38.3626 8.82436 38.1668C8.8556 38.1218 8.88834 38.0765 8.92445 38.0306C9.09423 37.7962 9.2705 37.5665 9.45307 37.3418L9.57029 37.2017C9.79758 36.9266 10.031 36.6566 10.2704 36.3919L10.2869 36.3743C10.3152 36.4499 10.348 36.5231 10.3772 36.5989C10.4182 36.7082 10.4641 36.8151 10.5072 36.9229C10.7229 37.4648 10.9581 37.9989 11.2187 38.5226C11.2407 38.5656 11.2587 38.6096 11.2808 38.6526C11.56 39.1982 11.8704 39.7284 12.1985 40.2522C12.2678 40.361 12.3367 40.4709 12.4074 40.5792C12.4787 40.6872 12.5416 40.796 12.6135 40.9019L12.6046 40.9049ZM30.0001 48.128C26.7448 48.1375 23.5429 47.3006 20.7085 45.6995L20.7442 45.6858L20.8184 45.6575C21.436 45.4286 22.0507 45.1916 22.6622 44.9467C22.8617 44.8657 23.0697 44.7789 23.2738 44.6949C23.7195 44.5128 24.1656 44.3292 24.6162 44.135C24.8612 44.0349 25.1093 43.9201 25.3562 43.8123C26.0388 43.5126 26.7178 43.2046 27.3928 42.8882C27.8023 42.6965 28.2104 42.5019 28.6171 42.3044C28.8852 42.1744 29.1521 42.0457 29.4172 41.9129C29.8351 41.7059 30.2529 41.4926 30.6718 41.2788C30.9306 41.1473 31.1885 41.014 31.4454 40.8789C31.9032 40.6382 32.3595 40.3946 32.8143 40.1482C33.0335 40.0291 33.2522 39.9144 33.4724 39.7933C34.1505 39.4202 34.8249 39.0406 35.4957 38.6545C36.1627 38.2705 36.8252 37.8786 37.483 37.479C37.6979 37.3487 37.9082 37.2168 38.121 37.086C38.5599 36.8161 38.9987 36.5461 39.4307 36.2722C39.6769 36.1149 39.9225 35.9566 40.1674 35.7973C40.557 35.5463 40.9449 35.2926 41.3311 35.0363C41.583 34.8683 41.8335 34.7019 42.0829 34.5364C42.4512 34.286 42.8178 34.0332 43.1826 33.7778C43.4267 33.608 43.67 33.4369 43.9124 33.2647C44.2743 33.0064 44.6346 32.7459 44.9934 32.4832C45.2202 32.3162 45.4483 32.1503 45.6718 31.9833C46.0467 31.7031 46.4138 31.4215 46.7784 31.1393C46.9718 30.9904 47.1675 30.8396 47.3574 30.6936C47.8164 30.332 48.2714 29.9654 48.7223 29.5938C48.8023 29.5279 48.8863 29.462 48.966 29.3936L48.9951 29.3771C48.8496 39.7669 40.3915 48.1169 30 48.128H30.0001ZM49.2452 26.5336C44.6777 30.4665 39.7391 33.9466 34.499 36.9249C33.8032 37.3264 33.1033 37.7207 32.3994 38.1077C30.9998 38.8755 29.6002 39.6073 28.2086 40.2859C28.1744 40.3019 28.1407 40.3172 28.1085 40.3342C24.8744 41.9343 21.5399 43.3231 18.1261 44.4918C9.88808 47.2752 3.67381 47.5282 2.29429 45.1288C1.01437 42.9072 3.76854 38.2307 9.36334 32.9948C9.43748 33.3921 9.52307 33.7871 9.62003 34.1795C9.46632 34.3357 9.33935 34.4798 9.19438 34.6344C9.00743 34.8346 8.81761 35.0284 8.64665 35.2192C8.45245 35.4355 8.2805 35.6435 8.10579 35.8524C7.95358 36.034 7.79687 36.2181 7.65966 36.3943C7.50095 36.594 7.36473 36.7942 7.22664 36.9938C7.10905 37.1607 6.98408 37.3312 6.88098 37.4936C6.75701 37.6937 6.65891 37.8729 6.55594 38.0599C6.47296 38.2098 6.37924 38.3597 6.30988 38.5105C6.22203 38.6955 6.16292 38.8683 6.09706 39.0445C6.04732 39.1782 5.98534 39.3174 5.94822 39.4444C5.9039 39.6127 5.87047 39.7837 5.84812 39.9564C5.83 40.0701 5.79739 40.1902 5.79151 40.299C5.78714 40.4699 5.79876 40.6402 5.82613 40.8092C5.82913 40.8966 5.83638 40.984 5.84812 41.0708C5.94713 41.5346 6.18499 41.9572 6.53007 42.2824C6.55507 42.3088 6.57881 42.3356 6.6063 42.3595C6.77287 42.508 6.95673 42.6358 7.15391 42.7403C7.19303 42.7613 7.23302 42.7803 7.27401 42.8003C7.50042 42.9109 7.73716 42.9991 7.98082 43.0634C8.01069 43.0713 8.04481 43.0772 8.07455 43.0844C8.35035 43.1503 8.63103 43.1972 8.91321 43.2232L9.01331 43.2344C9.23637 43.2524 9.46919 43.2631 9.71338 43.2631C9.78948 43.2631 9.87733 43.2544 9.95494 43.2524C10.094 43.2524 10.24 43.2411 10.3861 43.2324C10.6369 43.2173 10.8991 43.1943 11.17 43.1625C11.3267 43.1446 11.4839 43.1264 11.6479 43.1026C11.9475 43.0586 12.2635 43.0025 12.5856 42.9405C12.7375 42.9111 12.8853 42.8872 13.0405 42.8535C13.5195 42.7535 14.0174 42.6344 14.5401 42.4942L14.5661 42.4875C21.0211 40.5336 27.2118 37.7945 32.9992 34.3318C34.634 33.3884 36.2444 32.4037 37.8291 31.3785C38.8519 30.7156 39.8286 30.0468 40.7883 29.379C43.8121 27.3166 46.6549 25.0007 49.2862 22.4565C52.6993 19.0194 53.8747 16.5083 52.8799 14.7739C52.7552 14.5582 52.5978 14.3632 52.4132 14.1959C52.3581 14.1447 52.2834 14.1091 52.2224 14.0627C52.0815 13.9483 51.9298 13.8479 51.7694 13.7629C51.6834 13.719 51.5766 13.6922 51.4832 13.655C51.3094 13.5798 51.1305 13.517 50.9479 13.4671C50.8345 13.4389 50.7037 13.4271 50.5827 13.4051C50.383 13.369 50.1771 13.3309 49.9491 13.3129C49.8109 13.3021 49.6552 13.306 49.5082 13.3031C49.271 13.2973 49.0362 13.2889 48.7769 13.3031C48.611 13.3109 48.4295 13.3319 48.2542 13.347C47.9871 13.37 47.7216 13.3929 47.4335 13.433C47.2334 13.4612 47.0255 13.5008 46.8194 13.533C46.5275 13.5828 46.2346 13.6331 45.9198 13.6999C45.687 13.7498 45.4399 13.8118 45.1958 13.8699C44.9791 13.9221 44.7779 13.9621 44.5525 14.0207C44.2649 13.7414 43.9687 13.471 43.6645 13.2099C51.0045 10.9687 56.4293 10.9175 57.7059 13.1371C59.0926 15.5364 55.7665 20.7933 49.2452 26.5336Z"/>
</mask>
<path d="M59.4383 12.1374C57.5072 8.78518 51.0517 8.64609 41.7051 11.7283C38.2535 9.38126 34.174 8.1301 30 8.13835C18.4103 8.15109 9.01818 17.5432 9.00543 29.1329C9.00543 29.6168 9.04067 30.0858 9.07429 30.5574C1.73644 37.1109 -1.37076 42.7735 0.56149 46.1285C1.56948 47.8781 3.80765 48.7539 7.04706 48.7539C10.8875 48.5937 14.6808 47.8463 18.295 46.5377C21.7466 48.8847 25.826 50.1358 30 50.1275C41.5899 50.1149 50.982 40.7228 50.9946 29.1329C50.9946 28.6512 50.9596 28.181 50.9259 27.7085C58.2637 21.1551 61.3709 15.4924 59.4383 12.1374ZM46.1418 15.6824C46.5217 15.5984 46.8679 15.5324 47.1978 15.4763L47.3803 15.4456C47.6883 15.3953 47.9715 15.3597 48.2361 15.3314L48.4143 15.3147C48.6487 15.2928 48.8837 15.2786 49.1191 15.2723H49.2422C49.4501 15.2723 49.6421 15.2723 49.8148 15.2894H49.8558C50.0095 15.3026 50.1623 15.3245 50.3136 15.3544L50.3889 15.3685C50.5006 15.3935 50.6104 15.4271 50.7179 15.4685C50.7379 15.4753 50.7564 15.4837 50.7745 15.4914C50.8516 15.5232 50.9257 15.5627 50.9946 15.6097C51.0033 15.6159 51.0117 15.6228 51.0196 15.6307C51.0693 15.6673 51.1123 15.7126 51.1464 15.7644C51.1758 15.8206 51.1948 15.8815 51.2027 15.9445L51.2075 15.9723C51.2168 16.0547 51.2168 16.1379 51.2075 16.2203L51.2007 16.2711C51.1846 16.3825 51.1597 16.4925 51.1264 16.6C51.1216 16.6182 51.1138 16.6371 51.1074 16.6563C51.0605 16.8033 51.0044 16.9473 50.9395 17.0873V17.096C50.8667 17.2542 50.7735 17.4279 50.6666 17.613L50.6316 17.676C50.5236 17.8591 50.3947 18.0568 50.2498 18.2666L50.1789 18.3667C50.0149 18.5974 49.8444 18.8235 49.6678 19.0448L49.582 19.1508C49.3619 19.4233 49.1345 19.6899 48.9 19.9503L48.8921 19.9595C48.8389 19.8492 48.7769 19.7433 48.7222 19.6334C48.6672 19.5237 48.6022 19.4016 48.5412 19.2865C48.255 18.7455 47.9525 18.2149 47.6196 17.7029C47.5927 17.6619 47.5634 17.6238 47.5366 17.5838C47.2178 17.0999 46.8737 16.6333 46.5129 16.1764C46.4366 16.0763 46.3617 15.9762 46.2829 15.8845C46.2298 15.8195 46.183 15.7503 46.1258 15.6843L46.1418 15.6824ZM30 10.138C33.9384 10.1257 37.7808 11.353 40.9831 13.6458C41.905 14.2903 42.7631 15.0218 43.5454 15.8302C43.9755 16.2642 44.3772 16.7183 44.7595 17.1859C44.8873 17.3421 44.9991 17.5091 45.1211 17.6691C45.3643 17.9878 45.6069 18.3077 45.829 18.6406C45.9608 18.8407 46.078 19.0468 46.202 19.2502C46.3909 19.5601 46.5789 19.8702 46.7497 20.1915C46.8688 20.414 46.9746 20.645 47.0846 20.8738C47.1846 21.0829 47.2847 21.2962 47.3725 21.5099C47.2071 21.6695 47.0405 21.8279 46.8727 21.9849C46.6457 22.1968 46.4206 22.4085 46.18 22.6244C45.9062 22.8694 45.6151 23.1185 45.3242 23.3674C45.0734 23.5836 44.8243 23.7984 44.5623 24.0161C44.2532 24.2714 43.9277 24.5292 43.6035 24.7869C43.3306 25.0051 43.0626 25.2209 42.7785 25.4401C42.4368 25.7038 42.079 25.9687 41.7231 26.2338C41.4332 26.4496 41.15 26.6644 40.8522 26.8806C40.4724 27.1564 40.0755 27.4312 39.6826 27.7075C39.3825 27.9141 39.0978 28.1211 38.7946 28.328C38.368 28.6199 37.9238 28.9099 37.484 29.2008C37.196 29.3907 36.9162 29.5821 36.6233 29.771C36.1234 30.0908 35.6168 30.4076 35.1077 30.7244C34.8538 30.8826 34.6078 31.0417 34.35 31.1984C33.5722 31.6749 32.7883 32.1414 31.9986 32.598C31.2109 33.054 30.4165 33.4986 29.6159 33.9314C29.3411 34.0819 29.0681 34.2215 28.7943 34.3676C28.2773 34.6437 27.7595 34.9216 27.2468 35.1846C26.9277 35.3482 26.6128 35.5005 26.295 35.6582C25.8322 35.8901 25.368 36.1244 24.9106 36.3441C24.5777 36.504 24.2515 36.6511 23.9216 36.8048C23.4886 37.005 23.0527 37.211 22.622 37.4047C22.2863 37.5536 21.9592 37.6918 21.6292 37.8339C21.2192 38.0106 20.8096 38.1888 20.4082 38.3538C20.0808 38.4875 19.7625 38.6105 19.4407 38.7364C19.0508 38.8902 18.6597 39.0445 18.2799 39.1856C17.9661 39.3023 17.6624 39.4071 17.3554 39.5151C16.9864 39.6455 16.6182 39.7743 16.2624 39.8909C15.9626 39.991 15.6737 40.0758 15.3827 40.1653C15.1538 40.2351 14.9288 40.3 14.7071 40.3649C14.5658 40.1763 14.4285 39.9847 14.2952 39.7904C14.1511 39.5805 14.0041 39.3725 13.8691 39.1582C13.6761 38.8508 13.5024 38.5334 13.3281 38.2166C13.2125 38.0048 13.0894 37.7967 12.9815 37.581C12.8097 37.234 12.6584 36.8809 12.5085 36.5193C12.4256 36.3191 12.3318 36.1302 12.2556 35.93C12.0549 35.4059 11.8801 34.8722 11.7319 34.3308C11.7196 34.2898 11.7035 34.2508 11.6919 34.2097C11.3882 33.1226 11.1851 32.0098 11.085 30.8855C11.0322 30.3028 11.0055 29.718 11.005 29.1329C11.0167 18.6469 19.5141 10.1496 30.0001 10.1378L30 10.138ZM12.6046 40.9049C12.262 40.977 11.9176 41.0403 11.5718 41.0948L11.4371 41.1157C11.1556 41.159 10.8728 41.1924 10.589 41.2158L10.4691 41.225C10.2132 41.246 9.97393 41.2568 9.76024 41.2578H9.69625C9.47856 41.2578 9.27836 41.249 9.10366 41.2319H9.09728C8.94232 41.2173 8.7884 41.1932 8.6364 41.1597L8.58267 41.1489C8.47332 41.1235 8.36598 41.0901 8.2615 41.049L8.20539 41.0298C8.13031 40.9976 8.05896 40.9574 7.99257 40.9098L7.97058 40.8906C7.92198 40.8545 7.88032 40.8099 7.84761 40.7589C7.81922 40.7034 7.80134 40.6432 7.79487 40.5812V40.551C7.78788 40.4667 7.79018 40.3818 7.80174 40.298L7.80949 40.2429C7.82861 40.1282 7.85586 40.015 7.8906 39.9041L7.91247 39.8432C7.9637 39.6907 8.02381 39.5415 8.09267 39.3964V39.3851C8.1689 39.2256 8.26637 39.0474 8.37672 38.8604L8.43046 38.7662C8.55565 38.5625 8.68701 38.3626 8.82436 38.1668C8.8556 38.1218 8.88834 38.0765 8.92445 38.0306C9.09423 37.7962 9.2705 37.5665 9.45307 37.3418L9.57029 37.2017C9.79758 36.9266 10.031 36.6566 10.2704 36.3919L10.2869 36.3743C10.3152 36.4499 10.348 36.5231 10.3772 36.5989C10.4182 36.7082 10.4641 36.8151 10.5072 36.9229C10.7229 37.4648 10.9581 37.9989 11.2187 38.5226C11.2407 38.5656 11.2587 38.6096 11.2808 38.6526C11.56 39.1982 11.8704 39.7284 12.1985 40.2522C12.2678 40.361 12.3367 40.4709 12.4074 40.5792C12.4787 40.6872 12.5416 40.796 12.6135 40.9019L12.6046 40.9049ZM30.0001 48.128C26.7448 48.1375 23.5429 47.3006 20.7085 45.6995L20.7442 45.6858L20.8184 45.6575C21.436 45.4286 22.0507 45.1916 22.6622 44.9467C22.8617 44.8657 23.0697 44.7789 23.2738 44.6949C23.7195 44.5128 24.1656 44.3292 24.6162 44.135C24.8612 44.0349 25.1093 43.9201 25.3562 43.8123C26.0388 43.5126 26.7178 43.2046 27.3928 42.8882C27.8023 42.6965 28.2104 42.5019 28.6171 42.3044C28.8852 42.1744 29.1521 42.0457 29.4172 41.9129C29.8351 41.7059 30.2529 41.4926 30.6718 41.2788C30.9306 41.1473 31.1885 41.014 31.4454 40.8789C31.9032 40.6382 32.3595 40.3946 32.8143 40.1482C33.0335 40.0291 33.2522 39.9144 33.4724 39.7933C34.1505 39.4202 34.8249 39.0406 35.4957 38.6545C36.1627 38.2705 36.8252 37.8786 37.483 37.479C37.6979 37.3487 37.9082 37.2168 38.121 37.086C38.5599 36.8161 38.9987 36.5461 39.4307 36.2722C39.6769 36.1149 39.9225 35.9566 40.1674 35.7973C40.557 35.5463 40.9449 35.2926 41.3311 35.0363C41.583 34.8683 41.8335 34.7019 42.0829 34.5364C42.4512 34.286 42.8178 34.0332 43.1826 33.7778C43.4267 33.608 43.67 33.4369 43.9124 33.2647C44.2743 33.0064 44.6346 32.7459 44.9934 32.4832C45.2202 32.3162 45.4483 32.1503 45.6718 31.9833C46.0467 31.7031 46.4138 31.4215 46.7784 31.1393C46.9718 30.9904 47.1675 30.8396 47.3574 30.6936C47.8164 30.332 48.2714 29.9654 48.7223 29.5938C48.8023 29.5279 48.8863 29.462 48.966 29.3936L48.9951 29.3771C48.8496 39.7669 40.3915 48.1169 30 48.128H30.0001ZM49.2452 26.5336C44.6777 30.4665 39.7391 33.9466 34.499 36.9249C33.8032 37.3264 33.1033 37.7207 32.3994 38.1077C30.9998 38.8755 29.6002 39.6073 28.2086 40.2859C28.1744 40.3019 28.1407 40.3172 28.1085 40.3342C24.8744 41.9343 21.5399 43.3231 18.1261 44.4918C9.88808 47.2752 3.67381 47.5282 2.29429 45.1288C1.01437 42.9072 3.76854 38.2307 9.36334 32.9948C9.43748 33.3921 9.52307 33.7871 9.62003 34.1795C9.46632 34.3357 9.33935 34.4798 9.19438 34.6344C9.00743 34.8346 8.81761 35.0284 8.64665 35.2192C8.45245 35.4355 8.2805 35.6435 8.10579 35.8524C7.95358 36.034 7.79687 36.2181 7.65966 36.3943C7.50095 36.594 7.36473 36.7942 7.22664 36.9938C7.10905 37.1607 6.98408 37.3312 6.88098 37.4936C6.75701 37.6937 6.65891 37.8729 6.55594 38.0599C6.47296 38.2098 6.37924 38.3597 6.30988 38.5105C6.22203 38.6955 6.16292 38.8683 6.09706 39.0445C6.04732 39.1782 5.98534 39.3174 5.94822 39.4444C5.9039 39.6127 5.87047 39.7837 5.84812 39.9564C5.83 40.0701 5.79739 40.1902 5.79151 40.299C5.78714 40.4699 5.79876 40.6402 5.82613 40.8092C5.82913 40.8966 5.83638 40.984 5.84812 41.0708C5.94713 41.5346 6.18499 41.9572 6.53007 42.2824C6.55507 42.3088 6.57881 42.3356 6.6063 42.3595C6.77287 42.508 6.95673 42.6358 7.15391 42.7403C7.19303 42.7613 7.23302 42.7803 7.27401 42.8003C7.50042 42.9109 7.73716 42.9991 7.98082 43.0634C8.01069 43.0713 8.04481 43.0772 8.07455 43.0844C8.35035 43.1503 8.63103 43.1972 8.91321 43.2232L9.01331 43.2344C9.23637 43.2524 9.46919 43.2631 9.71338 43.2631C9.78948 43.2631 9.87733 43.2544 9.95494 43.2524C10.094 43.2524 10.24 43.2411 10.3861 43.2324C10.6369 43.2173 10.8991 43.1943 11.17 43.1625C11.3267 43.1446 11.4839 43.1264 11.6479 43.1026C11.9475 43.0586 12.2635 43.0025 12.5856 42.9405C12.7375 42.9111 12.8853 42.8872 13.0405 42.8535C13.5195 42.7535 14.0174 42.6344 14.5401 42.4942L14.5661 42.4875C21.0211 40.5336 27.2118 37.7945 32.9992 34.3318C34.634 33.3884 36.2444 32.4037 37.8291 31.3785C38.8519 30.7156 39.8286 30.0468 40.7883 29.379C43.8121 27.3166 46.6549 25.0007 49.2862 22.4565C52.6993 19.0194 53.8747 16.5083 52.8799 14.7739C52.7552 14.5582 52.5978 14.3632 52.4132 14.1959C52.3581 14.1447 52.2834 14.1091 52.2224 14.0627C52.0815 13.9483 51.9298 13.8479 51.7694 13.7629C51.6834 13.719 51.5766 13.6922 51.4832 13.655C51.3094 13.5798 51.1305 13.517 50.9479 13.4671C50.8345 13.4389 50.7037 13.4271 50.5827 13.4051C50.383 13.369 50.1771 13.3309 49.9491 13.3129C49.8109 13.3021 49.6552 13.306 49.5082 13.3031C49.271 13.2973 49.0362 13.2889 48.7769 13.3031C48.611 13.3109 48.4295 13.3319 48.2542 13.347C47.9871 13.37 47.7216 13.3929 47.4335 13.433C47.2334 13.4612 47.0255 13.5008 46.8194 13.533C46.5275 13.5828 46.2346 13.6331 45.9198 13.6999C45.687 13.7498 45.4399 13.8118 45.1958 13.8699C44.9791 13.9221 44.7779 13.9621 44.5525 14.0207C44.2649 13.7414 43.9687 13.471 43.6645 13.2099C51.0045 10.9687 56.4293 10.9175 57.7059 13.1371C59.0926 15.5364 55.7665 20.7933 49.2452 26.5336Z" fill="black"/>
<path d="M59.4383 12.1374C57.5072 8.78518 51.0517 8.64609 41.7051 11.7283C38.2535 9.38126 34.174 8.1301 30 8.13835C18.4103 8.15109 9.01818 17.5432 9.00543 29.1329C9.00543 29.6168 9.04067 30.0858 9.07429 30.5574C1.73644 37.1109 -1.37076 42.7735 0.56149 46.1285C1.56948 47.8781 3.80765 48.7539 7.04706 48.7539C10.8875 48.5937 14.6808 47.8463 18.295 46.5377C21.7466 48.8847 25.826 50.1358 30 50.1275C41.5899 50.1149 50.982 40.7228 50.9946 29.1329C50.9946 28.6512 50.9596 28.181 50.9259 27.7085C58.2637 21.1551 61.3709 15.4924 59.4383 12.1374ZM46.1418 15.6824C46.5217 15.5984 46.8679 15.5324 47.1978 15.4763L47.3803 15.4456C47.6883 15.3953 47.9715 15.3597 48.2361 15.3314L48.4143 15.3147C48.6487 15.2928 48.8837 15.2786 49.1191 15.2723H49.2422C49.4501 15.2723 49.6421 15.2723 49.8148 15.2894H49.8558C50.0095 15.3026 50.1623 15.3245 50.3136 15.3544L50.3889 15.3685C50.5006 15.3935 50.6104 15.4271 50.7179 15.4685C50.7379 15.4753 50.7564 15.4837 50.7745 15.4914C50.8516 15.5232 50.9257 15.5627 50.9946 15.6097C51.0033 15.6159 51.0117 15.6228 51.0196 15.6307C51.0693 15.6673 51.1123 15.7126 51.1464 15.7644C51.1758 15.8206 51.1948 15.8815 51.2027 15.9445L51.2075 15.9723C51.2168 16.0547 51.2168 16.1379 51.2075 16.2203L51.2007 16.2711C51.1846 16.3825 51.1597 16.4925 51.1264 16.6C51.1216 16.6182 51.1138 16.6371 51.1074 16.6563C51.0605 16.8033 51.0044 16.9473 50.9395 17.0873V17.096C50.8667 17.2542 50.7735 17.4279 50.6666 17.613L50.6316 17.676C50.5236 17.8591 50.3947 18.0568 50.2498 18.2666L50.1789 18.3667C50.0149 18.5974 49.8444 18.8235 49.6678 19.0448L49.582 19.1508C49.3619 19.4233 49.1345 19.6899 48.9 19.9503L48.8921 19.9595C48.8389 19.8492 48.7769 19.7433 48.7222 19.6334C48.6672 19.5237 48.6022 19.4016 48.5412 19.2865C48.255 18.7455 47.9525 18.2149 47.6196 17.7029C47.5927 17.6619 47.5634 17.6238 47.5366 17.5838C47.2178 17.0999 46.8737 16.6333 46.5129 16.1764C46.4366 16.0763 46.3617 15.9762 46.2829 15.8845C46.2298 15.8195 46.183 15.7503 46.1258 15.6843L46.1418 15.6824ZM30 10.138C33.9384 10.1257 37.7808 11.353 40.9831 13.6458C41.905 14.2903 42.7631 15.0218 43.5454 15.8302C43.9755 16.2642 44.3772 16.7183 44.7595 17.1859C44.8873 17.3421 44.9991 17.5091 45.1211 17.6691C45.3643 17.9878 45.6069 18.3077 45.829 18.6406C45.9608 18.8407 46.078 19.0468 46.202 19.2502C46.3909 19.5601 46.5789 19.8702 46.7497 20.1915C46.8688 20.414 46.9746 20.645 47.0846 20.8738C47.1846 21.0829 47.2847 21.2962 47.3725 21.5099C47.2071 21.6695 47.0405 21.8279 46.8727 21.9849C46.6457 22.1968 46.4206 22.4085 46.18 22.6244C45.9062 22.8694 45.6151 23.1185 45.3242 23.3674C45.0734 23.5836 44.8243 23.7984 44.5623 24.0161C44.2532 24.2714 43.9277 24.5292 43.6035 24.7869C43.3306 25.0051 43.0626 25.2209 42.7785 25.4401C42.4368 25.7038 42.079 25.9687 41.7231 26.2338C41.4332 26.4496 41.15 26.6644 40.8522 26.8806C40.4724 27.1564 40.0755 27.4312 39.6826 27.7075C39.3825 27.9141 39.0978 28.1211 38.7946 28.328C38.368 28.6199 37.9238 28.9099 37.484 29.2008C37.196 29.3907 36.9162 29.5821 36.6233 29.771C36.1234 30.0908 35.6168 30.4076 35.1077 30.7244C34.8538 30.8826 34.6078 31.0417 34.35 31.1984C33.5722 31.6749 32.7883 32.1414 31.9986 32.598C31.2109 33.054 30.4165 33.4986 29.6159 33.9314C29.3411 34.0819 29.0681 34.2215 28.7943 34.3676C28.2773 34.6437 27.7595 34.9216 27.2468 35.1846C26.9277 35.3482 26.6128 35.5005 26.295 35.6582C25.8322 35.8901 25.368 36.1244 24.9106 36.3441C24.5777 36.504 24.2515 36.6511 23.9216 36.8048C23.4886 37.005 23.0527 37.211 22.622 37.4047C22.2863 37.5536 21.9592 37.6918 21.6292 37.8339C21.2192 38.0106 20.8096 38.1888 20.4082 38.3538C20.0808 38.4875 19.7625 38.6105 19.4407 38.7364C19.0508 38.8902 18.6597 39.0445 18.2799 39.1856C17.9661 39.3023 17.6624 39.4071 17.3554 39.5151C16.9864 39.6455 16.6182 39.7743 16.2624 39.8909C15.9626 39.991 15.6737 40.0758 15.3827 40.1653C15.1538 40.2351 14.9288 40.3 14.7071 40.3649C14.5658 40.1763 14.4285 39.9847 14.2952 39.7904C14.1511 39.5805 14.0041 39.3725 13.8691 39.1582C13.6761 38.8508 13.5024 38.5334 13.3281 38.2166C13.2125 38.0048 13.0894 37.7967 12.9815 37.581C12.8097 37.234 12.6584 36.8809 12.5085 36.5193C12.4256 36.3191 12.3318 36.1302 12.2556 35.93C12.0549 35.4059 11.8801 34.8722 11.7319 34.3308C11.7196 34.2898 11.7035 34.2508 11.6919 34.2097C11.3882 33.1226 11.1851 32.0098 11.085 30.8855C11.0322 30.3028 11.0055 29.718 11.005 29.1329C11.0167 18.6469 19.5141 10.1496 30.0001 10.1378L30 10.138ZM12.6046 40.9049C12.262 40.977 11.9176 41.0403 11.5718 41.0948L11.4371 41.1157C11.1556 41.159 10.8728 41.1924 10.589 41.2158L10.4691 41.225C10.2132 41.246 9.97393 41.2568 9.76024 41.2578H9.69625C9.47856 41.2578 9.27836 41.249 9.10366 41.2319H9.09728C8.94232 41.2173 8.7884 41.1932 8.6364 41.1597L8.58267 41.1489C8.47332 41.1235 8.36598 41.0901 8.2615 41.049L8.20539 41.0298C8.13031 40.9976 8.05896 40.9574 7.99257 40.9098L7.97058 40.8906C7.92198 40.8545 7.88032 40.8099 7.84761 40.7589C7.81922 40.7034 7.80134 40.6432 7.79487 40.5812V40.551C7.78788 40.4667 7.79018 40.3818 7.80174 40.298L7.80949 40.2429C7.82861 40.1282 7.85586 40.015 7.8906 39.9041L7.91247 39.8432C7.9637 39.6907 8.02381 39.5415 8.09267 39.3964V39.3851C8.1689 39.2256 8.26637 39.0474 8.37672 38.8604L8.43046 38.7662C8.55565 38.5625 8.68701 38.3626 8.82436 38.1668C8.8556 38.1218 8.88834 38.0765 8.92445 38.0306C9.09423 37.7962 9.2705 37.5665 9.45307 37.3418L9.57029 37.2017C9.79758 36.9266 10.031 36.6566 10.2704 36.3919L10.2869 36.3743C10.3152 36.4499 10.348 36.5231 10.3772 36.5989C10.4182 36.7082 10.4641 36.8151 10.5072 36.9229C10.7229 37.4648 10.9581 37.9989 11.2187 38.5226C11.2407 38.5656 11.2587 38.6096 11.2808 38.6526C11.56 39.1982 11.8704 39.7284 12.1985 40.2522C12.2678 40.361 12.3367 40.4709 12.4074 40.5792C12.4787 40.6872 12.5416 40.796 12.6135 40.9019L12.6046 40.9049ZM30.0001 48.128C26.7448 48.1375 23.5429 47.3006 20.7085 45.6995L20.7442 45.6858L20.8184 45.6575C21.436 45.4286 22.0507 45.1916 22.6622 44.9467C22.8617 44.8657 23.0697 44.7789 23.2738 44.6949C23.7195 44.5128 24.1656 44.3292 24.6162 44.135C24.8612 44.0349 25.1093 43.9201 25.3562 43.8123C26.0388 43.5126 26.7178 43.2046 27.3928 42.8882C27.8023 42.6965 28.2104 42.5019 28.6171 42.3044C28.8852 42.1744 29.1521 42.0457 29.4172 41.9129C29.8351 41.7059 30.2529 41.4926 30.6718 41.2788C30.9306 41.1473 31.1885 41.014 31.4454 40.8789C31.9032 40.6382 32.3595 40.3946 32.8143 40.1482C33.0335 40.0291 33.2522 39.9144 33.4724 39.7933C34.1505 39.4202 34.8249 39.0406 35.4957 38.6545C36.1627 38.2705 36.8252 37.8786 37.483 37.479C37.6979 37.3487 37.9082 37.2168 38.121 37.086C38.5599 36.8161 38.9987 36.5461 39.4307 36.2722C39.6769 36.1149 39.9225 35.9566 40.1674 35.7973C40.557 35.5463 40.9449 35.2926 41.3311 35.0363C41.583 34.8683 41.8335 34.7019 42.0829 34.5364C42.4512 34.286 42.8178 34.0332 43.1826 33.7778C43.4267 33.608 43.67 33.4369 43.9124 33.2647C44.2743 33.0064 44.6346 32.7459 44.9934 32.4832C45.2202 32.3162 45.4483 32.1503 45.6718 31.9833C46.0467 31.7031 46.4138 31.4215 46.7784 31.1393C46.9718 30.9904 47.1675 30.8396 47.3574 30.6936C47.8164 30.332 48.2714 29.9654 48.7223 29.5938C48.8023 29.5279 48.8863 29.462 48.966 29.3936L48.9951 29.3771C48.8496 39.7669 40.3915 48.1169 30 48.128H30.0001ZM49.2452 26.5336C44.6777 30.4665 39.7391 33.9466 34.499 36.9249C33.8032 37.3264 33.1033 37.7207 32.3994 38.1077C30.9998 38.8755 29.6002 39.6073 28.2086 40.2859C28.1744 40.3019 28.1407 40.3172 28.1085 40.3342C24.8744 41.9343 21.5399 43.3231 18.1261 44.4918C9.88808 47.2752 3.67381 47.5282 2.29429 45.1288C1.01437 42.9072 3.76854 38.2307 9.36334 32.9948C9.43748 33.3921 9.52307 33.7871 9.62003 34.1795C9.46632 34.3357 9.33935 34.4798 9.19438 34.6344C9.00743 34.8346 8.81761 35.0284 8.64665 35.2192C8.45245 35.4355 8.2805 35.6435 8.10579 35.8524C7.95358 36.034 7.79687 36.2181 7.65966 36.3943C7.50095 36.594 7.36473 36.7942 7.22664 36.9938C7.10905 37.1607 6.98408 37.3312 6.88098 37.4936C6.75701 37.6937 6.65891 37.8729 6.55594 38.0599C6.47296 38.2098 6.37924 38.3597 6.30988 38.5105C6.22203 38.6955 6.16292 38.8683 6.09706 39.0445C6.04732 39.1782 5.98534 39.3174 5.94822 39.4444C5.9039 39.6127 5.87047 39.7837 5.84812 39.9564C5.83 40.0701 5.79739 40.1902 5.79151 40.299C5.78714 40.4699 5.79876 40.6402 5.82613 40.8092C5.82913 40.8966 5.83638 40.984 5.84812 41.0708C5.94713 41.5346 6.18499 41.9572 6.53007 42.2824C6.55507 42.3088 6.57881 42.3356 6.6063 42.3595C6.77287 42.508 6.95673 42.6358 7.15391 42.7403C7.19303 42.7613 7.23302 42.7803 7.27401 42.8003C7.50042 42.9109 7.73716 42.9991 7.98082 43.0634C8.01069 43.0713 8.04481 43.0772 8.07455 43.0844C8.35035 43.1503 8.63103 43.1972 8.91321 43.2232L9.01331 43.2344C9.23637 43.2524 9.46919 43.2631 9.71338 43.2631C9.78948 43.2631 9.87733 43.2544 9.95494 43.2524C10.094 43.2524 10.24 43.2411 10.3861 43.2324C10.6369 43.2173 10.8991 43.1943 11.17 43.1625C11.3267 43.1446 11.4839 43.1264 11.6479 43.1026C11.9475 43.0586 12.2635 43.0025 12.5856 42.9405C12.7375 42.9111 12.8853 42.8872 13.0405 42.8535C13.5195 42.7535 14.0174 42.6344 14.5401 42.4942L14.5661 42.4875C21.0211 40.5336 27.2118 37.7945 32.9992 34.3318C34.634 33.3884 36.2444 32.4037 37.8291 31.3785C38.8519 30.7156 39.8286 30.0468 40.7883 29.379C43.8121 27.3166 46.6549 25.0007 49.2862 22.4565C52.6993 19.0194 53.8747 16.5083 52.8799 14.7739C52.7552 14.5582 52.5978 14.3632 52.4132 14.1959C52.3581 14.1447 52.2834 14.1091 52.2224 14.0627C52.0815 13.9483 51.9298 13.8479 51.7694 13.7629C51.6834 13.719 51.5766 13.6922 51.4832 13.655C51.3094 13.5798 51.1305 13.517 50.9479 13.4671C50.8345 13.4389 50.7037 13.4271 50.5827 13.4051C50.383 13.369 50.1771 13.3309 49.9491 13.3129C49.8109 13.3021 49.6552 13.306 49.5082 13.3031C49.271 13.2973 49.0362 13.2889 48.7769 13.3031C48.611 13.3109 48.4295 13.3319 48.2542 13.347C47.9871 13.37 47.7216 13.3929 47.4335 13.433C47.2334 13.4612 47.0255 13.5008 46.8194 13.533C46.5275 13.5828 46.2346 13.6331 45.9198 13.6999C45.687 13.7498 45.4399 13.8118 45.1958 13.8699C44.9791 13.9221 44.7779 13.9621 44.5525 14.0207C44.2649 13.7414 43.9687 13.471 43.6645 13.2099C51.0045 10.9687 56.4293 10.9175 57.7059 13.1371C59.0926 15.5364 55.7665 20.7933 49.2452 26.5336Z" stroke="black" stroke-width="0.6" mask="url(#path-1-outside-1_34_759)"/>
</g>
<defs>
<clipPath id="clip0_34_759">
<rect width="60" height="60" fill="white"/>
</clipPath>
</defs>
</svg>
