<svg width="60" height="60" viewBox="0 0 60 60" fill="none" xmlns="http://www.w3.org/2000/svg">
<mask id="path-1-outside-1_73_538" maskUnits="userSpaceOnUse" x="0.388672" y="0.443359" width="59" height="59" fill="black">
<rect fill="white" x="0.388672" y="0.443359" width="59" height="59"/>
<path d="M2.13493 7.2603L2.70755 7.23174C6.70667 7.01754 16.0801 6.52131 17.6159 17.8989C17.6364 18.0504 17.7049 18.1913 17.8114 18.3009C17.918 18.4105 18.0569 18.483 18.2077 18.5078C18.3585 18.5326 18.5133 18.5083 18.6493 18.4385C18.7853 18.3688 18.8953 18.2572 18.9632 18.1202C24.0769 7.84293 32.7898 11.3272 36.5112 12.8159L37.0431 13.0273C37.2923 13.1244 37.5793 13.073 37.7799 12.8938C37.9799 12.7138 38.062 12.4361 37.992 12.1762C36.9124 8.17708 33.623 5.16471 29.6132 4.50283C25.9625 3.90093 22.3019 5.30109 19.9235 8.11924C18.5776 4.68633 15.5603 2.18162 11.911 1.579C7.89691 0.917841 3.81925 2.71069 1.51018 6.1486C1.4364 6.25832 1.39453 6.38637 1.38924 6.51848C1.38396 6.65059 1.41545 6.78157 1.48023 6.89683C1.545 7.01209 1.64051 7.1071 1.75611 7.17128C1.8717 7.23546 2.00285 7.26628 2.13493 7.2603ZM11.6782 2.98773C15.2354 3.57535 18.0993 6.26499 18.9739 9.83998C19.0417 10.1177 19.2695 10.3284 19.5508 10.3755C19.689 10.3989 19.831 10.3809 19.959 10.3237C20.0869 10.2665 20.1951 10.1727 20.2698 10.0542C22.2469 6.94971 25.8226 5.32393 29.3805 5.91227C32.345 6.40136 34.854 8.38414 36.0992 11.1188C32.0937 9.5858 24.004 7.1939 18.6676 15.7219C16.567 6.81834 9.40345 5.73163 4.90025 5.73163C4.45257 5.73163 4.02988 5.74234 3.64218 5.75733C5.70136 3.56821 8.71444 2.49649 11.6782 2.98773ZM57.1115 19.8417L57.9433 19.7375C58.0746 19.7203 58.1985 19.667 58.3013 19.5834C58.404 19.4999 58.4815 19.3894 58.525 19.2643C58.5686 19.1393 58.5765 19.0046 58.5479 18.8753C58.5193 18.746 58.4554 18.6272 58.3631 18.5322C54.2862 14.3282 48.0901 12.8488 42.5737 14.7652C40.0345 15.6482 37.7771 17.1935 36.0351 19.2412C34.2931 21.2889 33.1296 23.7647 32.6649 26.4126C30.6584 24.6235 28.2105 23.4028 25.5742 22.8766C22.938 22.3504 20.209 22.5378 17.6694 23.4195C12.1538 25.3359 8.20821 30.3396 7.61773 36.1666C7.60463 36.2982 7.62827 36.4308 7.68604 36.5497C7.7438 36.6686 7.83342 36.7692 7.94493 36.8402C8.05644 36.9113 8.18546 36.95 8.31766 36.9521C8.44985 36.9541 8.58004 36.9195 8.69373 36.852L9.4113 36.4172C14.5164 33.3092 26.4723 26.0292 36.5126 39.5617C36.6029 39.684 36.73 39.7743 36.8753 39.8193C37.0206 39.8643 37.1765 39.8615 37.3201 39.8116C37.615 39.7087 37.8092 39.426 37.7999 39.1147C37.2859 22.2736 51.1782 20.5693 57.1115 19.8417ZM36.3791 37.1012C31.9608 31.934 27.227 30.2497 22.8616 30.2497C17.2089 30.2497 12.1773 33.0778 9.27064 34.8314C10.2631 30.1997 13.6182 26.3384 18.1378 24.7676C20.6518 23.895 23.3659 23.7752 25.947 24.4231C28.528 25.071 30.8638 26.4582 32.6677 28.4147C32.762 28.5166 32.884 28.5888 33.0188 28.6225C33.1535 28.6561 33.2951 28.6498 33.4263 28.6041C33.5575 28.5585 33.6725 28.4757 33.7573 28.3657C33.8421 28.2557 33.8929 28.1233 33.9036 27.9849C34.1061 25.3315 35.0786 22.7949 36.7019 20.6864C38.3253 18.5778 40.5288 16.9889 43.0421 16.1146C47.561 14.5445 52.5876 15.492 56.2383 18.5115C50.2707 19.2676 36.9796 21.5103 36.3791 37.1012ZM57.8505 47.0201C56.886 47.0211 55.9339 46.8031 55.066 46.3824C54.1981 45.9618 53.4371 45.3495 52.8403 44.5918C52.7735 44.5076 52.6885 44.4396 52.5917 44.3929C52.4949 44.3462 52.3888 44.3219 52.2813 44.3219C52.1738 44.3219 52.0677 44.3462 51.9709 44.3929C51.8741 44.4396 51.7891 44.5076 51.7222 44.5918C50.4956 46.1347 48.6699 47.0194 46.7114 47.0194C44.7529 47.0194 42.9286 46.1347 41.7027 44.5918C41.4313 44.2505 40.8544 44.2505 40.5838 44.5918C39.3586 46.1347 37.5322 47.0194 35.5744 47.0194C33.6166 47.0194 31.7902 46.1347 30.5636 44.5918C30.2922 44.2505 29.716 44.2505 29.4454 44.5918C28.2195 46.1347 26.3931 47.0194 24.4353 47.0194C22.4775 47.0194 20.6511 46.1347 19.4259 44.5918C19.359 44.5075 19.274 44.4394 19.1771 44.3926C19.0802 44.3458 18.974 44.3215 18.8664 44.3215C18.7589 44.3215 18.6527 44.3458 18.5558 44.3926C18.4589 44.4394 18.3739 44.5075 18.307 44.5918C17.0804 46.1347 15.2554 47.0194 13.2976 47.0194C11.3398 47.0194 9.5134 46.1347 8.28675 44.5918C8.01543 44.2505 7.43923 44.2505 7.16863 44.5918C6.57182 45.3494 5.81076 45.9615 4.94286 46.382C4.07496 46.8026 3.1229 47.0205 2.15849 47.0194C1.96912 47.0194 1.78751 47.0946 1.65361 47.2285C1.51971 47.3624 1.44449 47.544 1.44449 47.7334C1.44449 47.9228 1.51971 48.1044 1.65361 48.2383C1.78751 48.3722 1.96912 48.4474 2.15849 48.4474C4.27193 48.4474 6.26042 47.6056 7.72769 46.1126C8.45341 46.8535 9.31998 47.4417 10.2764 47.8426C11.2328 48.2436 12.2598 48.4492 13.2969 48.4474C15.4103 48.4474 17.3981 47.6063 18.8661 46.1126C20.3334 47.6056 22.3218 48.4474 24.4353 48.4474C26.5487 48.4474 28.5372 47.6056 30.0045 46.1126C30.7302 46.8535 31.5968 47.4417 32.5532 47.8426C33.5096 48.2436 34.5366 48.4492 35.5737 48.4474C37.6893 48.4474 39.6756 47.6063 41.1429 46.1126C41.8686 46.8534 42.7352 47.4416 43.6916 47.8426C44.6481 48.2435 45.675 48.4492 46.7121 48.4474C48.8255 48.4474 50.8133 47.6063 52.2813 46.1126C53.0069 46.8536 53.8735 47.4418 54.8299 47.8428C55.7864 48.2438 56.8134 48.4493 57.8505 48.4474C58.0398 48.4474 58.2215 48.3722 58.3554 48.2383C58.4893 48.1044 58.5645 47.9228 58.5645 47.7334C58.5645 47.544 58.4893 47.3624 58.3554 47.2285C58.2215 47.0946 58.0398 47.0201 57.8505 47.0201ZM57.8505 57.1318C56.886 57.1328 55.9339 56.9147 55.066 56.4941C54.1981 56.0734 53.4371 55.4612 52.8403 54.7035C52.7735 54.6193 52.6885 54.5513 52.5917 54.5046C52.4949 54.4579 52.3888 54.4336 52.2813 54.4336C52.1738 54.4336 52.0677 54.4579 51.9709 54.5046C51.8741 54.5513 51.7891 54.6193 51.7222 54.7035C51.1253 55.4611 50.3641 56.0734 49.4961 56.494C48.6281 56.9147 47.6759 57.1327 46.7114 57.1318C45.7471 57.1326 44.7953 56.9144 43.9277 56.4938C43.0601 56.0731 42.2993 55.461 41.7027 54.7035C41.4313 54.3622 40.8544 54.3622 40.5838 54.7035C39.3586 56.2464 37.5322 57.1318 35.5744 57.1318C33.6166 57.1318 31.7902 56.2464 30.5636 54.7035C30.2922 54.3622 29.716 54.3622 29.4454 54.7035C28.2195 56.2464 26.3931 57.1318 24.4353 57.1318C22.4775 57.1318 20.6511 56.2464 19.4259 54.7035C19.359 54.6192 19.274 54.5511 19.1771 54.5043C19.0802 54.4574 18.974 54.4331 18.8664 54.4331C18.7589 54.4331 18.6527 54.4574 18.5558 54.5043C18.4589 54.5511 18.3739 54.6192 18.307 54.7035C17.7103 55.4609 16.9493 56.0731 16.0816 56.4937C15.2138 56.9143 14.2619 57.1325 13.2976 57.1318C11.3391 57.1318 9.5134 56.2464 8.28675 54.7035C8.01543 54.3622 7.43923 54.3622 7.16863 54.7035C6.57189 55.4612 5.81086 56.0734 4.94296 56.4941C4.07506 56.9147 3.12296 57.1328 2.15849 57.1318C1.96912 57.1318 1.78751 57.207 1.65361 57.3409C1.51971 57.4748 1.44449 57.6564 1.44449 57.8458C1.44449 58.0351 1.51971 58.2167 1.65361 58.3506C1.78751 58.4846 1.96912 58.5598 2.15849 58.5598C4.27193 58.5598 6.2597 57.7173 7.72769 56.2243C9.19567 57.7173 11.1834 58.5598 13.2969 58.5598C15.4103 58.5598 17.3981 57.7173 18.8661 56.2243C20.3341 57.7173 22.3218 58.5598 24.4353 58.5598C26.5487 58.5598 28.5365 57.7173 30.0045 56.2243C30.7302 56.9651 31.5968 57.5534 32.5532 57.9545C33.5096 58.3555 34.5366 58.5613 35.5737 58.5598C37.6886 58.5598 39.6756 57.7173 41.1429 56.2243C42.6109 57.7173 44.5986 58.5598 46.7121 58.5598C48.8255 58.5598 50.8133 57.7173 52.2813 56.2243C53.0069 56.9654 53.8734 57.5538 54.8298 57.9549C55.7863 58.356 56.8133 58.5617 57.8505 58.5598C58.0398 58.5598 58.2215 58.4846 58.3554 58.3506C58.4893 58.2167 58.5645 58.0351 58.5645 57.8458C58.5645 57.6564 58.4893 57.4748 58.3554 57.3409C58.2215 57.207 58.0398 57.1318 57.8505 57.1318Z"/>
</mask>
<path d="M2.13493 7.2603L2.70755 7.23174C6.70667 7.01754 16.0801 6.52131 17.6159 17.8989C17.6364 18.0504 17.7049 18.1913 17.8114 18.3009C17.918 18.4105 18.0569 18.483 18.2077 18.5078C18.3585 18.5326 18.5133 18.5083 18.6493 18.4385C18.7853 18.3688 18.8953 18.2572 18.9632 18.1202C24.0769 7.84293 32.7898 11.3272 36.5112 12.8159L37.0431 13.0273C37.2923 13.1244 37.5793 13.073 37.7799 12.8938C37.9799 12.7138 38.062 12.4361 37.992 12.1762C36.9124 8.17708 33.623 5.16471 29.6132 4.50283C25.9625 3.90093 22.3019 5.30109 19.9235 8.11924C18.5776 4.68633 15.5603 2.18162 11.911 1.579C7.89691 0.917841 3.81925 2.71069 1.51018 6.1486C1.4364 6.25832 1.39453 6.38637 1.38924 6.51848C1.38396 6.65059 1.41545 6.78157 1.48023 6.89683C1.545 7.01209 1.64051 7.1071 1.75611 7.17128C1.8717 7.23546 2.00285 7.26628 2.13493 7.2603ZM11.6782 2.98773C15.2354 3.57535 18.0993 6.26499 18.9739 9.83998C19.0417 10.1177 19.2695 10.3284 19.5508 10.3755C19.689 10.3989 19.831 10.3809 19.959 10.3237C20.0869 10.2665 20.1951 10.1727 20.2698 10.0542C22.2469 6.94971 25.8226 5.32393 29.3805 5.91227C32.345 6.40136 34.854 8.38414 36.0992 11.1188C32.0937 9.5858 24.004 7.1939 18.6676 15.7219C16.567 6.81834 9.40345 5.73163 4.90025 5.73163C4.45257 5.73163 4.02988 5.74234 3.64218 5.75733C5.70136 3.56821 8.71444 2.49649 11.6782 2.98773ZM57.1115 19.8417L57.9433 19.7375C58.0746 19.7203 58.1985 19.667 58.3013 19.5834C58.404 19.4999 58.4815 19.3894 58.525 19.2643C58.5686 19.1393 58.5765 19.0046 58.5479 18.8753C58.5193 18.746 58.4554 18.6272 58.3631 18.5322C54.2862 14.3282 48.0901 12.8488 42.5737 14.7652C40.0345 15.6482 37.7771 17.1935 36.0351 19.2412C34.2931 21.2889 33.1296 23.7647 32.6649 26.4126C30.6584 24.6235 28.2105 23.4028 25.5742 22.8766C22.938 22.3504 20.209 22.5378 17.6694 23.4195C12.1538 25.3359 8.20821 30.3396 7.61773 36.1666C7.60463 36.2982 7.62827 36.4308 7.68604 36.5497C7.7438 36.6686 7.83342 36.7692 7.94493 36.8402C8.05644 36.9113 8.18546 36.95 8.31766 36.9521C8.44985 36.9541 8.58004 36.9195 8.69373 36.852L9.4113 36.4172C14.5164 33.3092 26.4723 26.0292 36.5126 39.5617C36.6029 39.684 36.73 39.7743 36.8753 39.8193C37.0206 39.8643 37.1765 39.8615 37.3201 39.8116C37.615 39.7087 37.8092 39.426 37.7999 39.1147C37.2859 22.2736 51.1782 20.5693 57.1115 19.8417ZM36.3791 37.1012C31.9608 31.934 27.227 30.2497 22.8616 30.2497C17.2089 30.2497 12.1773 33.0778 9.27064 34.8314C10.2631 30.1997 13.6182 26.3384 18.1378 24.7676C20.6518 23.895 23.3659 23.7752 25.947 24.4231C28.528 25.071 30.8638 26.4582 32.6677 28.4147C32.762 28.5166 32.884 28.5888 33.0188 28.6225C33.1535 28.6561 33.2951 28.6498 33.4263 28.6041C33.5575 28.5585 33.6725 28.4757 33.7573 28.3657C33.8421 28.2557 33.8929 28.1233 33.9036 27.9849C34.1061 25.3315 35.0786 22.7949 36.7019 20.6864C38.3253 18.5778 40.5288 16.9889 43.0421 16.1146C47.561 14.5445 52.5876 15.492 56.2383 18.5115C50.2707 19.2676 36.9796 21.5103 36.3791 37.1012ZM57.8505 47.0201C56.886 47.0211 55.9339 46.8031 55.066 46.3824C54.1981 45.9618 53.4371 45.3495 52.8403 44.5918C52.7735 44.5076 52.6885 44.4396 52.5917 44.3929C52.4949 44.3462 52.3888 44.3219 52.2813 44.3219C52.1738 44.3219 52.0677 44.3462 51.9709 44.3929C51.8741 44.4396 51.7891 44.5076 51.7222 44.5918C50.4956 46.1347 48.6699 47.0194 46.7114 47.0194C44.7529 47.0194 42.9286 46.1347 41.7027 44.5918C41.4313 44.2505 40.8544 44.2505 40.5838 44.5918C39.3586 46.1347 37.5322 47.0194 35.5744 47.0194C33.6166 47.0194 31.7902 46.1347 30.5636 44.5918C30.2922 44.2505 29.716 44.2505 29.4454 44.5918C28.2195 46.1347 26.3931 47.0194 24.4353 47.0194C22.4775 47.0194 20.6511 46.1347 19.4259 44.5918C19.359 44.5075 19.274 44.4394 19.1771 44.3926C19.0802 44.3458 18.974 44.3215 18.8664 44.3215C18.7589 44.3215 18.6527 44.3458 18.5558 44.3926C18.4589 44.4394 18.3739 44.5075 18.307 44.5918C17.0804 46.1347 15.2554 47.0194 13.2976 47.0194C11.3398 47.0194 9.5134 46.1347 8.28675 44.5918C8.01543 44.2505 7.43923 44.2505 7.16863 44.5918C6.57182 45.3494 5.81076 45.9615 4.94286 46.382C4.07496 46.8026 3.1229 47.0205 2.15849 47.0194C1.96912 47.0194 1.78751 47.0946 1.65361 47.2285C1.51971 47.3624 1.44449 47.544 1.44449 47.7334C1.44449 47.9228 1.51971 48.1044 1.65361 48.2383C1.78751 48.3722 1.96912 48.4474 2.15849 48.4474C4.27193 48.4474 6.26042 47.6056 7.72769 46.1126C8.45341 46.8535 9.31998 47.4417 10.2764 47.8426C11.2328 48.2436 12.2598 48.4492 13.2969 48.4474C15.4103 48.4474 17.3981 47.6063 18.8661 46.1126C20.3334 47.6056 22.3218 48.4474 24.4353 48.4474C26.5487 48.4474 28.5372 47.6056 30.0045 46.1126C30.7302 46.8535 31.5968 47.4417 32.5532 47.8426C33.5096 48.2436 34.5366 48.4492 35.5737 48.4474C37.6893 48.4474 39.6756 47.6063 41.1429 46.1126C41.8686 46.8534 42.7352 47.4416 43.6916 47.8426C44.6481 48.2435 45.675 48.4492 46.7121 48.4474C48.8255 48.4474 50.8133 47.6063 52.2813 46.1126C53.0069 46.8536 53.8735 47.4418 54.8299 47.8428C55.7864 48.2438 56.8134 48.4493 57.8505 48.4474C58.0398 48.4474 58.2215 48.3722 58.3554 48.2383C58.4893 48.1044 58.5645 47.9228 58.5645 47.7334C58.5645 47.544 58.4893 47.3624 58.3554 47.2285C58.2215 47.0946 58.0398 47.0201 57.8505 47.0201ZM57.8505 57.1318C56.886 57.1328 55.9339 56.9147 55.066 56.4941C54.1981 56.0734 53.4371 55.4612 52.8403 54.7035C52.7735 54.6193 52.6885 54.5513 52.5917 54.5046C52.4949 54.4579 52.3888 54.4336 52.2813 54.4336C52.1738 54.4336 52.0677 54.4579 51.9709 54.5046C51.8741 54.5513 51.7891 54.6193 51.7222 54.7035C51.1253 55.4611 50.3641 56.0734 49.4961 56.494C48.6281 56.9147 47.6759 57.1327 46.7114 57.1318C45.7471 57.1326 44.7953 56.9144 43.9277 56.4938C43.0601 56.0731 42.2993 55.461 41.7027 54.7035C41.4313 54.3622 40.8544 54.3622 40.5838 54.7035C39.3586 56.2464 37.5322 57.1318 35.5744 57.1318C33.6166 57.1318 31.7902 56.2464 30.5636 54.7035C30.2922 54.3622 29.716 54.3622 29.4454 54.7035C28.2195 56.2464 26.3931 57.1318 24.4353 57.1318C22.4775 57.1318 20.6511 56.2464 19.4259 54.7035C19.359 54.6192 19.274 54.5511 19.1771 54.5043C19.0802 54.4574 18.974 54.4331 18.8664 54.4331C18.7589 54.4331 18.6527 54.4574 18.5558 54.5043C18.4589 54.5511 18.3739 54.6192 18.307 54.7035C17.7103 55.4609 16.9493 56.0731 16.0816 56.4937C15.2138 56.9143 14.2619 57.1325 13.2976 57.1318C11.3391 57.1318 9.5134 56.2464 8.28675 54.7035C8.01543 54.3622 7.43923 54.3622 7.16863 54.7035C6.57189 55.4612 5.81086 56.0734 4.94296 56.4941C4.07506 56.9147 3.12296 57.1328 2.15849 57.1318C1.96912 57.1318 1.78751 57.207 1.65361 57.3409C1.51971 57.4748 1.44449 57.6564 1.44449 57.8458C1.44449 58.0351 1.51971 58.2167 1.65361 58.3506C1.78751 58.4846 1.96912 58.5598 2.15849 58.5598C4.27193 58.5598 6.2597 57.7173 7.72769 56.2243C9.19567 57.7173 11.1834 58.5598 13.2969 58.5598C15.4103 58.5598 17.3981 57.7173 18.8661 56.2243C20.3341 57.7173 22.3218 58.5598 24.4353 58.5598C26.5487 58.5598 28.5365 57.7173 30.0045 56.2243C30.7302 56.9651 31.5968 57.5534 32.5532 57.9545C33.5096 58.3555 34.5366 58.5613 35.5737 58.5598C37.6886 58.5598 39.6756 57.7173 41.1429 56.2243C42.6109 57.7173 44.5986 58.5598 46.7121 58.5598C48.8255 58.5598 50.8133 57.7173 52.2813 56.2243C53.0069 56.9654 53.8734 57.5538 54.8298 57.9549C55.7863 58.356 56.8133 58.5617 57.8505 58.5598C58.0398 58.5598 58.2215 58.4846 58.3554 58.3506C58.4893 58.2167 58.5645 58.0351 58.5645 57.8458C58.5645 57.6564 58.4893 57.4748 58.3554 57.3409C58.2215 57.207 58.0398 57.1318 57.8505 57.1318Z" fill="black"/>
<path d="M2.13493 7.2603L2.70755 7.23174C6.70667 7.01754 16.0801 6.52131 17.6159 17.8989C17.6364 18.0504 17.7049 18.1913 17.8114 18.3009C17.918 18.4105 18.0569 18.483 18.2077 18.5078C18.3585 18.5326 18.5133 18.5083 18.6493 18.4385C18.7853 18.3688 18.8953 18.2572 18.9632 18.1202C24.0769 7.84293 32.7898 11.3272 36.5112 12.8159L37.0431 13.0273C37.2923 13.1244 37.5793 13.073 37.7799 12.8938C37.9799 12.7138 38.062 12.4361 37.992 12.1762C36.9124 8.17708 33.623 5.16471 29.6132 4.50283C25.9625 3.90093 22.3019 5.30109 19.9235 8.11924C18.5776 4.68633 15.5603 2.18162 11.911 1.579C7.89691 0.917841 3.81925 2.71069 1.51018 6.1486C1.4364 6.25832 1.39453 6.38637 1.38924 6.51848C1.38396 6.65059 1.41545 6.78157 1.48023 6.89683C1.545 7.01209 1.64051 7.1071 1.75611 7.17128C1.8717 7.23546 2.00285 7.26628 2.13493 7.2603ZM11.6782 2.98773C15.2354 3.57535 18.0993 6.26499 18.9739 9.83998C19.0417 10.1177 19.2695 10.3284 19.5508 10.3755C19.689 10.3989 19.831 10.3809 19.959 10.3237C20.0869 10.2665 20.1951 10.1727 20.2698 10.0542C22.2469 6.94971 25.8226 5.32393 29.3805 5.91227C32.345 6.40136 34.854 8.38414 36.0992 11.1188C32.0937 9.5858 24.004 7.1939 18.6676 15.7219C16.567 6.81834 9.40345 5.73163 4.90025 5.73163C4.45257 5.73163 4.02988 5.74234 3.64218 5.75733C5.70136 3.56821 8.71444 2.49649 11.6782 2.98773ZM57.1115 19.8417L57.9433 19.7375C58.0746 19.7203 58.1985 19.667 58.3013 19.5834C58.404 19.4999 58.4815 19.3894 58.525 19.2643C58.5686 19.1393 58.5765 19.0046 58.5479 18.8753C58.5193 18.746 58.4554 18.6272 58.3631 18.5322C54.2862 14.3282 48.0901 12.8488 42.5737 14.7652C40.0345 15.6482 37.7771 17.1935 36.0351 19.2412C34.2931 21.2889 33.1296 23.7647 32.6649 26.4126C30.6584 24.6235 28.2105 23.4028 25.5742 22.8766C22.938 22.3504 20.209 22.5378 17.6694 23.4195C12.1538 25.3359 8.20821 30.3396 7.61773 36.1666C7.60463 36.2982 7.62827 36.4308 7.68604 36.5497C7.7438 36.6686 7.83342 36.7692 7.94493 36.8402C8.05644 36.9113 8.18546 36.95 8.31766 36.9521C8.44985 36.9541 8.58004 36.9195 8.69373 36.852L9.4113 36.4172C14.5164 33.3092 26.4723 26.0292 36.5126 39.5617C36.6029 39.684 36.73 39.7743 36.8753 39.8193C37.0206 39.8643 37.1765 39.8615 37.3201 39.8116C37.615 39.7087 37.8092 39.426 37.7999 39.1147C37.2859 22.2736 51.1782 20.5693 57.1115 19.8417ZM36.3791 37.1012C31.9608 31.934 27.227 30.2497 22.8616 30.2497C17.2089 30.2497 12.1773 33.0778 9.27064 34.8314C10.2631 30.1997 13.6182 26.3384 18.1378 24.7676C20.6518 23.895 23.3659 23.7752 25.947 24.4231C28.528 25.071 30.8638 26.4582 32.6677 28.4147C32.762 28.5166 32.884 28.5888 33.0188 28.6225C33.1535 28.6561 33.2951 28.6498 33.4263 28.6041C33.5575 28.5585 33.6725 28.4757 33.7573 28.3657C33.8421 28.2557 33.8929 28.1233 33.9036 27.9849C34.1061 25.3315 35.0786 22.7949 36.7019 20.6864C38.3253 18.5778 40.5288 16.9889 43.0421 16.1146C47.561 14.5445 52.5876 15.492 56.2383 18.5115C50.2707 19.2676 36.9796 21.5103 36.3791 37.1012ZM57.8505 47.0201C56.886 47.0211 55.9339 46.8031 55.066 46.3824C54.1981 45.9618 53.4371 45.3495 52.8403 44.5918C52.7735 44.5076 52.6885 44.4396 52.5917 44.3929C52.4949 44.3462 52.3888 44.3219 52.2813 44.3219C52.1738 44.3219 52.0677 44.3462 51.9709 44.3929C51.8741 44.4396 51.7891 44.5076 51.7222 44.5918C50.4956 46.1347 48.6699 47.0194 46.7114 47.0194C44.7529 47.0194 42.9286 46.1347 41.7027 44.5918C41.4313 44.2505 40.8544 44.2505 40.5838 44.5918C39.3586 46.1347 37.5322 47.0194 35.5744 47.0194C33.6166 47.0194 31.7902 46.1347 30.5636 44.5918C30.2922 44.2505 29.716 44.2505 29.4454 44.5918C28.2195 46.1347 26.3931 47.0194 24.4353 47.0194C22.4775 47.0194 20.6511 46.1347 19.4259 44.5918C19.359 44.5075 19.274 44.4394 19.1771 44.3926C19.0802 44.3458 18.974 44.3215 18.8664 44.3215C18.7589 44.3215 18.6527 44.3458 18.5558 44.3926C18.4589 44.4394 18.3739 44.5075 18.307 44.5918C17.0804 46.1347 15.2554 47.0194 13.2976 47.0194C11.3398 47.0194 9.5134 46.1347 8.28675 44.5918C8.01543 44.2505 7.43923 44.2505 7.16863 44.5918C6.57182 45.3494 5.81076 45.9615 4.94286 46.382C4.07496 46.8026 3.1229 47.0205 2.15849 47.0194C1.96912 47.0194 1.78751 47.0946 1.65361 47.2285C1.51971 47.3624 1.44449 47.544 1.44449 47.7334C1.44449 47.9228 1.51971 48.1044 1.65361 48.2383C1.78751 48.3722 1.96912 48.4474 2.15849 48.4474C4.27193 48.4474 6.26042 47.6056 7.72769 46.1126C8.45341 46.8535 9.31998 47.4417 10.2764 47.8426C11.2328 48.2436 12.2598 48.4492 13.2969 48.4474C15.4103 48.4474 17.3981 47.6063 18.8661 46.1126C20.3334 47.6056 22.3218 48.4474 24.4353 48.4474C26.5487 48.4474 28.5372 47.6056 30.0045 46.1126C30.7302 46.8535 31.5968 47.4417 32.5532 47.8426C33.5096 48.2436 34.5366 48.4492 35.5737 48.4474C37.6893 48.4474 39.6756 47.6063 41.1429 46.1126C41.8686 46.8534 42.7352 47.4416 43.6916 47.8426C44.6481 48.2435 45.675 48.4492 46.7121 48.4474C48.8255 48.4474 50.8133 47.6063 52.2813 46.1126C53.0069 46.8536 53.8735 47.4418 54.8299 47.8428C55.7864 48.2438 56.8134 48.4493 57.8505 48.4474C58.0398 48.4474 58.2215 48.3722 58.3554 48.2383C58.4893 48.1044 58.5645 47.9228 58.5645 47.7334C58.5645 47.544 58.4893 47.3624 58.3554 47.2285C58.2215 47.0946 58.0398 47.0201 57.8505 47.0201ZM57.8505 57.1318C56.886 57.1328 55.9339 56.9147 55.066 56.4941C54.1981 56.0734 53.4371 55.4612 52.8403 54.7035C52.7735 54.6193 52.6885 54.5513 52.5917 54.5046C52.4949 54.4579 52.3888 54.4336 52.2813 54.4336C52.1738 54.4336 52.0677 54.4579 51.9709 54.5046C51.8741 54.5513 51.7891 54.6193 51.7222 54.7035C51.1253 55.4611 50.3641 56.0734 49.4961 56.494C48.6281 56.9147 47.6759 57.1327 46.7114 57.1318C45.7471 57.1326 44.7953 56.9144 43.9277 56.4938C43.0601 56.0731 42.2993 55.461 41.7027 54.7035C41.4313 54.3622 40.8544 54.3622 40.5838 54.7035C39.3586 56.2464 37.5322 57.1318 35.5744 57.1318C33.6166 57.1318 31.7902 56.2464 30.5636 54.7035C30.2922 54.3622 29.716 54.3622 29.4454 54.7035C28.2195 56.2464 26.3931 57.1318 24.4353 57.1318C22.4775 57.1318 20.6511 56.2464 19.4259 54.7035C19.359 54.6192 19.274 54.5511 19.1771 54.5043C19.0802 54.4574 18.974 54.4331 18.8664 54.4331C18.7589 54.4331 18.6527 54.4574 18.5558 54.5043C18.4589 54.5511 18.3739 54.6192 18.307 54.7035C17.7103 55.4609 16.9493 56.0731 16.0816 56.4937C15.2138 56.9143 14.2619 57.1325 13.2976 57.1318C11.3391 57.1318 9.5134 56.2464 8.28675 54.7035C8.01543 54.3622 7.43923 54.3622 7.16863 54.7035C6.57189 55.4612 5.81086 56.0734 4.94296 56.4941C4.07506 56.9147 3.12296 57.1328 2.15849 57.1318C1.96912 57.1318 1.78751 57.207 1.65361 57.3409C1.51971 57.4748 1.44449 57.6564 1.44449 57.8458C1.44449 58.0351 1.51971 58.2167 1.65361 58.3506C1.78751 58.4846 1.96912 58.5598 2.15849 58.5598C4.27193 58.5598 6.2597 57.7173 7.72769 56.2243C9.19567 57.7173 11.1834 58.5598 13.2969 58.5598C15.4103 58.5598 17.3981 57.7173 18.8661 56.2243C20.3341 57.7173 22.3218 58.5598 24.4353 58.5598C26.5487 58.5598 28.5365 57.7173 30.0045 56.2243C30.7302 56.9651 31.5968 57.5534 32.5532 57.9545C33.5096 58.3555 34.5366 58.5613 35.5737 58.5598C37.6886 58.5598 39.6756 57.7173 41.1429 56.2243C42.6109 57.7173 44.5986 58.5598 46.7121 58.5598C48.8255 58.5598 50.8133 57.7173 52.2813 56.2243C53.0069 56.9654 53.8734 57.5538 54.8298 57.9549C55.7863 58.356 56.8133 58.5617 57.8505 58.5598C58.0398 58.5598 58.2215 58.4846 58.3554 58.3506C58.4893 58.2167 58.5645 58.0351 58.5645 57.8458C58.5645 57.6564 58.4893 57.4748 58.3554 57.3409C58.2215 57.207 58.0398 57.1318 57.8505 57.1318Z" stroke="black" stroke-width="0.8" mask="url(#path-1-outside-1_73_538)"/>
</svg>
