<svg width="61" height="62" viewBox="0 0 61 62" fill="none" xmlns="http://www.w3.org/2000/svg">
<mask id="path-1-outside-1_73_528" maskUnits="userSpaceOnUse" x="12.6855" y="13.3414" width="39" height="30" fill="black">
<rect fill="white" x="12.6855" y="13.3414" width="39" height="30"/>
<path d="M47.335 23.9468C47.153 23.9059 46.9693 23.8734 46.7844 23.8493C47.3306 23.2506 47.7599 22.555 48.0502 21.7984C48.6731 20.1781 48.6265 18.4128 47.9191 16.8275L47.8958 16.7753C47.8052 16.5722 47.6378 16.4133 47.4302 16.3335C47.2227 16.2537 46.9919 16.2595 46.7886 16.3495L44.0412 17.5661C43.4021 17.8487 42.8124 18.232 42.2946 18.7013C41.6468 17.113 40.0828 15.9899 38.2596 15.9899C37.5437 15.9889 36.8386 16.1647 36.207 16.5018C35.8226 15.8441 35.2727 15.2985 34.6119 14.9195C33.951 14.5405 33.2025 14.3412 32.4407 14.3414C31.6777 14.3408 30.9279 14.5405 30.2663 14.9206C29.6047 15.3006 29.0545 15.8477 28.6706 16.5071C28.0365 16.1665 27.3277 15.9887 26.6078 15.9899C24.7883 15.9899 23.2266 17.1086 22.5766 18.6919C22.0612 18.2269 21.475 17.8468 20.8402 17.5661L18.0929 16.3495C17.8896 16.2595 17.6588 16.2537 17.4513 16.3335C17.2437 16.4133 17.0763 16.5722 16.9856 16.7753L16.9624 16.8275C16.2548 18.4128 16.2084 20.1782 16.8313 21.7984C17.1213 22.5544 17.5502 23.2495 18.0958 23.848C17.9083 23.872 17.7204 23.9046 17.5326 23.9468C16.2445 24.237 15.148 25.0103 14.4448 26.1245C13.7444 27.234 13.5187 28.5492 13.8089 29.8277C14.2408 31.7298 15.9421 33.0242 17.8212 33.0242C18.1205 33.0242 18.4242 32.9915 18.7282 32.923C19.6313 32.7196 20.4004 32.1772 20.8936 31.3957C21.385 30.6172 21.5434 29.6944 21.3396 28.7972C21.3159 28.6889 21.271 28.5863 21.2075 28.4954C21.144 28.4046 21.0631 28.3271 20.9696 28.2677C20.876 28.2082 20.7715 28.1678 20.6623 28.1489C20.553 28.13 20.4411 28.1329 20.333 28.1574C20.2248 28.182 20.1226 28.2277 20.0323 28.292C19.9419 28.3562 19.8651 28.4377 19.8064 28.5318C19.7477 28.6258 19.7082 28.7306 19.6902 28.84C19.6721 28.9494 19.6759 29.0613 19.7014 29.1692C19.7532 29.395 19.7597 29.6288 19.7205 29.8571C19.6813 30.0853 19.5971 30.3036 19.4729 30.4991C19.3484 30.6971 19.1859 30.8685 18.9946 31.0033C18.8034 31.138 18.5873 31.2334 18.3589 31.284C17.0489 31.5793 15.743 30.7589 15.4472 29.4558C15.2564 28.6154 15.405 27.7507 15.8654 27.0211C16.3289 26.287 17.052 25.7772 17.9018 25.5859C19.9567 25.1226 22.0202 26.1955 22.8082 28.1364C22.8582 28.2596 22.9369 28.369 23.0377 28.4557V33.5233C23.0377 38.6434 27.2172 42.8089 32.3545 42.8089H32.5261C37.6636 42.8089 41.843 38.6434 41.843 33.5233V28.4437C41.9376 28.3591 42.0116 28.254 42.0594 28.1365C42.8472 26.1954 44.9106 25.1227 46.9658 25.5858C47.8154 25.7772 48.5386 26.287 49.0019 27.021C49.4623 27.7506 49.611 28.6154 49.4202 29.4558C49.1244 30.7589 47.8187 31.5796 46.5084 31.284C46.2801 31.2334 46.064 31.138 45.8728 31.0033C45.6817 30.8686 45.5191 30.6972 45.3947 30.4992C45.2704 30.3037 45.1862 30.0854 45.147 29.8571C45.1078 29.6288 45.1142 29.3949 45.1661 29.1691C45.1905 29.0615 45.1935 28.9502 45.1749 28.8415C45.1563 28.7327 45.1164 28.6287 45.0576 28.5354C44.9988 28.4421 44.9222 28.3612 44.8322 28.2975C44.7421 28.2338 44.6404 28.1884 44.5328 28.164C44.4253 28.1396 44.3139 28.1366 44.2052 28.1552C44.0965 28.1738 43.9925 28.2136 43.8991 28.2724C43.8058 28.3312 43.725 28.4079 43.6612 28.4979C43.5975 28.5879 43.5521 28.6897 43.5277 28.7972C43.3241 29.6945 43.4826 30.6173 43.974 31.3958C44.4672 32.177 45.2362 32.7196 46.1393 32.923C46.4432 32.9914 46.7468 33.0242 47.0462 33.0242C48.9252 33.0242 50.6267 31.7297 51.0584 29.8278C51.3487 28.5492 51.1229 27.234 50.4226 26.1245C49.7194 25.0103 48.6229 24.237 47.335 23.9468ZM41.9149 22.6856C42.2515 22.1696 42.4734 21.5872 42.5656 20.978C43.0728 20.1551 43.8157 19.5032 44.7214 19.1022L46.6458 18.2502C46.9024 19.2192 46.849 20.2412 46.482 21.1954C46.0184 22.4011 45.1106 23.3542 43.9258 23.8788L42.0013 24.7308C41.8242 24.0635 41.7948 23.3655 41.9149 22.6856ZM18.2357 18.25L20.1599 19.1021C21.0548 19.4983 21.7913 20.1391 22.2982 20.9483C22.3889 21.5797 22.6189 22.1831 22.9714 22.7148C23.0857 23.3856 23.0545 24.0731 22.8799 24.7308L20.9557 23.8787C19.7708 23.3539 18.8629 22.401 18.3994 21.1952C18.0325 20.2412 17.979 19.2192 18.2357 18.25ZM40.163 33.5232C40.163 37.4633 37.139 40.7124 33.281 41.0912V38.4557C34.8199 38.1389 36.0566 36.9648 36.4201 35.3852C36.4678 35.169 36.4281 34.9426 36.3097 34.7554C36.1914 34.5682 36.0039 34.4354 35.788 34.3857C35.5722 34.3361 35.3455 34.3736 35.1572 34.4903C34.969 34.6069 34.8344 34.7932 34.7827 35.0086C34.5359 36.0823 33.551 36.8614 32.441 36.8614C31.313 36.8614 30.3502 36.0995 30.0992 35.0086C30.0493 34.7914 29.9151 34.6031 29.7263 34.4848C29.5374 34.3666 29.3094 34.3283 29.0923 34.3783C28.8751 34.4282 28.6868 34.5624 28.5686 34.7512C28.4504 34.9401 28.412 35.1681 28.462 35.3852C28.8252 36.9648 30.062 38.1388 31.601 38.4557V41.0914C27.7424 40.7132 24.7177 37.4638 24.7177 33.5232V25.4251C24.7177 25.0469 24.8323 24.6876 25.0477 24.3826C25.5456 24.5739 26.0745 24.672 26.6078 24.6718C27.3708 24.6724 28.1206 24.4727 28.7822 24.0926C29.4438 23.7126 29.994 23.1655 30.3779 22.5061C31.012 22.8467 31.7209 23.0245 32.4407 23.0233C33.1566 23.0243 33.8616 22.8485 34.4932 22.5114C35.0155 23.405 35.8387 24.0837 36.8155 24.4261C37.7923 24.7686 38.859 24.7523 39.825 24.3804C40.0457 24.6875 40.164 25.0564 40.163 25.4346V33.5232ZM38.2596 22.9918C37.0436 22.9918 35.9798 22.1755 35.6724 21.007C35.6353 20.8659 35.5622 20.737 35.4602 20.6329C35.3581 20.5287 35.2308 20.4529 35.0906 20.4129C34.9504 20.3728 34.8022 20.37 34.6605 20.4046C34.5189 20.4393 34.3887 20.5102 34.2828 20.6104C33.7856 21.082 33.1261 21.3444 32.4408 21.3433C31.7514 21.3446 31.0883 21.079 30.5904 20.6023C30.4845 20.5013 30.3541 20.4297 30.212 20.3946C30.07 20.3595 29.9212 20.3621 29.7804 20.4022C29.6397 20.4422 29.5118 20.5184 29.4096 20.6231C29.3073 20.7278 29.2342 20.8574 29.1974 20.999C28.8926 22.1723 27.8279 22.9918 26.6078 22.9918C25.7768 22.9918 25.0333 22.6126 24.5424 22.0193C24.4751 21.7349 24.3889 21.4553 24.2844 21.1824C24.1842 20.9234 24.0678 20.671 23.9358 20.4268C23.9346 20.3948 23.9334 20.3629 23.9334 20.3308C23.9334 18.8634 25.1332 17.6698 26.6078 17.6698C27.3002 17.6698 27.9575 17.9328 28.4582 18.4106C28.5641 18.5117 28.6945 18.5833 28.8366 18.6184C28.9786 18.6535 29.1274 18.6509 29.2681 18.6109C29.4089 18.5708 29.5367 18.4947 29.639 18.39C29.7413 18.2853 29.8144 18.1558 29.8512 18.0142C30.1559 16.8408 31.2208 16.0213 32.4408 16.0213C33.6565 16.0213 34.7206 16.8376 35.028 18.0061C35.0651 18.1471 35.1382 18.276 35.2403 18.3802C35.3423 18.4844 35.4696 18.5602 35.6098 18.6002C35.75 18.6402 35.8982 18.6431 36.0399 18.6084C36.1815 18.5738 36.3117 18.5029 36.4176 18.4027C36.9148 17.9311 37.5743 17.6686 38.2596 17.6698C39.7344 17.6698 40.9342 18.8634 40.9342 20.3306C40.9342 20.3722 40.933 20.4133 40.931 20.4542C40.805 20.69 40.6935 20.9332 40.597 21.1825C40.4958 21.4471 40.4117 21.718 40.3454 21.9935C39.8549 22.6014 39.1024 22.9918 38.2596 22.9918Z"/>
</mask>
<path d="M47.335 23.9468C47.153 23.9059 46.9693 23.8734 46.7844 23.8493C47.3306 23.2506 47.7599 22.555 48.0502 21.7984C48.6731 20.1781 48.6265 18.4128 47.9191 16.8275L47.8958 16.7753C47.8052 16.5722 47.6378 16.4133 47.4302 16.3335C47.2227 16.2537 46.9919 16.2595 46.7886 16.3495L44.0412 17.5661C43.4021 17.8487 42.8124 18.232 42.2946 18.7013C41.6468 17.113 40.0828 15.9899 38.2596 15.9899C37.5437 15.9889 36.8386 16.1647 36.207 16.5018C35.8226 15.8441 35.2727 15.2985 34.6119 14.9195C33.951 14.5405 33.2025 14.3412 32.4407 14.3414C31.6777 14.3408 30.9279 14.5405 30.2663 14.9206C29.6047 15.3006 29.0545 15.8477 28.6706 16.5071C28.0365 16.1665 27.3277 15.9887 26.6078 15.9899C24.7883 15.9899 23.2266 17.1086 22.5766 18.6919C22.0612 18.2269 21.475 17.8468 20.8402 17.5661L18.0929 16.3495C17.8896 16.2595 17.6588 16.2537 17.4513 16.3335C17.2437 16.4133 17.0763 16.5722 16.9856 16.7753L16.9624 16.8275C16.2548 18.4128 16.2084 20.1782 16.8313 21.7984C17.1213 22.5544 17.5502 23.2495 18.0958 23.848C17.9083 23.872 17.7204 23.9046 17.5326 23.9468C16.2445 24.237 15.148 25.0103 14.4448 26.1245C13.7444 27.234 13.5187 28.5492 13.8089 29.8277C14.2408 31.7298 15.9421 33.0242 17.8212 33.0242C18.1205 33.0242 18.4242 32.9915 18.7282 32.923C19.6313 32.7196 20.4004 32.1772 20.8936 31.3957C21.385 30.6172 21.5434 29.6944 21.3396 28.7972C21.3159 28.6889 21.271 28.5863 21.2075 28.4954C21.144 28.4046 21.0631 28.3271 20.9696 28.2677C20.876 28.2082 20.7715 28.1678 20.6623 28.1489C20.553 28.13 20.4411 28.1329 20.333 28.1574C20.2248 28.182 20.1226 28.2277 20.0323 28.292C19.9419 28.3562 19.8651 28.4377 19.8064 28.5318C19.7477 28.6258 19.7082 28.7306 19.6902 28.84C19.6721 28.9494 19.6759 29.0613 19.7014 29.1692C19.7532 29.395 19.7597 29.6288 19.7205 29.8571C19.6813 30.0853 19.5971 30.3036 19.4729 30.4991C19.3484 30.6971 19.1859 30.8685 18.9946 31.0033C18.8034 31.138 18.5873 31.2334 18.3589 31.284C17.0489 31.5793 15.743 30.7589 15.4472 29.4558C15.2564 28.6154 15.405 27.7507 15.8654 27.0211C16.3289 26.287 17.052 25.7772 17.9018 25.5859C19.9567 25.1226 22.0202 26.1955 22.8082 28.1364C22.8582 28.2596 22.9369 28.369 23.0377 28.4557V33.5233C23.0377 38.6434 27.2172 42.8089 32.3545 42.8089H32.5261C37.6636 42.8089 41.843 38.6434 41.843 33.5233V28.4437C41.9376 28.3591 42.0116 28.254 42.0594 28.1365C42.8472 26.1954 44.9106 25.1227 46.9658 25.5858C47.8154 25.7772 48.5386 26.287 49.0019 27.021C49.4623 27.7506 49.611 28.6154 49.4202 29.4558C49.1244 30.7589 47.8187 31.5796 46.5084 31.284C46.2801 31.2334 46.064 31.138 45.8728 31.0033C45.6817 30.8686 45.5191 30.6972 45.3947 30.4992C45.2704 30.3037 45.1862 30.0854 45.147 29.8571C45.1078 29.6288 45.1142 29.3949 45.1661 29.1691C45.1905 29.0615 45.1935 28.9502 45.1749 28.8415C45.1563 28.7327 45.1164 28.6287 45.0576 28.5354C44.9988 28.4421 44.9222 28.3612 44.8322 28.2975C44.7421 28.2338 44.6404 28.1884 44.5328 28.164C44.4253 28.1396 44.3139 28.1366 44.2052 28.1552C44.0965 28.1738 43.9925 28.2136 43.8991 28.2724C43.8058 28.3312 43.725 28.4079 43.6612 28.4979C43.5975 28.5879 43.5521 28.6897 43.5277 28.7972C43.3241 29.6945 43.4826 30.6173 43.974 31.3958C44.4672 32.177 45.2362 32.7196 46.1393 32.923C46.4432 32.9914 46.7468 33.0242 47.0462 33.0242C48.9252 33.0242 50.6267 31.7297 51.0584 29.8278C51.3487 28.5492 51.1229 27.234 50.4226 26.1245C49.7194 25.0103 48.6229 24.237 47.335 23.9468ZM41.9149 22.6856C42.2515 22.1696 42.4734 21.5872 42.5656 20.978C43.0728 20.1551 43.8157 19.5032 44.7214 19.1022L46.6458 18.2502C46.9024 19.2192 46.849 20.2412 46.482 21.1954C46.0184 22.4011 45.1106 23.3542 43.9258 23.8788L42.0013 24.7308C41.8242 24.0635 41.7948 23.3655 41.9149 22.6856ZM18.2357 18.25L20.1599 19.1021C21.0548 19.4983 21.7913 20.1391 22.2982 20.9483C22.3889 21.5797 22.6189 22.1831 22.9714 22.7148C23.0857 23.3856 23.0545 24.0731 22.8799 24.7308L20.9557 23.8787C19.7708 23.3539 18.8629 22.401 18.3994 21.1952C18.0325 20.2412 17.979 19.2192 18.2357 18.25ZM40.163 33.5232C40.163 37.4633 37.139 40.7124 33.281 41.0912V38.4557C34.8199 38.1389 36.0566 36.9648 36.4201 35.3852C36.4678 35.169 36.4281 34.9426 36.3097 34.7554C36.1914 34.5682 36.0039 34.4354 35.788 34.3857C35.5722 34.3361 35.3455 34.3736 35.1572 34.4903C34.969 34.6069 34.8344 34.7932 34.7827 35.0086C34.5359 36.0823 33.551 36.8614 32.441 36.8614C31.313 36.8614 30.3502 36.0995 30.0992 35.0086C30.0493 34.7914 29.9151 34.6031 29.7263 34.4848C29.5374 34.3666 29.3094 34.3283 29.0923 34.3783C28.8751 34.4282 28.6868 34.5624 28.5686 34.7512C28.4504 34.9401 28.412 35.1681 28.462 35.3852C28.8252 36.9648 30.062 38.1388 31.601 38.4557V41.0914C27.7424 40.7132 24.7177 37.4638 24.7177 33.5232V25.4251C24.7177 25.0469 24.8323 24.6876 25.0477 24.3826C25.5456 24.5739 26.0745 24.672 26.6078 24.6718C27.3708 24.6724 28.1206 24.4727 28.7822 24.0926C29.4438 23.7126 29.994 23.1655 30.3779 22.5061C31.012 22.8467 31.7209 23.0245 32.4407 23.0233C33.1566 23.0243 33.8616 22.8485 34.4932 22.5114C35.0155 23.405 35.8387 24.0837 36.8155 24.4261C37.7923 24.7686 38.859 24.7523 39.825 24.3804C40.0457 24.6875 40.164 25.0564 40.163 25.4346V33.5232ZM38.2596 22.9918C37.0436 22.9918 35.9798 22.1755 35.6724 21.007C35.6353 20.8659 35.5622 20.737 35.4602 20.6329C35.3581 20.5287 35.2308 20.4529 35.0906 20.4129C34.9504 20.3728 34.8022 20.37 34.6605 20.4046C34.5189 20.4393 34.3887 20.5102 34.2828 20.6104C33.7856 21.082 33.1261 21.3444 32.4408 21.3433C31.7514 21.3446 31.0883 21.079 30.5904 20.6023C30.4845 20.5013 30.3541 20.4297 30.212 20.3946C30.07 20.3595 29.9212 20.3621 29.7804 20.4022C29.6397 20.4422 29.5118 20.5184 29.4096 20.6231C29.3073 20.7278 29.2342 20.8574 29.1974 20.999C28.8926 22.1723 27.8279 22.9918 26.6078 22.9918C25.7768 22.9918 25.0333 22.6126 24.5424 22.0193C24.4751 21.7349 24.3889 21.4553 24.2844 21.1824C24.1842 20.9234 24.0678 20.671 23.9358 20.4268C23.9346 20.3948 23.9334 20.3629 23.9334 20.3308C23.9334 18.8634 25.1332 17.6698 26.6078 17.6698C27.3002 17.6698 27.9575 17.9328 28.4582 18.4106C28.5641 18.5117 28.6945 18.5833 28.8366 18.6184C28.9786 18.6535 29.1274 18.6509 29.2681 18.6109C29.4089 18.5708 29.5367 18.4947 29.639 18.39C29.7413 18.2853 29.8144 18.1558 29.8512 18.0142C30.1559 16.8408 31.2208 16.0213 32.4408 16.0213C33.6565 16.0213 34.7206 16.8376 35.028 18.0061C35.0651 18.1471 35.1382 18.276 35.2403 18.3802C35.3423 18.4844 35.4696 18.5602 35.6098 18.6002C35.75 18.6402 35.8982 18.6431 36.0399 18.6084C36.1815 18.5738 36.3117 18.5029 36.4176 18.4027C36.9148 17.9311 37.5743 17.6686 38.2596 17.6698C39.7344 17.6698 40.9342 18.8634 40.9342 20.3306C40.9342 20.3722 40.933 20.4133 40.931 20.4542C40.805 20.69 40.6935 20.9332 40.597 21.1825C40.4958 21.4471 40.4117 21.718 40.3454 21.9935C39.8549 22.6014 39.1024 22.9918 38.2596 22.9918Z" fill="black"/>
<path d="M47.335 23.9468C47.153 23.9059 46.9693 23.8734 46.7844 23.8493C47.3306 23.2506 47.7599 22.555 48.0502 21.7984C48.6731 20.1781 48.6265 18.4128 47.9191 16.8275L47.8958 16.7753C47.8052 16.5722 47.6378 16.4133 47.4302 16.3335C47.2227 16.2537 46.9919 16.2595 46.7886 16.3495L44.0412 17.5661C43.4021 17.8487 42.8124 18.232 42.2946 18.7013C41.6468 17.113 40.0828 15.9899 38.2596 15.9899C37.5437 15.9889 36.8386 16.1647 36.207 16.5018C35.8226 15.8441 35.2727 15.2985 34.6119 14.9195C33.951 14.5405 33.2025 14.3412 32.4407 14.3414C31.6777 14.3408 30.9279 14.5405 30.2663 14.9206C29.6047 15.3006 29.0545 15.8477 28.6706 16.5071C28.0365 16.1665 27.3277 15.9887 26.6078 15.9899C24.7883 15.9899 23.2266 17.1086 22.5766 18.6919C22.0612 18.2269 21.475 17.8468 20.8402 17.5661L18.0929 16.3495C17.8896 16.2595 17.6588 16.2537 17.4513 16.3335C17.2437 16.4133 17.0763 16.5722 16.9856 16.7753L16.9624 16.8275C16.2548 18.4128 16.2084 20.1782 16.8313 21.7984C17.1213 22.5544 17.5502 23.2495 18.0958 23.848C17.9083 23.872 17.7204 23.9046 17.5326 23.9468C16.2445 24.237 15.148 25.0103 14.4448 26.1245C13.7444 27.234 13.5187 28.5492 13.8089 29.8277C14.2408 31.7298 15.9421 33.0242 17.8212 33.0242C18.1205 33.0242 18.4242 32.9915 18.7282 32.923C19.6313 32.7196 20.4004 32.1772 20.8936 31.3957C21.385 30.6172 21.5434 29.6944 21.3396 28.7972C21.3159 28.6889 21.271 28.5863 21.2075 28.4954C21.144 28.4046 21.0631 28.3271 20.9696 28.2677C20.876 28.2082 20.7715 28.1678 20.6623 28.1489C20.553 28.13 20.4411 28.1329 20.333 28.1574C20.2248 28.182 20.1226 28.2277 20.0323 28.292C19.9419 28.3562 19.8651 28.4377 19.8064 28.5318C19.7477 28.6258 19.7082 28.7306 19.6902 28.84C19.6721 28.9494 19.6759 29.0613 19.7014 29.1692C19.7532 29.395 19.7597 29.6288 19.7205 29.8571C19.6813 30.0853 19.5971 30.3036 19.4729 30.4991C19.3484 30.6971 19.1859 30.8685 18.9946 31.0033C18.8034 31.138 18.5873 31.2334 18.3589 31.284C17.0489 31.5793 15.743 30.7589 15.4472 29.4558C15.2564 28.6154 15.405 27.7507 15.8654 27.0211C16.3289 26.287 17.052 25.7772 17.9018 25.5859C19.9567 25.1226 22.0202 26.1955 22.8082 28.1364C22.8582 28.2596 22.9369 28.369 23.0377 28.4557V33.5233C23.0377 38.6434 27.2172 42.8089 32.3545 42.8089H32.5261C37.6636 42.8089 41.843 38.6434 41.843 33.5233V28.4437C41.9376 28.3591 42.0116 28.254 42.0594 28.1365C42.8472 26.1954 44.9106 25.1227 46.9658 25.5858C47.8154 25.7772 48.5386 26.287 49.0019 27.021C49.4623 27.7506 49.611 28.6154 49.4202 29.4558C49.1244 30.7589 47.8187 31.5796 46.5084 31.284C46.2801 31.2334 46.064 31.138 45.8728 31.0033C45.6817 30.8686 45.5191 30.6972 45.3947 30.4992C45.2704 30.3037 45.1862 30.0854 45.147 29.8571C45.1078 29.6288 45.1142 29.3949 45.1661 29.1691C45.1905 29.0615 45.1935 28.9502 45.1749 28.8415C45.1563 28.7327 45.1164 28.6287 45.0576 28.5354C44.9988 28.4421 44.9222 28.3612 44.8322 28.2975C44.7421 28.2338 44.6404 28.1884 44.5328 28.164C44.4253 28.1396 44.3139 28.1366 44.2052 28.1552C44.0965 28.1738 43.9925 28.2136 43.8991 28.2724C43.8058 28.3312 43.725 28.4079 43.6612 28.4979C43.5975 28.5879 43.5521 28.6897 43.5277 28.7972C43.3241 29.6945 43.4826 30.6173 43.974 31.3958C44.4672 32.177 45.2362 32.7196 46.1393 32.923C46.4432 32.9914 46.7468 33.0242 47.0462 33.0242C48.9252 33.0242 50.6267 31.7297 51.0584 29.8278C51.3487 28.5492 51.1229 27.234 50.4226 26.1245C49.7194 25.0103 48.6229 24.237 47.335 23.9468ZM41.9149 22.6856C42.2515 22.1696 42.4734 21.5872 42.5656 20.978C43.0728 20.1551 43.8157 19.5032 44.7214 19.1022L46.6458 18.2502C46.9024 19.2192 46.849 20.2412 46.482 21.1954C46.0184 22.4011 45.1106 23.3542 43.9258 23.8788L42.0013 24.7308C41.8242 24.0635 41.7948 23.3655 41.9149 22.6856ZM18.2357 18.25L20.1599 19.1021C21.0548 19.4983 21.7913 20.1391 22.2982 20.9483C22.3889 21.5797 22.6189 22.1831 22.9714 22.7148C23.0857 23.3856 23.0545 24.0731 22.8799 24.7308L20.9557 23.8787C19.7708 23.3539 18.8629 22.401 18.3994 21.1952C18.0325 20.2412 17.979 19.2192 18.2357 18.25ZM40.163 33.5232C40.163 37.4633 37.139 40.7124 33.281 41.0912V38.4557C34.8199 38.1389 36.0566 36.9648 36.4201 35.3852C36.4678 35.169 36.4281 34.9426 36.3097 34.7554C36.1914 34.5682 36.0039 34.4354 35.788 34.3857C35.5722 34.3361 35.3455 34.3736 35.1572 34.4903C34.969 34.6069 34.8344 34.7932 34.7827 35.0086C34.5359 36.0823 33.551 36.8614 32.441 36.8614C31.313 36.8614 30.3502 36.0995 30.0992 35.0086C30.0493 34.7914 29.9151 34.6031 29.7263 34.4848C29.5374 34.3666 29.3094 34.3283 29.0923 34.3783C28.8751 34.4282 28.6868 34.5624 28.5686 34.7512C28.4504 34.9401 28.412 35.1681 28.462 35.3852C28.8252 36.9648 30.062 38.1388 31.601 38.4557V41.0914C27.7424 40.7132 24.7177 37.4638 24.7177 33.5232V25.4251C24.7177 25.0469 24.8323 24.6876 25.0477 24.3826C25.5456 24.5739 26.0745 24.672 26.6078 24.6718C27.3708 24.6724 28.1206 24.4727 28.7822 24.0926C29.4438 23.7126 29.994 23.1655 30.3779 22.5061C31.012 22.8467 31.7209 23.0245 32.4407 23.0233C33.1566 23.0243 33.8616 22.8485 34.4932 22.5114C35.0155 23.405 35.8387 24.0837 36.8155 24.4261C37.7923 24.7686 38.859 24.7523 39.825 24.3804C40.0457 24.6875 40.164 25.0564 40.163 25.4346V33.5232ZM38.2596 22.9918C37.0436 22.9918 35.9798 22.1755 35.6724 21.007C35.6353 20.8659 35.5622 20.737 35.4602 20.6329C35.3581 20.5287 35.2308 20.4529 35.0906 20.4129C34.9504 20.3728 34.8022 20.37 34.6605 20.4046C34.5189 20.4393 34.3887 20.5102 34.2828 20.6104C33.7856 21.082 33.1261 21.3444 32.4408 21.3433C31.7514 21.3446 31.0883 21.079 30.5904 20.6023C30.4845 20.5013 30.3541 20.4297 30.212 20.3946C30.07 20.3595 29.9212 20.3621 29.7804 20.4022C29.6397 20.4422 29.5118 20.5184 29.4096 20.6231C29.3073 20.7278 29.2342 20.8574 29.1974 20.999C28.8926 22.1723 27.8279 22.9918 26.6078 22.9918C25.7768 22.9918 25.0333 22.6126 24.5424 22.0193C24.4751 21.7349 24.3889 21.4553 24.2844 21.1824C24.1842 20.9234 24.0678 20.671 23.9358 20.4268C23.9346 20.3948 23.9334 20.3629 23.9334 20.3308C23.9334 18.8634 25.1332 17.6698 26.6078 17.6698C27.3002 17.6698 27.9575 17.9328 28.4582 18.4106C28.5641 18.5117 28.6945 18.5833 28.8366 18.6184C28.9786 18.6535 29.1274 18.6509 29.2681 18.6109C29.4089 18.5708 29.5367 18.4947 29.639 18.39C29.7413 18.2853 29.8144 18.1558 29.8512 18.0142C30.1559 16.8408 31.2208 16.0213 32.4408 16.0213C33.6565 16.0213 34.7206 16.8376 35.028 18.0061C35.0651 18.1471 35.1382 18.276 35.2403 18.3802C35.3423 18.4844 35.4696 18.5602 35.6098 18.6002C35.75 18.6402 35.8982 18.6431 36.0399 18.6084C36.1815 18.5738 36.3117 18.5029 36.4176 18.4027C36.9148 17.9311 37.5743 17.6686 38.2596 17.6698C39.7344 17.6698 40.9342 18.8634 40.9342 20.3306C40.9342 20.3722 40.933 20.4133 40.931 20.4542C40.805 20.69 40.6935 20.9332 40.597 21.1825C40.4958 21.4471 40.4117 21.718 40.3454 21.9935C39.8549 22.6014 39.1024 22.9918 38.2596 22.9918Z" stroke="black" stroke-width="0.6" mask="url(#path-1-outside-1_73_528)"/>
<mask id="path-2-outside-2_73_528" maskUnits="userSpaceOnUse" x="4" y="0" width="57" height="62" fill="black">
<rect fill="white" x="4" width="57" height="62"/>
<path d="M53.541 19.7032C55.3134 16.2824 54.7428 12.0236 52.0091 9.18395C50.2641 7.37147 47.9146 6.37319 45.3932 6.37319C43.9329 6.37319 42.5154 6.71327 41.2344 7.36439C40.0616 3.69527 36.6359 1.08431 32.6871 1.00199C28.6007 0.917511 25.0063 3.52967 23.7765 7.30451C22.4814 6.63515 21.0444 6.28559 19.5609 6.28559C17.1854 6.28559 14.9324 7.18799 13.217 8.82671C10.253 11.6582 9.56183 16.0111 11.3853 19.5618C7.70435 20.7308 5.08463 24.1442 5.00207 28.0784C4.91615 32.1688 7.51727 35.7338 11.3264 36.959C9.55427 40.3796 10.1246 44.6384 12.8585 47.4782C14.0297 48.6948 15.474 49.5424 17.0591 49.9696L17.5842 59.1911C17.6418 60.2054 18.4847 61 19.503 61H22.5457C23.5639 61 24.4067 60.2054 24.4644 59.1911L24.8851 51.795C26.5265 54.0997 29.2046 55.598 32.1803 55.6601C32.2453 55.6615 32.3108 55.6622 32.3756 55.6622C35.919 55.6622 39.06 53.6387 40.5776 50.6044L41.0667 59.1911C41.1243 60.2054 41.9672 61 42.9855 61H46.0283C47.0465 61 47.8892 60.2054 47.9468 59.1911L48.4808 49.8121C49.662 49.3781 50.7409 48.7052 51.6504 47.8355C54.6144 45.0038 55.3056 40.6511 53.4821 37.1003C57.1631 35.9314 59.7827 32.518 59.8653 28.5839C59.9513 24.4933 57.3502 20.9284 53.541 19.7032ZM18.7583 50.259C18.9953 50.277 19.2337 50.289 19.4742 50.289C20.8226 50.289 22.1346 49.9982 23.3363 49.4411L22.9647 55.9721H19.0836L18.7583 50.259ZM22.5457 59.32H19.5029C19.3747 59.32 19.2686 59.2214 19.2614 59.0956L19.1792 57.652H22.8692L22.787 59.0956C22.7798 59.2214 22.6739 59.32 22.5457 59.32ZM42.2171 49.8456C43.2088 50.1981 44.2537 50.3777 45.3062 50.3767H45.3069C45.8024 50.3767 46.2919 50.3352 46.7729 50.2582L46.4476 55.9721H42.566L42.2171 49.8456ZM46.0283 59.32H42.9855C42.8573 59.32 42.7512 59.2214 42.744 59.0956L42.6618 57.652H46.3518L46.2697 59.0956C46.2625 59.2214 46.1564 59.32 46.0283 59.32ZM52.0336 35.7316C51.8953 35.7563 51.7655 35.8154 51.656 35.9033C51.5465 35.9912 51.4607 36.1051 51.4066 36.2347C51.3525 36.3643 51.3318 36.5054 51.3463 36.6451C51.3608 36.7847 51.41 36.9186 51.4896 37.0343C53.5651 40.0528 53.1447 44.0844 50.49 46.6207C49.0885 47.9594 47.248 48.6967 45.3069 48.6967H45.3064C43.7676 48.6966 42.2907 48.2371 41.0355 47.3681C40.9204 47.2883 40.7871 47.2386 40.6478 47.2236C40.5085 47.2085 40.3677 47.2285 40.2381 47.2817C40.1085 47.335 39.9943 47.4198 39.9058 47.5285C39.8174 47.6371 39.7576 47.7662 39.7317 47.9039C39.0612 51.4778 35.8873 54.0556 32.2153 53.9806C28.6631 53.9065 25.629 51.3298 25.0011 47.8535C24.9661 47.6597 24.8641 47.4845 24.713 47.3582C24.562 47.232 24.3713 47.1628 24.1745 47.1628C24.0055 47.1627 23.8405 47.2137 23.7009 47.3089C22.4547 48.1594 20.9931 48.6089 19.4742 48.6089C17.4138 48.6089 15.494 47.7935 14.0687 46.313C11.6113 43.7604 11.2958 39.8034 13.3185 36.9041C13.3989 36.7889 13.4492 36.6554 13.4646 36.5158C13.4801 36.3762 13.4603 36.235 13.407 36.105C13.3538 35.975 13.2688 35.8605 13.1598 35.7718C13.0509 35.6832 12.9214 35.6233 12.7833 35.5976C9.17087 34.9252 6.60467 31.7776 6.68171 28.1137C6.75599 24.5773 9.34331 21.5562 12.834 20.9305C12.9722 20.9057 13.102 20.8467 13.2115 20.7588C13.3211 20.6709 13.4068 20.5569 13.4609 20.4274C13.515 20.2978 13.5358 20.1567 13.5213 20.017C13.5068 19.8773 13.4575 19.7435 13.3779 19.6278C11.3023 16.6093 11.7227 12.5778 14.3775 10.0415C15.7788 8.70275 17.6197 7.96547 19.5609 7.96547C21.0996 7.96547 22.5765 8.42495 23.8317 9.29411C23.9469 9.37386 24.0802 9.42354 24.2195 9.43862C24.3588 9.45371 24.4996 9.43371 24.6292 9.38046C24.7588 9.3272 24.873 9.24239 24.9614 9.13373C25.0499 9.02506 25.1097 8.89601 25.1355 8.75831C25.8063 5.18435 28.9796 2.60591 32.6523 2.68163C36.2043 2.75567 39.2383 5.33243 39.8663 8.80871C39.8912 8.94656 39.9502 9.07598 40.0379 9.18521C40.1256 9.29444 40.2392 9.38 40.3684 9.43411C40.4976 9.48822 40.6383 9.50915 40.7777 9.49502C40.917 9.48088 41.0506 9.43211 41.1663 9.35315C42.4127 8.50271 43.8743 8.05319 45.3932 8.05319C47.4538 8.05319 49.3734 8.86859 50.7987 10.3492C53.2562 12.9018 53.5716 16.8588 51.5489 19.758C51.4685 19.8732 51.4183 20.0067 51.4029 20.1463C51.3874 20.2859 51.4072 20.4271 51.4605 20.5571C51.5137 20.6871 51.5987 20.8016 51.7076 20.8903C51.8166 20.9789 51.946 21.0388 52.0841 21.0646C55.6965 21.7373 58.2626 24.8848 58.1858 28.5485C58.1114 32.0851 55.5241 35.106 52.0336 35.7316Z"/>
</mask>
<path d="M53.541 19.7032C55.3134 16.2824 54.7428 12.0236 52.0091 9.18395C50.2641 7.37147 47.9146 6.37319 45.3932 6.37319C43.9329 6.37319 42.5154 6.71327 41.2344 7.36439C40.0616 3.69527 36.6359 1.08431 32.6871 1.00199C28.6007 0.917511 25.0063 3.52967 23.7765 7.30451C22.4814 6.63515 21.0444 6.28559 19.5609 6.28559C17.1854 6.28559 14.9324 7.18799 13.217 8.82671C10.253 11.6582 9.56183 16.0111 11.3853 19.5618C7.70435 20.7308 5.08463 24.1442 5.00207 28.0784C4.91615 32.1688 7.51727 35.7338 11.3264 36.959C9.55427 40.3796 10.1246 44.6384 12.8585 47.4782C14.0297 48.6948 15.474 49.5424 17.0591 49.9696L17.5842 59.1911C17.6418 60.2054 18.4847 61 19.503 61H22.5457C23.5639 61 24.4067 60.2054 24.4644 59.1911L24.8851 51.795C26.5265 54.0997 29.2046 55.598 32.1803 55.6601C32.2453 55.6615 32.3108 55.6622 32.3756 55.6622C35.919 55.6622 39.06 53.6387 40.5776 50.6044L41.0667 59.1911C41.1243 60.2054 41.9672 61 42.9855 61H46.0283C47.0465 61 47.8892 60.2054 47.9468 59.1911L48.4808 49.8121C49.662 49.3781 50.7409 48.7052 51.6504 47.8355C54.6144 45.0038 55.3056 40.6511 53.4821 37.1003C57.1631 35.9314 59.7827 32.518 59.8653 28.5839C59.9513 24.4933 57.3502 20.9284 53.541 19.7032ZM18.7583 50.259C18.9953 50.277 19.2337 50.289 19.4742 50.289C20.8226 50.289 22.1346 49.9982 23.3363 49.4411L22.9647 55.9721H19.0836L18.7583 50.259ZM22.5457 59.32H19.5029C19.3747 59.32 19.2686 59.2214 19.2614 59.0956L19.1792 57.652H22.8692L22.787 59.0956C22.7798 59.2214 22.6739 59.32 22.5457 59.32ZM42.2171 49.8456C43.2088 50.1981 44.2537 50.3777 45.3062 50.3767H45.3069C45.8024 50.3767 46.2919 50.3352 46.7729 50.2582L46.4476 55.9721H42.566L42.2171 49.8456ZM46.0283 59.32H42.9855C42.8573 59.32 42.7512 59.2214 42.744 59.0956L42.6618 57.652H46.3518L46.2697 59.0956C46.2625 59.2214 46.1564 59.32 46.0283 59.32ZM52.0336 35.7316C51.8953 35.7563 51.7655 35.8154 51.656 35.9033C51.5465 35.9912 51.4607 36.1051 51.4066 36.2347C51.3525 36.3643 51.3318 36.5054 51.3463 36.6451C51.3608 36.7847 51.41 36.9186 51.4896 37.0343C53.5651 40.0528 53.1447 44.0844 50.49 46.6207C49.0885 47.9594 47.248 48.6967 45.3069 48.6967H45.3064C43.7676 48.6966 42.2907 48.2371 41.0355 47.3681C40.9204 47.2883 40.7871 47.2386 40.6478 47.2236C40.5085 47.2085 40.3677 47.2285 40.2381 47.2817C40.1085 47.335 39.9943 47.4198 39.9058 47.5285C39.8174 47.6371 39.7576 47.7662 39.7317 47.9039C39.0612 51.4778 35.8873 54.0556 32.2153 53.9806C28.6631 53.9065 25.629 51.3298 25.0011 47.8535C24.9661 47.6597 24.8641 47.4845 24.713 47.3582C24.562 47.232 24.3713 47.1628 24.1745 47.1628C24.0055 47.1627 23.8405 47.2137 23.7009 47.3089C22.4547 48.1594 20.9931 48.6089 19.4742 48.6089C17.4138 48.6089 15.494 47.7935 14.0687 46.313C11.6113 43.7604 11.2958 39.8034 13.3185 36.9041C13.3989 36.7889 13.4492 36.6554 13.4646 36.5158C13.4801 36.3762 13.4603 36.235 13.407 36.105C13.3538 35.975 13.2688 35.8605 13.1598 35.7718C13.0509 35.6832 12.9214 35.6233 12.7833 35.5976C9.17087 34.9252 6.60467 31.7776 6.68171 28.1137C6.75599 24.5773 9.34331 21.5562 12.834 20.9305C12.9722 20.9057 13.102 20.8467 13.2115 20.7588C13.3211 20.6709 13.4068 20.5569 13.4609 20.4274C13.515 20.2978 13.5358 20.1567 13.5213 20.017C13.5068 19.8773 13.4575 19.7435 13.3779 19.6278C11.3023 16.6093 11.7227 12.5778 14.3775 10.0415C15.7788 8.70275 17.6197 7.96547 19.5609 7.96547C21.0996 7.96547 22.5765 8.42495 23.8317 9.29411C23.9469 9.37386 24.0802 9.42354 24.2195 9.43862C24.3588 9.45371 24.4996 9.43371 24.6292 9.38046C24.7588 9.3272 24.873 9.24239 24.9614 9.13373C25.0499 9.02506 25.1097 8.89601 25.1355 8.75831C25.8063 5.18435 28.9796 2.60591 32.6523 2.68163C36.2043 2.75567 39.2383 5.33243 39.8663 8.80871C39.8912 8.94656 39.9502 9.07598 40.0379 9.18521C40.1256 9.29444 40.2392 9.38 40.3684 9.43411C40.4976 9.48822 40.6383 9.50915 40.7777 9.49502C40.917 9.48088 41.0506 9.43211 41.1663 9.35315C42.4127 8.50271 43.8743 8.05319 45.3932 8.05319C47.4538 8.05319 49.3734 8.86859 50.7987 10.3492C53.2562 12.9018 53.5716 16.8588 51.5489 19.758C51.4685 19.8732 51.4183 20.0067 51.4029 20.1463C51.3874 20.2859 51.4072 20.4271 51.4605 20.5571C51.5137 20.6871 51.5987 20.8016 51.7076 20.8903C51.8166 20.9789 51.946 21.0388 52.0841 21.0646C55.6965 21.7373 58.2626 24.8848 58.1858 28.5485C58.1114 32.0851 55.5241 35.106 52.0336 35.7316Z" fill="black"/>
<path d="M53.541 19.7032C55.3134 16.2824 54.7428 12.0236 52.0091 9.18395C50.2641 7.37147 47.9146 6.37319 45.3932 6.37319C43.9329 6.37319 42.5154 6.71327 41.2344 7.36439C40.0616 3.69527 36.6359 1.08431 32.6871 1.00199C28.6007 0.917511 25.0063 3.52967 23.7765 7.30451C22.4814 6.63515 21.0444 6.28559 19.5609 6.28559C17.1854 6.28559 14.9324 7.18799 13.217 8.82671C10.253 11.6582 9.56183 16.0111 11.3853 19.5618C7.70435 20.7308 5.08463 24.1442 5.00207 28.0784C4.91615 32.1688 7.51727 35.7338 11.3264 36.959C9.55427 40.3796 10.1246 44.6384 12.8585 47.4782C14.0297 48.6948 15.474 49.5424 17.0591 49.9696L17.5842 59.1911C17.6418 60.2054 18.4847 61 19.503 61H22.5457C23.5639 61 24.4067 60.2054 24.4644 59.1911L24.8851 51.795C26.5265 54.0997 29.2046 55.598 32.1803 55.6601C32.2453 55.6615 32.3108 55.6622 32.3756 55.6622C35.919 55.6622 39.06 53.6387 40.5776 50.6044L41.0667 59.1911C41.1243 60.2054 41.9672 61 42.9855 61H46.0283C47.0465 61 47.8892 60.2054 47.9468 59.1911L48.4808 49.8121C49.662 49.3781 50.7409 48.7052 51.6504 47.8355C54.6144 45.0038 55.3056 40.6511 53.4821 37.1003C57.1631 35.9314 59.7827 32.518 59.8653 28.5839C59.9513 24.4933 57.3502 20.9284 53.541 19.7032ZM18.7583 50.259C18.9953 50.277 19.2337 50.289 19.4742 50.289C20.8226 50.289 22.1346 49.9982 23.3363 49.4411L22.9647 55.9721H19.0836L18.7583 50.259ZM22.5457 59.32H19.5029C19.3747 59.32 19.2686 59.2214 19.2614 59.0956L19.1792 57.652H22.8692L22.787 59.0956C22.7798 59.2214 22.6739 59.32 22.5457 59.32ZM42.2171 49.8456C43.2088 50.1981 44.2537 50.3777 45.3062 50.3767H45.3069C45.8024 50.3767 46.2919 50.3352 46.7729 50.2582L46.4476 55.9721H42.566L42.2171 49.8456ZM46.0283 59.32H42.9855C42.8573 59.32 42.7512 59.2214 42.744 59.0956L42.6618 57.652H46.3518L46.2697 59.0956C46.2625 59.2214 46.1564 59.32 46.0283 59.32ZM52.0336 35.7316C51.8953 35.7563 51.7655 35.8154 51.656 35.9033C51.5465 35.9912 51.4607 36.1051 51.4066 36.2347C51.3525 36.3643 51.3318 36.5054 51.3463 36.6451C51.3608 36.7847 51.41 36.9186 51.4896 37.0343C53.5651 40.0528 53.1447 44.0844 50.49 46.6207C49.0885 47.9594 47.248 48.6967 45.3069 48.6967H45.3064C43.7676 48.6966 42.2907 48.2371 41.0355 47.3681C40.9204 47.2883 40.7871 47.2386 40.6478 47.2236C40.5085 47.2085 40.3677 47.2285 40.2381 47.2817C40.1085 47.335 39.9943 47.4198 39.9058 47.5285C39.8174 47.6371 39.7576 47.7662 39.7317 47.9039C39.0612 51.4778 35.8873 54.0556 32.2153 53.9806C28.6631 53.9065 25.629 51.3298 25.0011 47.8535C24.9661 47.6597 24.8641 47.4845 24.713 47.3582C24.562 47.232 24.3713 47.1628 24.1745 47.1628C24.0055 47.1627 23.8405 47.2137 23.7009 47.3089C22.4547 48.1594 20.9931 48.6089 19.4742 48.6089C17.4138 48.6089 15.494 47.7935 14.0687 46.313C11.6113 43.7604 11.2958 39.8034 13.3185 36.9041C13.3989 36.7889 13.4492 36.6554 13.4646 36.5158C13.4801 36.3762 13.4603 36.235 13.407 36.105C13.3538 35.975 13.2688 35.8605 13.1598 35.7718C13.0509 35.6832 12.9214 35.6233 12.7833 35.5976C9.17087 34.9252 6.60467 31.7776 6.68171 28.1137C6.75599 24.5773 9.34331 21.5562 12.834 20.9305C12.9722 20.9057 13.102 20.8467 13.2115 20.7588C13.3211 20.6709 13.4068 20.5569 13.4609 20.4274C13.515 20.2978 13.5358 20.1567 13.5213 20.017C13.5068 19.8773 13.4575 19.7435 13.3779 19.6278C11.3023 16.6093 11.7227 12.5778 14.3775 10.0415C15.7788 8.70275 17.6197 7.96547 19.5609 7.96547C21.0996 7.96547 22.5765 8.42495 23.8317 9.29411C23.9469 9.37386 24.0802 9.42354 24.2195 9.43862C24.3588 9.45371 24.4996 9.43371 24.6292 9.38046C24.7588 9.3272 24.873 9.24239 24.9614 9.13373C25.0499 9.02506 25.1097 8.89601 25.1355 8.75831C25.8063 5.18435 28.9796 2.60591 32.6523 2.68163C36.2043 2.75567 39.2383 5.33243 39.8663 8.80871C39.8912 8.94656 39.9502 9.07598 40.0379 9.18521C40.1256 9.29444 40.2392 9.38 40.3684 9.43411C40.4976 9.48822 40.6383 9.50915 40.7777 9.49502C40.917 9.48088 41.0506 9.43211 41.1663 9.35315C42.4127 8.50271 43.8743 8.05319 45.3932 8.05319C47.4538 8.05319 49.3734 8.86859 50.7987 10.3492C53.2562 12.9018 53.5716 16.8588 51.5489 19.758C51.4685 19.8732 51.4183 20.0067 51.4029 20.1463C51.3874 20.2859 51.4072 20.4271 51.4605 20.5571C51.5137 20.6871 51.5987 20.8016 51.7076 20.8903C51.8166 20.9789 51.946 21.0388 52.0841 21.0646C55.6965 21.7373 58.2626 24.8848 58.1858 28.5485C58.1114 32.0851 55.5241 35.106 52.0336 35.7316Z" stroke="black" stroke-width="0.6" mask="url(#path-2-outside-2_73_528)"/>
</svg>
