<svg width="60" height="60" viewBox="0 0 60 60" fill="none" xmlns="http://www.w3.org/2000/svg">
<path d="M55.7639 15.125C55.6046 14.852 55.3442 14.6527 55.0391 14.5703C54.7339 14.4879 54.4086 14.529 54.1335 14.6847L45.5417 19.647L47.2672 13.2091C47.3078 13.0583 47.318 12.9009 47.2974 12.7461C47.2768 12.5913 47.2258 12.4422 47.1472 12.3072C47.0687 12.1722 46.9642 12.0541 46.8398 11.9598C46.7154 11.8654 46.5735 11.7966 46.4223 11.7573C46.2715 11.7168 46.1142 11.7065 45.9594 11.7271C45.8046 11.7477 45.6554 11.7988 45.5204 11.8773C45.3855 11.9559 45.2674 12.0603 45.173 12.1848C45.0786 12.3092 45.0098 12.4511 44.9706 12.6022L42.6262 21.3368L31.1903 27.9413V14.7323L37.5806 8.342C37.8031 8.1195 37.9282 7.81772 37.9282 7.50305C37.9282 7.18838 37.8031 6.8866 37.5806 6.6641C37.3581 6.4416 37.0564 6.3166 36.7417 6.3166C36.427 6.3166 36.1252 6.4416 35.9027 6.6641L31.1903 11.3646V1.44C31.1903 0.7855 30.6548 0.25 30.0003 0.25C29.3458 0.25 28.8103 0.7855 28.8103 1.44V11.3646L24.0979 6.6522C23.9878 6.54203 23.857 6.45463 23.713 6.39501C23.5691 6.33538 23.4148 6.3047 23.259 6.3047C23.1032 6.3047 22.9489 6.33538 22.805 6.39501C22.661 6.45463 22.5302 6.54203 22.42 6.6522C22.3099 6.76237 22.2225 6.89317 22.1629 7.03711C22.1032 7.18106 22.0725 7.33534 22.0725 7.49115C22.0725 7.64696 22.1032 7.80124 22.1629 7.94519C22.2225 8.08913 22.3099 8.21993 22.42 8.3301L28.8103 14.7204V27.9294L17.3625 21.3249L15.0182 12.5903C14.8516 11.9596 14.1971 11.5788 13.5664 11.7454C12.9357 11.912 12.5549 12.5665 12.7215 13.1972L14.447 19.6351L5.85524 14.6728C5.28404 14.3396 4.55814 14.5419 4.22494 15.1131C3.89174 15.6843 4.09404 16.4102 4.66524 16.7434L13.257 21.7057L6.81914 23.4312C6.18844 23.5978 5.80764 24.2523 5.97424 24.883C6.11704 25.4185 6.59304 25.7636 7.11664 25.7636C7.22374 25.7636 7.31894 25.7517 7.42604 25.7279L16.1606 23.3836L27.6203 30L16.1725 36.6045L7.43794 34.2602C6.80724 34.0936 6.15274 34.4625 5.98614 35.1051C5.81954 35.7477 6.18844 36.3903 6.83104 36.5569L13.2689 38.2824L4.67714 43.2447C4.10594 43.5779 3.91554 44.3038 4.23684 44.875C4.45104 45.2558 4.85564 45.47 5.27214 45.47C5.47444 45.47 5.67674 45.4224 5.86714 45.3153L14.4589 40.353L12.7334 46.7909C12.6865 46.967 12.6809 47.1516 12.717 47.3302C12.7532 47.5089 12.8301 47.6768 12.9419 47.8208C13.0536 47.9648 13.1971 48.081 13.3612 48.1604C13.5253 48.2398 13.7055 48.2802 13.8877 48.2784C14.4113 48.2784 14.8992 47.9333 15.0301 47.3978L17.3744 38.6632L28.8103 32.0587V45.2677L22.42 51.658C22.254 51.8242 22.1411 52.036 22.0956 52.2665C22.0501 52.497 22.0742 52.7358 22.1648 52.9526C22.2553 53.1693 22.4082 53.3543 22.6041 53.484C22.8 53.6137 23.03 53.6823 23.2649 53.681C23.5743 53.681 23.8718 53.562 24.1098 53.3359L28.8103 48.6354V58.56C28.8103 59.2145 29.3458 59.75 30.0003 59.75C30.6548 59.75 31.1903 59.2145 31.1903 58.56V48.6354L35.9027 53.3478C36.0129 53.458 36.1437 53.5454 36.2877 53.605C36.4316 53.6646 36.5859 53.6953 36.7417 53.6953C36.8975 53.6953 37.0518 53.6646 37.1957 53.605C37.3397 53.5454 37.4705 53.458 37.5806 53.3478C37.6908 53.2376 37.7782 53.1068 37.8378 52.9629C37.8975 52.8189 37.9282 52.6647 37.9282 52.5089C37.9282 52.353 37.8975 52.1988 37.8378 52.0548C37.7782 51.9109 37.6908 51.7801 37.5806 51.6699L31.1903 45.2796V32.0706L42.6381 38.6751L44.9824 47.4097C45.1252 47.9452 45.6012 48.2903 46.1248 48.2903C46.2319 48.2903 46.3271 48.2784 46.4342 48.2546C47.0649 48.088 47.4457 47.4335 47.2791 46.8028L45.5536 40.3649L54.1455 45.3272C54.3358 45.4343 54.5382 45.4819 54.7405 45.4819C55.0029 45.4817 55.258 45.395 55.4662 45.2351C55.6743 45.0752 55.8239 44.8511 55.8917 44.5975C55.9595 44.344 55.9417 44.0751 55.8411 43.8327C55.7406 43.5902 55.5628 43.3877 55.3354 43.2566L46.7436 38.2943L53.1815 36.5688C53.8122 36.4022 54.193 35.7477 54.0264 35.117C53.8598 34.4863 53.2053 34.1055 52.5746 34.2721L43.84 36.6164L32.3803 30L43.8281 23.3955L52.5627 25.7398C52.6698 25.7636 52.765 25.7755 52.8722 25.7755C53.3958 25.7755 53.8836 25.4304 54.0145 24.8949C54.0551 24.7441 54.0653 24.5867 54.0447 24.4319C54.0241 24.2771 53.9731 24.128 53.8945 23.993C53.816 23.858 53.7115 23.7399 53.5871 23.6456C53.4627 23.5512 53.3208 23.4824 53.1697 23.4431L46.7318 21.7176L55.3235 16.7553C55.8947 16.4221 56.097 15.6962 55.7639 15.125Z" fill="black"/>
</svg>
