<svg width="60" height="60" viewBox="0 0 60 60" fill="none" xmlns="http://www.w3.org/2000/svg">
<path d="M48.8964 38.3142C47.9947 38.3249 47.1245 37.9825 46.4718 37.3602C45.3951 36.4276 44.0184 35.9142 42.594 35.9142C41.1696 35.9142 39.7928 36.4276 38.7162 37.3602C38.0641 37.9823 37.1946 38.3247 36.2934 38.3142C35.5581 38.3388 34.8378 38.1025 34.26 37.647C34.0524 34.9842 34.2084 32.2356 35.2248 30.2022C35.5142 29.5751 35.93 29.0146 36.4463 28.5559C36.9625 28.0971 37.568 27.7501 38.2248 27.5364C49.1802 23.8956 55.2132 16.8864 55.2132 7.80003V4.80003L53.1444 6.97083C53.0892 7.03083 47.5278 12.7866 43.281 10.6662C39.6846 8.87343 35.3544 8.95743 32.2506 10.878C31.3734 11.4105 30.6108 12.1121 30.0072 12.942C29.4034 12.1121 28.6406 11.4104 27.7632 10.878C24.6594 8.95803 20.3298 8.87343 16.7334 10.6662C12.4878 12.786 6.92579 7.02963 6.87119 6.97143L4.79999 4.79163V7.80003C4.79999 16.8864 10.8336 23.8956 21.789 27.5364C22.4457 27.7497 23.0511 28.0964 23.5674 28.5549C24.0837 29.0133 24.4996 29.5736 24.789 30.2004C25.803 32.2266 25.9596 34.9692 25.7538 37.6284C25.1709 38.0962 24.4397 38.3395 23.6928 38.3142C22.792 38.3246 21.9228 37.9822 21.2712 37.3602C20.1953 36.4277 18.8193 35.9143 17.3955 35.9143C15.9717 35.9143 14.5957 36.4277 13.5198 37.3602C12.8623 37.9733 11.9968 38.3142 11.0979 38.3142C10.199 38.3142 9.33346 37.9733 8.67599 37.3602C7.60724 36.4155 6.22634 35.9004 4.79999 35.9142V38.3142C5.7011 38.3037 6.57052 38.6464 7.22219 39.2688C8.29164 40.2135 9.67314 40.7284 11.1 40.7142C12.5262 40.728 13.907 40.2131 14.976 39.2688C15.6329 38.6554 16.4982 38.3142 17.397 38.3142C18.2958 38.3142 19.1611 38.6554 19.818 39.2688C20.8872 40.2131 22.2682 40.728 23.6946 40.7142C24.2749 40.7187 24.8526 40.6368 25.4088 40.4712C25.1259 42.1871 24.7453 43.8855 24.2688 45.558C24.0796 45.5856 23.8887 45.5997 23.6976 45.6C22.7967 45.6105 21.9274 45.2678 21.276 44.6454C20.2 43.7132 18.824 43.2001 17.4003 43.2001C15.9766 43.2001 14.6006 43.7132 13.5246 44.6454C12.8673 45.2589 12.0017 45.6 11.1027 45.6C10.2036 45.6 9.33806 45.2589 8.68079 44.6454C7.61057 43.7001 6.22786 43.1851 4.79999 43.2V45.6C5.7011 45.5895 6.57052 45.9322 7.22219 46.5546C8.29164 47.4993 9.67314 48.0142 11.1 48C12.5262 48.0139 13.9071 47.499 14.976 46.5546C15.6329 45.9412 16.4982 45.6 17.397 45.6C18.2958 45.6 19.1611 45.9412 19.818 46.5546C20.8944 47.4869 22.2706 48 23.6946 48C25.1185 48 26.4948 47.4869 27.5712 46.5546C28.2288 45.9412 29.0947 45.6001 29.994 45.6001C30.8933 45.6001 31.7591 45.9412 32.4168 46.5546C33.4935 47.4869 34.8701 48 36.2943 48C37.7185 48 39.0951 47.4869 40.1718 46.5546C40.8296 45.9411 41.6957 45.6 42.5952 45.6C43.4947 45.6 44.3608 45.9411 45.0186 46.5546C46.0959 47.4869 47.4729 47.9999 48.8976 47.9999C50.3223 47.9999 51.6993 47.4869 52.7766 46.5546C53.4288 45.9323 54.2985 45.5897 55.2 45.6V43.2C53.7729 43.1862 52.3911 43.7011 51.321 44.6454C50.6627 45.259 49.7963 45.6001 48.8964 45.6001C47.9965 45.6001 47.1301 45.259 46.4718 44.6454C45.395 43.7131 44.0183 43.2 42.594 43.2C41.1697 43.2 39.793 43.7131 38.7162 44.6454C38.0643 45.268 37.1947 45.6106 36.2934 45.6C36.1113 45.5997 35.9295 45.587 35.7492 45.5622C35.2706 43.8907 34.8884 42.1931 34.6044 40.4778C35.1528 40.6389 35.7218 40.7186 36.2934 40.7142C37.72 40.7281 39.1012 40.2132 40.1706 39.2688C40.8284 38.6553 41.6945 38.3142 42.594 38.3142C43.4935 38.3142 44.3596 38.6553 45.0174 39.2688C46.0947 40.2011 47.4717 40.7141 48.8964 40.7141C50.3211 40.7141 51.6981 40.2011 52.7754 39.2688C53.4279 38.6462 54.2981 38.3036 55.2 38.3142V35.9142C53.7727 35.9003 52.3909 36.4154 51.321 37.3602C50.6683 37.9825 49.7981 38.3249 48.8964 38.3142ZM29.9922 43.2C29.0046 43.1778 28.0296 43.4252 27.1722 43.9158C28.0944 39.9624 29.0844 33.4272 26.9352 29.1294C26.5052 28.2194 25.8939 27.4068 25.1388 26.7414C24.3836 26.0759 23.5006 25.5716 22.5438 25.2594C17.346 23.5308 8.94839 19.4172 7.43999 10.6374C9.92159 12.4974 14.0166 14.7072 17.8068 12.8166C20.6754 11.3874 24.0894 11.4276 26.5032 12.921C27.1788 13.2826 27.7474 13.8153 28.1522 14.4659C28.557 15.1165 28.7837 15.862 28.8096 16.6278H31.2096C31.2355 15.862 31.4621 15.1165 31.8669 14.4659C32.2717 13.8153 32.8404 13.2826 33.516 12.921C35.931 11.4276 39.3444 11.3874 42.2124 12.8166C46.0026 14.706 50.0976 12.498 52.5798 10.6374C51.0648 19.4172 42.6672 23.5308 37.467 25.26C36.5102 25.5723 35.6272 26.0766 34.8721 26.7421C34.117 27.4075 33.5057 28.2201 33.0756 29.13C30.9234 33.435 31.92 39.9852 32.844 43.9368C31.9796 43.4327 30.9926 43.1777 29.9922 43.2ZM48.8964 52.8C47.9945 52.8107 47.1243 52.4681 46.4718 51.8454C45.395 50.9131 44.0183 50.4 42.594 50.4C41.1697 50.4 39.793 50.9131 38.7162 51.8454C38.0584 52.4589 37.1925 52.8 36.2931 52.8C35.3937 52.8 34.5277 52.4589 33.87 51.8454C32.7934 50.9131 31.4169 50.3999 29.9928 50.3999C28.5686 50.3999 27.1922 50.9131 26.1156 51.8454C25.4583 52.4589 24.5927 52.8 23.6937 52.8C22.7946 52.8 21.9291 52.4589 21.2718 51.8454C20.1958 50.9132 18.8198 50.4001 17.3961 50.4001C15.9724 50.4001 14.5964 50.9132 13.5204 51.8454C12.8631 52.4589 11.9975 52.8 11.0985 52.8C10.1994 52.8 9.33386 52.4589 8.67659 51.8454C7.60745 50.9011 6.22642 50.3861 4.79999 50.4V52.8C5.7011 52.7895 6.57052 53.1322 7.22219 53.7546C8.29164 54.6993 9.67314 55.2142 11.1 55.2C12.5262 55.2139 13.9071 54.699 14.976 53.7546C15.6329 53.1412 16.4982 52.8 17.397 52.8C18.2958 52.8 19.1611 53.1412 19.818 53.7546C20.8944 54.6869 22.2706 55.2 23.6946 55.2C25.1185 55.2 26.4948 54.6869 27.5712 53.7546C28.2288 53.1412 29.0947 52.8001 29.994 52.8001C30.8933 52.8001 31.7591 53.1412 32.4168 53.7546C33.4935 54.6869 34.8701 55.2 36.2943 55.2C37.7185 55.2 39.0951 54.6869 40.1718 53.7546C40.8296 53.1411 41.6957 52.8 42.5952 52.8C43.4947 52.8 44.3608 53.1411 45.0186 53.7546C46.0959 54.6869 47.4729 55.1999 48.8976 55.1999C50.3223 55.1999 51.6993 54.6869 52.7766 53.7546C53.4288 53.1323 54.2985 52.7897 55.2 52.8V50.4C53.7729 50.3862 52.3911 50.9011 51.321 51.8454C50.6685 52.4681 49.7982 52.8107 48.8964 52.8Z" fill="black"/>
</svg>
