<?xml version="1.0" encoding="utf-8"?>
<!DOCTYPE svg PUBLIC "-//W3C//DTD SVG 20010904//EN" "http://www.w3.org/TR/2001/REC-SVG-20010904/DTD/svg10.dtd">
<svg height="530" preserveAspectRatio="xMidYMid meet" version="1.0" viewBox="0 0 1920.000000 531.000000" xmlns="http://www.w3.org/2000/svg">
<g fill="#000000" stroke="none" transform="translate(0.000000,531.000000) scale(0.100000,-0.100000)">
<path d="M0 2770 l0 -2531 88 59 c207 140 522 314 820 456 1069 506 2320 826 3642 931 662 52 1472 44 2170 -20 1124 -105 2164 -328 3430 -735 1638 -527 2912 -788 4385 -901 226 -17 1052 -23 1312 -10 287 15 593 43 838 77 199 28 233 40 215 75 -6 10 -10 31 -10 48 0 18 -5 31 -12 31 -9 0 -8 4 2 10 12 8 12 10 1 10 -8 0 -11 7 -8 20 3 11 1 20 -5 20 -6 0 -8 7 -5 15 4 8 1 17 -5 21 -7 4 -6 9 3 15 12 7 12 9 0 9 -7 0 -11 6 -7 15 3 8 1 15 -3 15 -5 0 -8 8 -7 17 2 10 -3 32 -10 49 -7 18 -9 36 -4 44 5 9 3 28 -7 49 -19 44 -29 89 -38 161 -4 30 -10 56 -14 58 -4 1 -6 23 -5 48 3 39 1 45 -13 39 -15 -5 -15 -4 -1 12 17 20 13 41 -11 61 -9 8 -10 11 -3 7 8 -4 12 5 12 32 0 28 -3 34 -10 23 -7 -12 -9 -10 -7 7 0 12 4 20 8 17 4 -2 5 6 2 17 -6 20 -10 21 -92 15 -341 -27 -1094 -22 -1501 8 -1320 100 -2577 428 -3805 993 -71 33 -357 175 -635 315 -671 338 -1088 526 -1735 783 -2114 840 -4799 1533 -7610 1964 -464 71 -1281 181 -1346 181 -19 0 -19 -66 -19 -2530z"/>
</g>
</svg>